{"glyphs":{"0":{"ha":947,"x_min":92,"x_max":856,"o":"m 475 -18 q 291 26 365 -18 q 173 143 217 69 q 110 309 129 217 q 92 497 92 401 q 111 690 92 599 q 174 850 131 781 q 292 960 218 919 q 475 1000 365 1000 q 657 960 583 1000 q 774 850 731 919 q 836 690 817 781 q 856 497 856 599 q 837 309 856 401 q 774 143 818 217 q 658 26 731 69 q 475 -18 585 -18 m 475 94 q 626 149 569 94 q 709 296 683 204 q 735 499 735 388 q 709 700 735 613 q 627 838 683 788 q 476 888 571 888 q 321 838 379 888 q 238 700 263 788 q 213 499 213 613 q 238 296 213 388 q 320 149 263 204 q 475 94 378 94 m 475 403 q 413 429 439 403 q 386 490 386 456 q 413 553 386 526 q 475 579 439 579 q 536 553 511 579 q 561 490 561 526 q 536 429 561 456 q 475 403 511 403 z "},"1":{"ha":713,"x_min":103,"x_max":586,"o":"m 103 0 l 103 111 l 279 111 l 279 711 l 106 711 l 106 822 q 228 833 188 822 q 283 875 269 843 q 297 971 297 907 l 401 971 l 401 111 l 586 111 l 586 0 l 103 0 z "},"2":{"ha":800,"x_min":100,"x_max":696,"o":"m 104 1 l 104 113 q 138 262 104 200 q 222 369 171 324 q 333 453 274 415 q 443 531 392 492 q 528 618 494 569 q 561 733 561 667 q 518 835 561 792 q 393 878 475 878 q 301 855 339 878 q 242 797 263 832 q 222 721 222 761 l 100 721 q 133 854 100 796 q 241 954 171 919 q 394 989 311 989 q 540 960 475 989 q 642 874 604 931 q 681 733 681 817 q 647 588 681 649 q 563 481 614 526 q 452 396 511 435 q 342 317 393 357 q 257 228 290 278 q 224 113 224 179 l 696 113 l 696 1 l 104 1 z "},"3":{"ha":846,"x_min":83,"x_max":751,"o":"m 417 -17 q 274 8 342 -17 q 160 82 207 33 q 93 200 113 131 q 86 240 89 219 q 83 282 83 260 l 200 292 q 207 240 200 268 q 285 126 228 158 q 418 94 342 94 q 528 120 481 94 q 604 191 576 146 q 632 294 632 236 q 566 444 632 396 q 397 493 500 493 l 265 493 l 265 588 l 550 861 l 158 861 l 158 972 l 697 972 l 697 854 l 429 588 q 609 547 538 588 q 716 438 681 506 q 751 289 751 369 q 705 124 751 193 q 583 19 658 56 q 417 -17 507 -17 z "},"4":{"ha":851,"x_min":90,"x_max":783,"o":"m 519 1 l 519 233 l 90 233 l 90 344 l 519 974 l 639 974 l 639 344 l 783 344 l 783 232 l 639 232 l 639 1 l 519 1 m 218 344 l 519 344 l 519 776 l 218 344 z "},"5":{"ha":863,"x_min":108,"x_max":765,"o":"m 431 -17 q 289 11 356 -17 q 175 93 222 39 q 108 226 128 147 l 219 271 q 258 181 228 221 q 335 118 289 142 q 432 94 381 94 q 585 153 525 94 q 646 325 646 213 q 582 482 646 425 q 424 539 518 539 q 327 513 369 539 q 261 447 285 488 l 133 483 l 219 972 l 701 972 l 701 861 l 310 861 l 256 565 q 332 627 276 603 q 447 651 388 651 q 604 614 532 651 q 721 504 676 576 q 765 325 765 432 q 719 140 765 217 q 597 24 672 64 q 431 -17 521 -17 z "},"6":{"ha":826,"x_min":106,"x_max":743,"o":"m 426 -17 q 254 26 326 -17 q 144 144 182 69 q 106 315 106 219 q 132 447 106 383 q 189 561 158 510 l 432 972 l 569 972 l 328 593 q 373 618 340 608 q 438 628 406 628 q 589 586 519 628 q 701 474 658 544 q 743 315 743 404 q 704 144 743 219 q 594 26 665 69 q 426 -17 524 -17 m 428 94 q 569 157 518 94 q 621 317 621 219 q 597 414 621 367 q 530 492 574 461 q 422 522 486 522 q 315 492 358 522 q 249 414 271 461 q 226 317 226 367 q 249 205 226 256 q 316 124 271 154 q 428 94 361 94 z "},"7":{"ha":732,"x_min":76,"x_max":693,"o":"m 154 1 l 569 861 l 76 861 l 76 972 l 693 972 l 693 864 l 278 1 l 154 1 z "},"8":{"ha":849,"x_min":89,"x_max":746,"o":"m 417 -17 q 253 18 328 -17 q 133 119 178 53 q 89 282 89 186 q 129 432 89 368 q 233 533 169 496 q 164 617 192 565 q 136 736 136 668 q 174 876 136 819 q 275 960 211 932 q 415 989 339 989 q 558 960 494 989 q 658 876 621 932 q 696 736 696 819 q 669 617 696 668 q 599 533 643 567 q 705 432 664 496 q 746 282 746 368 q 701 119 746 186 q 581 18 656 53 q 417 -17 506 -17 m 417 581 q 537 624 494 581 q 579 736 579 668 q 536 839 579 794 q 414 883 493 883 q 294 839 335 883 q 253 736 253 794 q 296 624 253 668 q 417 581 339 581 m 418 94 q 567 147 511 94 q 624 282 624 199 q 598 378 624 335 q 526 447 572 421 q 415 472 479 472 q 266 416 321 472 q 211 282 211 360 q 269 147 211 199 q 418 94 326 94 z "},"9":{"ha":825,"x_min":106,"x_max":743,"o":"m 279 0 l 521 379 q 476 354 508 364 q 411 344 443 344 q 260 386 331 344 q 148 499 190 428 q 106 657 106 569 q 144 828 106 754 q 254 946 183 903 q 422 989 325 989 q 595 946 524 989 q 705 828 667 903 q 743 657 743 754 q 717 526 743 589 q 660 411 692 464 l 417 0 l 279 0 m 426 450 q 535 481 492 450 q 600 559 578 511 q 622 656 622 607 q 600 767 622 717 q 533 848 578 818 q 421 878 489 878 q 279 816 331 878 q 228 656 228 754 q 251 559 228 607 q 319 481 275 511 q 426 450 364 450 z "}," ":{"ha":372,"x_min":0,"x_max":0,"o":""},"!":{"ha":479,"x_min":146,"x_max":333,"o":"m 188 299 l 168 1000 l 311 1000 l 296 299 l 188 299 m 242 -15 q 174 13 203 -15 q 146 78 146 42 q 174 147 146 118 q 242 175 203 175 q 306 147 279 175 q 333 78 333 118 q 306 13 333 42 q 242 -15 279 -15 z "},"'":{"ha":386,"x_min":111,"x_max":275,"o":"m 174 646 q 160 700 169 664 q 138 778 150 736 q 119 858 126 821 q 111 914 111 894 q 135 977 111 954 q 194 1000 160 1000 q 251 977 226 1000 q 275 914 275 954 q 267 858 275 894 q 249 778 260 821 q 228 700 238 736 q 214 646 218 664 l 174 646 z "},"\"":{"ha":617,"x_min":111,"x_max":506,"o":"m 404 646 q 390 700 400 664 q 369 778 381 736 q 349 858 357 821 q 342 914 342 894 q 366 977 342 954 q 425 1000 390 1000 q 481 977 457 1000 q 506 914 506 954 q 498 858 506 894 q 479 778 490 821 q 458 700 468 736 q 444 646 449 664 l 404 646 m 174 646 q 160 700 169 664 q 138 778 150 736 q 119 858 126 821 q 111 914 111 894 q 135 977 111 954 q 194 1000 160 1000 q 251 977 226 1000 q 275 914 275 954 q 267 858 275 894 q 249 778 260 821 q 228 700 238 736 q 214 646 218 664 l 174 646 z "},"#":{"ha":1086,"x_min":100,"x_max":986,"o":"m 229 0 l 299 289 l 100 289 l 100 400 l 325 400 l 374 601 l 189 601 l 189 713 l 400 713 l 469 1000 l 571 1000 l 501 713 l 700 713 l 769 1000 l 871 1000 l 801 713 l 986 713 l 986 601 l 775 601 l 726 400 l 897 400 l 897 289 l 700 289 l 631 0 l 529 0 l 599 289 l 400 289 l 331 0 l 229 0 m 426 400 l 625 400 l 674 601 l 475 601 l 426 400 z "},"$":{"ha":893,"x_min":81,"x_max":822,"o":"m 401 -126 l 401 -12 q 232 45 300 -1 q 126 158 164 92 q 81 297 89 225 l 224 297 q 283 172 236 224 q 401 103 329 119 l 401 440 l 397 440 q 256 484 321 456 q 153 567 192 513 q 114 717 114 622 q 146 840 114 782 q 242 937 178 897 q 401 986 306 976 l 401 1099 l 514 1099 l 514 986 q 679 931 614 975 q 777 828 744 888 q 813 713 810 769 l 671 713 q 624 809 663 764 q 514 871 585 854 l 514 547 q 672 503 601 529 q 782 424 742 478 q 822 271 822 369 q 782 122 822 183 q 672 27 742 61 q 514 -15 603 -7 l 514 -126 l 401 -126 m 236 724 q 285 623 236 657 q 401 571 333 589 l 401 874 q 286 825 336 864 q 236 724 236 786 m 700 258 q 675 342 700 310 q 608 392 650 374 q 514 421 567 410 l 514 99 q 646 151 590 110 q 700 258 701 193 z "},"%":{"ha":1196,"x_min":81,"x_max":1115,"o":"m 336 0 l 743 1000 l 851 1000 l 444 0 l 336 0 m 292 543 q 187 569 235 543 q 110 647 139 596 q 81 771 81 697 q 110 894 81 843 q 190 972 140 944 q 297 1000 240 1000 q 402 973 354 1000 q 479 895 450 946 q 508 772 508 844 q 478 647 508 699 q 398 569 447 596 q 292 543 349 543 m 293 636 q 354 656 329 636 q 392 708 379 676 q 406 772 406 740 q 378 865 406 825 q 296 906 350 906 q 212 865 240 906 q 183 771 183 824 q 211 678 183 721 q 293 636 239 636 m 899 -12 q 794 14 842 -12 q 717 91 746 40 q 688 215 688 142 q 717 338 688 288 q 797 417 747 389 q 904 444 847 444 q 1009 417 961 444 q 1086 340 1057 390 q 1115 217 1115 289 q 1085 92 1115 143 q 1005 14 1054 40 q 899 -12 956 -12 m 900 81 q 961 101 936 81 q 999 153 986 121 q 1013 217 1013 185 q 985 310 1013 269 q 903 350 957 350 q 819 309 847 350 q 790 215 790 268 q 818 123 790 165 q 900 81 846 81 z "},"&":{"ha":928,"x_min":104,"x_max":867,"o":"m 396 -17 q 183 51 261 -17 q 104 233 104 119 q 153 394 104 331 q 300 517 203 458 q 250 584 276 543 q 206 672 224 625 q 188 763 188 719 q 215 870 188 818 q 298 956 243 922 q 432 990 353 990 q 557 957 507 992 q 632 874 607 922 q 657 783 657 825 q 603 630 657 694 q 449 499 549 565 l 628 258 q 664 356 650 300 q 678 461 678 413 l 778 461 q 753 312 776 389 q 699 178 731 235 q 747 131 725 149 q 796 105 768 113 q 867 97 824 97 l 867 0 l 844 0 q 735 21 785 0 q 640 97 686 42 q 538 12 597 40 q 396 -17 478 -17 m 388 572 q 512 674 475 631 q 549 771 549 717 q 512 856 549 822 q 431 890 475 890 q 330 854 364 890 q 296 765 296 818 q 324 663 296 704 q 388 572 353 621 m 396 92 q 565 176 503 92 l 360 444 q 253 355 294 403 q 213 249 213 307 q 262 137 213 182 q 396 92 311 92 z "},"(":{"ha":421,"x_min":97,"x_max":381,"o":"m 250 -83 q 227 -42 250 -83 q 174 75 204 0 q 120 253 143 150 q 97 479 97 357 q 120 704 97 601 q 174 883 143 807 q 227 1000 204 958 q 250 1042 250 1042 l 379 1042 q 356 1003 381 1040 q 299 896 332 967 q 242 720 267 825 q 217 479 217 615 q 242 238 217 342 q 299 62 267 133 q 356 -46 332 -10 q 379 -83 381 -82 l 250 -83 z "},")":{"ha":419,"x_min":40,"x_max":322,"o":"m 42 -83 q 65 -46 40 -82 q 122 62 89 -10 q 179 238 154 133 q 204 479 204 342 q 179 720 204 615 q 122 896 154 825 q 65 1003 89 967 q 42 1042 40 1040 l 169 1042 q 192 1000 169 1042 q 246 883 215 958 q 299 704 276 807 q 322 479 322 601 q 299 253 322 357 q 246 75 276 150 q 192 -42 215 0 q 169 -83 169 -83 l 42 -83 z "},"*":{"ha":679,"x_min":81,"x_max":599,"o":"m 192 458 l 119 519 l 265 693 l 81 779 l 119 864 l 293 783 l 293 989 l 388 989 l 388 788 l 560 867 l 599 781 l 413 693 l 558 519 l 486 458 l 339 632 l 192 458 z "},"+":{"ha":764,"x_min":107,"x_max":658,"o":"m 322 117 l 322 358 l 107 358 l 107 469 l 322 469 l 322 711 l 444 711 l 444 469 l 658 469 l 658 358 l 444 358 l 444 117 l 322 117 z "},",":{"ha":339,"x_min":69,"x_max":269,"o":"m 69 -165 q 69 -153 69 -165 q 69 -131 69 -142 q 69 -119 69 -119 q 85 -115 69 -119 q 121 -97 100 -110 q 157 -60 142 -83 q 172 1 172 -36 q 166 0 171 0 q 158 0 161 0 q 97 27 124 0 q 69 89 69 54 q 97 156 69 125 q 161 186 124 186 q 240 152 210 186 q 269 67 269 118 q 247 -47 269 7 q 179 -133 224 -100 q 69 -165 135 -165 z "},"-":{"ha":678,"x_min":97,"x_max":581,"o":"m 97 354 l 97 465 l 581 465 l 581 354 l 97 354 z "},".":{"ha":308,"x_min":67,"x_max":242,"o":"m 156 -17 q 93 10 119 -17 q 67 71 67 36 q 93 133 67 107 q 156 160 119 160 q 217 133 192 160 q 242 71 242 107 q 217 10 242 36 q 156 -17 192 -17 z "},"/":{"ha":556,"x_min":26,"x_max":550,"o":"m 26 0 l 433 1000 l 550 1000 l 143 0 l 26 0 z "},":":{"ha":425,"x_min":125,"x_max":300,"o":"m 214 417 q 151 443 178 417 q 125 504 125 469 q 151 567 125 540 q 214 593 178 593 q 275 567 250 593 q 300 504 300 540 q 275 443 300 469 q 214 417 250 417 m 214 -17 q 151 10 178 -17 q 125 71 125 36 q 151 133 125 107 q 214 160 178 160 q 275 133 250 160 q 300 71 300 107 q 275 10 300 36 q 214 -17 250 -17 z "},";":{"ha":375,"x_min":50,"x_max":250,"o":"m 151 417 q 89 443 115 417 q 63 504 63 469 q 89 567 63 540 q 151 593 115 593 q 213 567 188 593 q 238 504 238 540 q 213 443 238 469 q 151 417 188 417 m 50 -165 q 50 -153 50 -165 q 50 -131 50 -142 q 50 -119 50 -119 q 65 -115 50 -119 q 101 -97 81 -110 q 138 -60 122 -83 q 153 1 153 -36 q 147 0 151 0 q 139 0 142 0 q 77 27 104 0 q 50 89 50 54 q 77 156 50 125 q 142 186 104 186 q 225 148 200 186 q 250 67 250 110 q 239 -8 250 32 q 204 -85 228 -49 q 142 -143 181 -121 q 50 -165 104 -165 z "},"<":{"ha":764,"x_min":67,"x_max":697,"o":"m 697 42 l 67 346 l 67 451 l 697 756 l 697 638 l 214 399 l 697 160 l 697 42 z "},"=":{"ha":764,"x_min":121,"x_max":643,"o":"m 122 453 l 122 564 l 643 564 l 643 453 l 122 453 m 121 189 l 121 300 l 642 300 l 642 189 l 121 189 z "},">":{"ha":764,"x_min":67,"x_max":697,"o":"m 67 42 l 67 160 l 550 399 l 67 638 l 67 756 l 697 451 l 697 346 l 67 42 z "},"?":{"ha":710,"x_min":67,"x_max":643,"o":"m 261 300 q 281 424 261 376 q 331 501 300 472 q 395 552 361 531 q 460 596 429 574 q 510 653 490 618 q 529 744 529 688 q 483 845 529 803 q 354 888 436 888 q 264 866 303 888 q 203 810 225 844 q 181 736 181 776 l 67 736 q 76 806 67 774 q 100 865 85 839 q 207 965 138 931 q 356 999 276 999 q 501 967 436 999 q 604 878 565 936 q 643 736 643 819 q 624 613 643 660 q 577 538 606 567 q 515 490 549 510 q 453 447 482 469 q 406 391 425 425 q 388 300 388 357 l 261 300 m 311 -17 q 249 10 275 -17 q 222 71 222 36 q 249 133 222 107 q 311 160 275 160 q 372 133 347 160 q 397 71 397 107 q 372 10 397 36 q 311 -17 347 -17 z "},"@":{"ha":1357,"x_min":113,"x_max":1257,"o":"m 697 -210 q 442 -160 551 -210 q 259 -26 332 -111 q 149 165 186 58 q 113 388 113 272 q 149 617 113 508 q 260 810 186 726 q 442 941 333 893 q 697 989 551 989 q 949 948 843 989 q 1122 835 1054 907 q 1224 674 1190 764 q 1257 483 1257 583 q 1249 390 1257 442 q 1223 287 1242 339 q 1172 191 1204 235 q 1092 120 1140 147 q 974 93 1043 93 q 863 125 903 93 q 810 200 824 157 q 756 145 792 169 q 676 107 719 121 q 592 93 632 93 q 460 135 514 93 q 383 250 407 178 q 369 408 360 322 q 415 553 379 483 q 515 667 451 622 q 667 711 578 711 q 774 678 722 711 q 844 582 826 644 l 858 697 l 967 697 l 918 288 q 940 228 917 250 q 989 207 963 207 q 1063 233 1033 207 q 1108 301 1092 260 q 1133 392 1125 343 q 1140 483 1140 440 q 1090 688 1140 597 q 942 833 1040 779 q 697 886 843 886 q 445 819 550 886 q 285 640 340 753 q 229 390 229 528 q 260 197 229 288 q 352 39 292 107 q 499 -68 413 -29 q 697 -107 586 -107 q 895 -76 808 -107 q 1069 11 982 -44 l 1122 -78 q 994 -147 1056 -117 q 863 -193 933 -176 q 697 -210 793 -210 m 624 200 q 722 228 682 200 q 785 303 761 257 q 814 400 808 349 q 807 499 819 451 q 761 576 794 546 q 671 607 728 607 q 576 578 615 607 q 513 503 536 549 q 483 406 490 457 q 490 307 478 354 q 534 230 501 260 q 624 200 567 200 z "},"A":{"ha":843,"x_min":17,"x_max":826,"o":"m 17 0 l 363 972 l 481 972 l 826 0 l 710 0 l 614 271 l 229 271 l 133 0 l 17 0 m 269 382 l 574 382 l 422 810 l 269 382 z "},"B":{"ha":906,"x_min":135,"x_max":831,"o":"m 135 0 l 135 974 l 481 974 q 700 912 624 974 q 776 729 776 850 q 735 597 776 644 q 633 531 694 550 q 781 451 732 508 q 831 286 831 393 q 744 77 831 154 q 492 0 658 0 l 135 0 m 257 576 l 475 576 q 601 616 551 576 q 650 728 650 656 q 600 830 650 797 q 474 863 550 863 l 257 863 l 257 576 m 257 111 l 492 111 q 645 157 588 111 q 703 286 703 203 q 652 419 703 372 q 506 465 601 465 l 257 465 l 257 111 z "},"C":{"ha":968,"x_min":76,"x_max":907,"o":"m 506 -18 q 310 25 392 -18 q 176 142 228 68 q 101 306 125 215 q 76 493 76 397 q 101 683 76 593 q 177 842 125 774 q 310 951 229 911 q 506 990 392 990 q 699 953 617 990 q 835 849 782 915 q 907 697 888 783 l 783 672 q 688 821 760 763 q 506 879 615 879 q 338 828 406 879 q 236 691 271 778 q 201 496 201 604 q 236 292 201 383 q 338 147 271 200 q 506 93 406 93 q 688 152 615 93 q 783 300 760 211 l 907 275 q 835 124 888 190 q 699 19 782 57 q 506 -18 617 -18 z "},"D":{"ha":939,"x_min":135,"x_max":869,"o":"m 135 0 l 135 972 l 401 972 q 665 911 561 972 q 819 741 768 850 q 869 485 869 632 q 819 231 869 340 q 665 61 768 122 q 401 0 561 0 l 135 0 m 254 111 l 406 111 q 592 159 518 111 q 704 292 667 207 q 742 486 742 376 q 704 680 742 596 q 592 813 667 764 q 406 861 518 861 l 254 861 l 254 111 z "},"E":{"ha":783,"x_min":135,"x_max":704,"o":"m 135 0 l 135 972 l 704 972 l 704 861 l 257 861 l 257 553 l 619 553 l 619 444 l 257 444 l 257 111 l 704 111 l 704 0 l 135 0 z "},"F":{"ha":751,"x_min":135,"x_max":704,"o":"m 135 0 l 135 972 l 704 972 l 704 861 l 257 861 l 257 556 l 619 556 l 619 444 l 257 444 l 257 0 l 135 0 z "},"G":{"ha":1004,"x_min":76,"x_max":913,"o":"m 519 -17 q 317 24 401 -17 q 180 136 233 65 q 101 299 126 207 q 76 493 76 390 q 101 683 76 593 q 177 842 125 774 q 310 951 229 911 q 506 990 392 990 q 699 953 617 990 q 835 849 782 915 q 907 697 888 783 l 783 672 q 688 821 760 763 q 506 879 615 879 q 338 828 406 879 q 236 691 271 778 q 201 496 201 604 q 235 292 201 383 q 335 147 268 200 q 501 93 401 93 q 640 132 575 93 q 747 239 706 171 q 789 394 789 307 l 569 394 l 569 511 l 913 511 l 913 0 l 817 0 l 799 149 q 682 26 757 68 q 519 -17 607 -17 z "},"H":{"ha":972,"x_min":132,"x_max":840,"o":"m 132 0 l 132 972 l 254 972 l 254 561 l 718 561 l 718 972 l 840 972 l 840 0 l 718 0 l 718 450 l 254 450 l 254 0 l 132 0 z "},"I":{"ha":661,"x_min":104,"x_max":557,"o":"m 104 0 l 104 103 l 269 103 l 269 867 l 104 867 l 104 972 l 557 972 l 557 867 l 392 867 l 392 106 l 557 106 l 557 0 l 104 0 z "},"J":{"ha":688,"x_min":14,"x_max":574,"o":"m 293 -17 q 104 51 175 -17 q 14 240 33 118 l 131 278 q 183 147 146 194 q 288 100 219 100 q 417 161 382 100 q 451 333 451 222 l 451 972 l 574 972 l 574 335 q 510 70 574 157 q 293 -17 446 -17 z "},"K":{"ha":854,"x_min":132,"x_max":833,"o":"m 132 0 l 132 972 l 254 972 l 254 501 l 660 972 l 808 972 l 461 561 l 833 0 l 678 0 l 376 476 l 254 336 l 254 0 l 132 0 z "},"L":{"ha":728,"x_min":132,"x_max":703,"o":"m 132 0 l 132 972 l 254 972 l 254 111 l 703 111 l 703 0 l 132 0 z "},"M":{"ha":1206,"x_min":132,"x_max":1074,"o":"m 132 0 l 132 972 l 301 972 l 603 228 l 904 972 l 1074 972 l 1074 0 l 951 0 l 951 781 l 672 86 l 540 86 l 254 781 l 254 0 l 132 0 z "},"N":{"ha":990,"x_min":132,"x_max":858,"o":"m 132 0 l 132 972 l 310 972 l 736 175 l 736 972 l 858 972 l 858 0 l 699 0 l 254 803 l 254 0 l 132 0 z "},"O":{"ha":1033,"x_min":76,"x_max":957,"o":"m 517 -15 q 317 25 400 -15 q 180 135 233 65 q 101 297 126 206 q 76 488 76 388 q 101 678 76 588 q 180 840 126 769 q 317 950 233 910 q 517 990 400 990 q 717 950 633 990 q 853 840 800 910 q 932 678 907 769 q 957 488 957 588 q 932 297 957 388 q 853 135 907 206 q 717 25 800 65 q 517 -15 633 -15 m 517 96 q 695 149 626 96 q 797 291 764 201 q 829 488 829 381 q 797 685 829 596 q 695 826 764 774 q 517 879 626 879 q 345 826 415 879 q 240 685 275 774 q 204 488 204 596 q 240 291 204 381 q 345 149 275 201 q 517 96 415 96 z "},"P":{"ha":836,"x_min":132,"x_max":788,"o":"m 132 -1 l 132 974 l 481 974 q 640 935 571 974 q 749 826 710 897 q 788 654 788 754 q 751 497 788 565 q 645 389 714 428 q 478 350 576 350 l 257 350 l 257 -1 l 132 -1 m 254 461 l 476 461 q 608 508 554 461 q 663 657 663 556 q 608 812 663 761 q 478 863 554 863 l 254 863 l 254 461 z "},"Q":{"ha":1044,"x_min":76,"x_max":975,"o":"m 517 -15 q 317 25 400 -15 q 180 135 233 65 q 101 297 126 206 q 76 488 76 388 q 101 678 76 588 q 180 840 126 769 q 317 950 233 910 q 517 990 400 990 q 717 950 633 990 q 853 840 800 910 q 932 678 907 769 q 957 488 957 588 q 936 313 957 396 q 872 163 915 229 l 975 51 l 897 -17 q 871 14 897 -15 q 807 85 844 43 q 682 11 754 38 q 517 -15 610 -15 m 517 96 q 635 117 583 96 q 724 175 686 138 q 643 263 678 225 q 608 301 608 301 l 683 367 l 783 258 q 818 365 807 307 q 829 488 829 424 q 797 685 829 596 q 695 826 764 774 q 517 879 626 879 q 339 826 408 879 q 237 685 269 774 q 204 488 204 596 q 237 291 204 381 q 339 149 269 201 q 517 96 408 96 z "},"R":{"ha":897,"x_min":132,"x_max":839,"o":"m 132 0 l 132 972 l 483 972 q 628 947 571 972 q 721 879 686 921 q 770 788 756 838 q 785 692 785 739 q 738 536 785 611 q 592 425 690 461 l 839 0 l 694 0 l 467 406 l 257 406 l 257 0 l 132 0 m 254 517 l 483 517 q 610 567 560 517 q 660 692 660 618 q 638 774 660 736 q 576 837 615 813 q 485 861 536 861 l 254 861 l 254 517 z "},"S":{"ha":863,"x_min":69,"x_max":783,"o":"m 439 -17 q 240 28 318 -17 q 120 146 161 74 q 69 297 79 218 l 204 297 q 281 153 219 208 q 439 94 342 97 q 551 115 500 94 q 632 172 601 135 q 661 258 663 208 q 631 347 661 315 q 551 397 600 379 q 442 428 501 415 q 322 458 382 442 q 213 504 263 475 q 133 584 164 533 q 103 717 103 635 q 138 850 103 788 q 247 951 174 913 q 435 989 321 989 q 576 964 514 989 q 681 898 638 939 q 748 808 725 857 q 774 713 771 760 l 644 713 q 613 792 638 754 q 541 853 588 829 q 425 878 494 878 q 328 860 374 878 q 253 807 282 842 q 225 724 225 772 q 256 636 225 668 q 335 586 286 604 q 444 554 385 568 q 564 524 504 540 q 673 478 624 507 q 753 399 722 449 q 783 271 783 350 q 739 112 783 176 q 617 15 694 47 q 439 -17 540 -17 z "},"T":{"ha":693,"x_min":21,"x_max":671,"o":"m 285 0 l 285 861 l 21 861 l 21 972 l 671 972 l 671 861 l 407 861 l 407 0 l 285 0 z "},"U":{"ha":936,"x_min":114,"x_max":822,"o":"m 474 -17 q 209 90 304 -17 q 114 382 114 197 l 114 974 l 236 974 l 236 382 q 301 171 236 240 q 468 101 367 101 q 585 132 533 101 q 669 225 638 163 q 700 382 700 288 l 700 974 l 822 974 l 822 382 q 735 90 822 197 q 474 -17 647 -17 z "},"V":{"ha":819,"x_min":11,"x_max":808,"o":"m 351 0 l 11 972 l 128 972 l 410 165 l 692 972 l 808 972 l 469 0 l 351 0 z "},"W":{"ha":1286,"x_min":39,"x_max":1247,"o":"m 247 0 l 39 972 l 168 972 l 331 161 l 568 972 l 718 972 l 956 161 l 1118 972 l 1247 972 l 1039 0 l 879 0 l 643 790 l 407 0 l 247 0 z "},"X":{"ha":797,"x_min":24,"x_max":774,"o":"m 24 0 l 329 499 l 38 972 l 178 972 l 399 613 l 619 972 l 758 972 l 468 499 l 774 0 l 635 0 l 399 386 l 161 0 l 24 0 z "},"Y":{"ha":808,"x_min":7,"x_max":801,"o":"m 349 0 l 353 429 l 7 972 l 146 972 l 407 542 l 672 972 l 801 972 l 467 429 l 471 0 l 349 0 z "},"Z":{"ha":769,"x_min":63,"x_max":700,"o":"m 63 1 l 63 115 l 556 861 l 63 861 l 63 972 l 700 972 l 700 858 l 207 113 l 700 113 l 700 1 l 63 1 z "},"[":{"ha":532,"x_min":132,"x_max":479,"o":"m 132 -71 l 132 1046 l 479 1046 l 479 942 l 243 942 l 243 35 l 478 35 l 478 -71 l 132 -71 z "},"\\":{"ha":556,"x_min":6,"x_max":529,"o":"m 413 0 l 6 1000 l 122 1000 l 529 0 l 413 0 z "},"]":{"ha":532,"x_min":53,"x_max":400,"o":"m 54 -71 l 54 35 l 289 35 l 289 942 l 53 942 l 53 1046 l 400 1046 l 400 -71 l 54 -71 z "},"^":{"ha":833,"x_min":107,"x_max":749,"o":"m 749 581 l 619 581 l 428 860 l 235 582 l 107 582 l 394 971 l 461 971 l 749 581 z "},"_":{"ha":758,"x_min":42,"x_max":717,"o":"m 42 0 l 42 111 l 717 111 l 717 0 l 42 0 z "},"`":{"ha":329,"x_min":-19,"x_max":250,"o":"m 150 774 l -19 989 l 133 989 l 250 774 l 150 774 z "},"a":{"ha":843,"x_min":75,"x_max":724,"o":"m 382 -17 q 222 27 292 -17 q 114 152 153 71 q 75 347 75 233 q 115 546 75 465 q 227 669 156 626 q 389 711 299 711 q 494 689 450 711 q 569 632 539 667 q 613 558 599 597 l 613 694 l 724 694 l 724 0 l 608 0 l 608 133 q 559 52 594 86 q 477 1 524 18 q 382 -17 431 -17 m 399 89 q 512 124 465 89 q 583 218 558 160 q 607 347 607 276 q 552 535 607 463 q 394 607 497 607 q 281 573 326 607 q 214 481 236 539 q 192 350 192 422 q 214 219 192 278 q 283 124 236 160 q 399 89 329 89 z "},"b":{"ha":853,"x_min":128,"x_max":778,"o":"m 464 -17 q 358 6 403 -17 q 285 63 314 28 q 240 136 256 99 l 240 0 l 128 0 l 128 1000 l 244 1000 l 244 561 q 294 643 260 610 q 376 694 329 676 q 471 711 424 711 q 631 667 563 711 q 739 542 700 624 q 778 347 778 461 q 738 149 778 231 q 626 26 697 68 q 464 -17 556 -17 m 458 88 q 572 122 526 88 q 639 214 617 156 q 661 344 661 272 q 639 476 661 417 q 571 572 617 536 q 454 606 525 607 q 341 570 388 606 q 270 476 294 535 q 246 347 246 418 q 301 160 246 233 q 458 88 356 88 z "},"c":{"ha":744,"x_min":75,"x_max":681,"o":"m 406 -18 q 242 26 318 -18 q 121 151 167 69 q 75 344 75 233 q 121 540 75 458 q 242 667 167 622 q 406 711 318 711 q 571 663 497 711 q 681 529 644 615 l 575 488 q 509 573 553 540 q 403 606 465 606 q 285 572 332 606 q 215 479 239 538 q 192 349 192 421 q 215 217 192 276 q 285 123 239 158 q 403 88 332 88 q 509 120 465 88 q 575 206 553 153 l 681 164 q 570 30 644 78 q 406 -18 496 -18 z "},"d":{"ha":871,"x_min":75,"x_max":813,"o":"m 389 -17 q 227 26 299 -17 q 115 149 156 68 q 75 347 75 231 q 114 542 75 461 q 222 667 153 624 q 382 711 292 711 q 477 694 431 711 q 559 643 524 676 q 608 561 594 610 l 608 989 l 725 989 l 725 175 q 743 116 725 133 q 813 110 761 99 l 813 15 q 783 3 799 7 q 740 -1 767 -1 q 650 31 686 -1 q 614 136 614 63 q 569 63 599 99 q 495 6 540 28 q 389 -17 450 -17 m 394 88 q 552 160 497 88 q 607 347 607 233 q 583 477 607 418 q 512 571 558 536 q 399 606 465 606 q 283 570 329 606 q 214 476 236 535 q 192 344 192 417 q 214 214 192 272 q 281 122 236 156 q 394 88 326 88 z "},"e":{"ha":790,"x_min":75,"x_max":721,"o":"m 404 -18 q 242 26 317 -18 q 121 151 167 69 q 75 344 75 233 q 121 540 75 458 q 242 667 167 622 q 404 711 317 711 q 565 674 493 711 q 678 560 636 638 q 721 363 721 483 l 721 319 l 190 319 q 249 153 196 219 q 401 88 301 88 q 515 117 464 88 q 596 199 567 146 l 699 157 q 404 -18 613 -18 m 401 606 q 266 553 317 606 q 199 422 215 501 l 604 422 q 581 503 604 461 q 514 576 558 546 q 401 606 469 606 z "},"f":{"ha":521,"x_min":65,"x_max":493,"o":"m 199 0 l 199 589 l 65 589 l 65 694 l 199 694 l 199 800 q 247 949 199 897 q 408 1000 294 1000 q 447 997 425 1000 q 486 989 468 994 l 486 894 q 452 899 469 897 q 421 900 435 900 q 342 878 369 900 q 315 799 315 856 l 315 694 l 493 694 l 493 589 l 315 589 l 315 0 l 199 0 z "},"g":{"ha":843,"x_min":75,"x_max":724,"o":"m 389 -319 q 219 -279 299 -318 q 100 -149 140 -240 l 192 -92 q 269 -185 218 -153 q 390 -217 321 -217 q 557 -156 506 -217 q 608 24 608 -94 l 608 133 q 559 52 594 86 q 477 1 524 18 q 382 -17 431 -17 q 222 27 292 -17 q 114 152 153 71 q 75 347 75 233 q 115 546 75 465 q 227 669 156 626 q 389 711 299 711 q 494 689 450 711 q 569 632 539 667 q 613 558 599 597 l 613 694 l 724 694 l 724 24 q 678 -183 724 -107 q 557 -290 633 -258 q 389 -319 481 -321 m 399 89 q 512 124 465 89 q 583 218 558 160 q 607 347 607 276 q 552 535 607 463 q 394 607 497 607 q 281 573 326 607 q 214 481 236 539 q 192 350 192 422 q 214 219 192 278 q 283 124 236 160 q 399 89 329 89 z "},"h":{"ha":829,"x_min":128,"x_max":710,"o":"m 128 0 l 128 989 l 244 989 l 244 564 q 276 624 251 589 q 350 685 301 658 q 476 711 399 711 q 644 646 578 711 q 710 456 710 581 l 710 0 l 593 0 l 593 439 q 550 567 593 529 q 438 606 507 606 q 293 540 342 606 q 244 375 244 475 l 244 0 l 128 0 z "},"i":{"ha":361,"x_min":100,"x_max":261,"o":"m 182 826 q 124 851 149 826 q 100 907 100 875 q 124 965 100 940 q 182 989 149 989 q 238 965 214 989 q 261 907 261 940 q 238 851 261 875 q 182 826 214 826 m 122 0 l 122 694 l 239 694 l 239 0 l 122 0 z "},"j":{"ha":418,"x_min":6,"x_max":318,"o":"m 232 824 q 169 850 196 824 q 143 911 143 876 q 169 974 143 947 q 232 1000 196 1000 q 293 974 268 1000 q 318 911 318 947 q 293 850 318 876 q 232 824 268 824 m 83 -319 q 45 -317 67 -319 q 6 -308 24 -314 l 6 -214 q 40 -218 22 -217 q 71 -219 57 -219 q 149 -197 122 -219 q 176 -118 176 -174 l 176 694 l 293 694 q 293 342 293 486 q 293 108 293 199 q 292 -33 293 17 q 292 -101 292 -82 q 292 -119 292 -119 q 244 -268 292 -217 q 83 -319 197 -319 z "},"k":{"ha":729,"x_min":128,"x_max":708,"o":"m 128 0 l 128 989 l 244 989 l 244 397 l 542 694 l 686 694 l 401 404 l 708 0 l 561 0 l 310 331 l 244 267 l 244 0 l 128 0 z "},"l":{"ha":358,"x_min":125,"x_max":242,"o":"m 125 0 l 125 989 l 242 989 l 242 0 l 125 0 z "},"m":{"ha":1297,"x_min":128,"x_max":1175,"o":"m 128 0 l 128 694 l 244 694 l 244 564 q 276 624 251 589 q 350 685 301 658 q 476 711 399 711 q 615 670 556 711 q 697 550 674 629 l 697 553 q 732 615 704 578 q 812 682 760 653 q 942 711 864 711 q 1109 646 1043 711 q 1175 456 1175 581 l 1175 0 l 1058 0 l 1058 439 q 1015 567 1058 529 q 903 606 972 606 q 758 540 807 606 q 710 375 710 475 l 710 0 l 593 0 l 593 439 q 550 567 593 529 q 438 606 507 606 q 293 540 342 606 q 244 375 244 475 l 244 0 l 128 0 z "},"n":{"ha":829,"x_min":128,"x_max":710,"o":"m 128 0 l 128 694 l 244 694 l 244 564 q 276 624 251 589 q 350 685 301 658 q 476 711 399 711 q 644 646 578 711 q 710 456 710 581 l 710 0 l 593 0 l 593 439 q 550 567 593 529 q 438 606 507 606 q 293 540 342 606 q 244 375 244 475 l 244 0 l 128 0 z "},"o":{"ha":806,"x_min":75,"x_max":731,"o":"m 403 -17 q 242 24 317 -17 q 121 147 167 65 q 75 347 75 228 q 121 548 75 467 q 242 670 167 629 q 403 711 317 711 q 564 670 489 711 q 685 548 639 629 q 731 347 731 467 q 685 147 731 228 q 564 24 639 65 q 403 -17 489 -17 m 403 89 q 560 157 507 89 q 614 347 614 225 q 560 538 614 469 q 403 606 507 606 q 245 538 299 606 q 192 347 192 469 q 245 157 192 225 q 403 89 299 89 z "},"p":{"ha":853,"x_min":128,"x_max":778,"o":"m 128 -319 l 128 694 l 240 694 l 240 558 q 285 632 256 597 q 358 689 314 667 q 464 711 403 711 q 626 669 556 711 q 738 546 697 626 q 778 347 778 465 q 739 152 778 233 q 631 27 700 71 q 471 -17 563 -17 q 376 1 424 -17 q 294 52 329 18 q 244 133 260 86 l 244 -319 l 128 -319 m 454 89 q 571 124 525 89 q 639 218 617 158 q 661 350 661 278 q 639 481 661 422 q 572 573 617 539 q 458 607 526 607 q 301 535 356 607 q 246 347 246 463 q 270 218 246 276 q 341 125 294 160 q 454 89 388 90 z "},"q":{"ha":867,"x_min":75,"x_max":811,"o":"m 739 -319 q 647 -287 685 -319 q 608 -172 608 -256 l 608 133 q 559 52 594 86 q 477 1 524 18 q 382 -17 431 -17 q 222 27 292 -17 q 114 152 153 71 q 75 347 75 233 q 115 546 75 465 q 227 669 156 626 q 389 711 299 711 q 494 689 450 711 q 569 632 539 667 q 613 558 599 597 l 613 694 l 724 694 l 724 -143 q 742 -202 724 -185 q 811 -208 760 -219 l 811 -303 q 781 -315 797 -311 q 739 -319 765 -319 m 399 89 q 512 124 465 89 q 583 218 558 160 q 607 347 607 276 q 552 535 607 463 q 394 607 497 607 q 281 573 326 607 q 214 481 236 539 q 192 350 192 422 q 214 219 192 278 q 283 124 236 160 q 399 89 329 89 z "},"r":{"ha":558,"x_min":128,"x_max":531,"o":"m 128 0 l 128 694 l 244 694 l 244 557 q 284 630 258 594 q 355 688 310 665 q 471 711 400 711 q 501 709 482 711 q 531 706 521 707 l 531 597 q 478 608 510 604 q 419 606 446 611 q 290 532 335 589 q 244 375 244 475 l 244 0 l 128 0 z "},"s":{"ha":699,"x_min":69,"x_max":622,"o":"m 342 -17 q 210 13 272 -17 q 108 96 147 43 q 69 217 69 149 l 194 217 q 219 145 194 174 q 281 103 244 117 q 351 89 317 89 q 463 114 421 89 q 504 190 504 139 q 474 259 504 236 q 396 294 443 282 q 294 315 349 306 q 193 343 240 325 q 115 399 146 361 q 85 503 85 436 q 113 601 85 554 q 197 680 140 649 q 338 711 253 711 q 498 678 439 711 q 583 599 557 646 q 608 510 608 553 l 489 510 q 450 575 489 544 q 336 606 411 606 q 235 578 268 606 q 201 507 201 551 q 232 447 201 468 q 310 415 263 426 q 412 391 358 403 q 513 358 465 379 q 592 297 561 336 q 622 190 622 257 q 592 88 622 135 q 501 12 563 40 q 342 -17 439 -17 z "},"t":{"ha":508,"x_min":36,"x_max":457,"o":"m 369 -17 q 208 35 256 -17 q 161 183 161 86 l 161 588 l 36 588 l 36 694 l 68 694 q 143 713 125 694 q 161 792 161 732 l 161 871 l 278 871 l 278 693 l 457 693 l 457 588 l 278 588 l 278 183 q 304 106 278 128 q 382 83 331 83 q 413 85 396 83 q 446 89 429 86 l 446 -6 q 369 -17 408 -17 z "},"u":{"ha":829,"x_min":119,"x_max":701,"o":"m 353 -17 q 185 49 251 -17 q 119 239 119 114 l 119 694 l 236 694 l 236 256 q 279 127 236 165 q 392 89 322 89 q 536 154 488 89 q 585 319 585 219 l 585 694 l 701 694 l 701 0 l 585 0 l 585 131 q 553 72 579 107 q 479 10 528 36 q 353 -17 431 -17 z "},"v":{"ha":694,"x_min":24,"x_max":671,"o":"m 275 0 l 24 694 l 140 694 l 350 117 l 560 694 l 671 694 l 419 0 l 275 0 z "},"w":{"ha":1069,"x_min":49,"x_max":1021,"o":"m 242 0 l 49 693 l 175 693 l 313 115 l 471 693 l 599 693 l 756 114 l 894 693 l 1021 693 l 828 0 l 671 0 l 535 510 l 393 0 l 242 0 z "},"x":{"ha":621,"x_min":25,"x_max":596,"o":"m 465 0 l 311 251 l 156 0 l 25 0 l 246 357 l 38 694 l 168 694 l 311 464 l 453 694 l 583 694 l 376 357 l 596 0 l 465 0 z "},"y":{"ha":692,"x_min":21,"x_max":675,"o":"m 157 -319 q 115 -316 135 -319 q 82 -308 96 -312 l 82 -203 q 113 -207 94 -206 q 149 -208 131 -208 q 208 -192 181 -208 q 260 -131 235 -176 q 310 4 285 -85 l 21 694 l 140 694 l 364 165 l 551 694 l 675 694 l 396 -47 q 333 -198 363 -137 q 263 -289 303 -258 q 157 -319 222 -319 z "},"z":{"ha":593,"x_min":69,"x_max":529,"o":"m 69 1 l 69 108 l 406 590 l 69 590 l 69 696 l 526 696 l 526 590 l 190 107 l 529 107 l 529 1 l 69 1 z "},"{":{"ha":411,"x_min":86,"x_max":372,"o":"m 307 -129 q 212 -95 239 -129 q 185 10 185 -61 l 185 290 q 163 365 185 343 q 86 386 140 386 l 86 490 q 163 512 140 490 q 185 586 185 533 l 185 868 q 212 973 185 939 q 307 1007 239 1007 l 372 1007 l 372 894 l 342 894 q 297 844 297 894 l 297 549 q 274 470 297 492 q 208 439 251 449 q 274 406 251 429 q 297 322 297 383 l 297 33 q 342 -17 297 -17 l 372 -17 l 372 -129 l 307 -129 z "},"|":{"ha":392,"x_min":135,"x_max":257,"o":"m 135 -17 l 135 1000 l 257 1000 l 257 -17 l 135 -17 z "},"}":{"ha":411,"x_min":39,"x_max":325,"o":"m 39 -129 l 39 -17 l 69 -17 q 114 33 114 -17 l 114 322 q 137 406 114 383 q 203 439 160 429 q 137 470 160 449 q 114 549 114 492 l 114 844 q 69 894 114 894 l 39 894 l 39 1007 l 104 1007 q 200 973 174 1007 q 226 868 226 939 l 226 586 q 249 512 226 533 q 325 490 271 490 l 325 386 q 249 365 271 386 q 226 290 226 343 l 226 10 q 200 -95 226 -61 q 104 -129 174 -129 l 39 -129 z "},"~":{"ha":764,"x_min":101,"x_max":663,"o":"m 504 303 q 409 324 451 303 q 333 368 367 346 q 269 390 299 390 q 201 365 224 390 q 164 321 179 339 l 101 390 q 163 458 118 424 q 276 492 207 492 q 360 470 322 492 q 431 427 399 449 q 492 406 464 406 q 544 418 524 406 q 577 447 564 431 q 600 474 590 463 l 663 406 q 605 338 644 372 q 504 303 565 303 z "},"¡":{"ha":429,"x_min":121,"x_max":308,"o":"m 217 503 q 149 532 178 503 q 121 600 121 561 q 149 665 121 636 q 217 693 178 693 q 281 665 254 693 q 308 600 308 636 q 281 532 308 561 q 217 503 254 503 m 143 -322 l 163 379 l 271 379 l 286 -322 l 143 -322 z "},"¢":{"ha":782,"x_min":75,"x_max":681,"o":"m 363 0 l 363 135 q 219 192 285 146 q 114 315 153 238 q 75 494 75 392 q 113 674 75 597 q 215 798 151 751 q 354 857 278 844 l 354 972 l 465 972 l 465 856 q 594 797 538 842 q 681 679 650 751 l 575 638 q 509 723 553 690 q 403 756 465 756 q 285 722 332 756 q 215 629 239 688 q 192 499 192 571 q 215 367 192 426 q 285 273 239 308 q 403 238 332 238 q 509 270 465 238 q 575 356 553 303 l 681 314 q 597 199 651 244 q 474 139 542 154 l 474 0 l 363 0 z "},"£":{"ha":789,"x_min":63,"x_max":757,"o":"m 63 0 l 63 111 q 133 178 99 138 q 192 272 168 218 q 218 390 215 325 l 85 390 l 85 501 l 188 501 q 144 567 168 535 q 101 638 119 599 q 83 733 83 678 q 124 874 83 817 q 231 960 164 931 q 378 989 299 989 q 531 954 461 989 q 639 854 601 919 q 672 721 672 796 l 550 721 q 530 797 550 761 q 472 855 510 832 q 379 878 433 878 q 251 835 299 878 q 203 733 203 792 q 223 653 203 689 q 270 581 243 617 q 318 501 297 546 l 549 501 l 549 390 l 343 390 l 343 386 q 317 252 343 310 q 258 159 290 194 q 208 111 225 124 l 468 111 q 592 151 549 111 q 650 249 635 192 l 757 219 q 706 111 740 161 q 615 31 671 61 q 474 0 558 0 l 63 0 z "},"¥":{"ha":825,"x_min":15,"x_max":810,"o":"m 113 226 l 113 338 l 360 338 l 361 428 l 113 428 l 113 539 l 292 539 l 15 972 l 154 972 l 415 542 l 681 972 l 810 972 l 543 539 l 713 539 l 713 428 l 475 428 l 476 338 l 713 338 l 713 226 l 476 226 l 479 0 l 357 0 l 360 226 l 113 226 z "},"§":{"ha":763,"x_min":89,"x_max":674,"o":"m 386 -319 q 226 -287 286 -319 q 141 -208 167 -254 q 115 -118 115 -161 l 235 -118 q 274 -183 235 -153 q 388 -214 313 -214 q 489 -178 456 -214 q 522 -100 522 -143 q 491 -31 522 -61 q 410 28 460 0 q 306 88 361 57 q 201 156 250 118 q 120 243 151 193 q 89 360 89 293 q 127 478 89 425 q 228 558 165 531 q 153 638 183 592 q 124 749 124 685 q 151 851 124 800 q 235 938 179 903 q 376 972 292 972 q 537 940 478 972 q 622 860 596 907 q 647 771 647 814 l 528 771 q 489 836 528 806 q 375 867 450 867 q 274 832 307 867 q 240 753 240 797 q 272 683 240 714 q 352 624 303 653 q 457 565 401 596 q 562 497 513 535 q 642 410 611 460 q 674 293 674 360 q 635 175 674 228 q 535 94 597 122 q 609 15 579 61 q 639 -96 639 -32 q 611 -198 639 -146 q 527 -285 583 -250 q 386 -319 471 -319 m 207 360 q 240 278 207 313 q 326 217 274 244 q 433 158 378 189 q 490 181 461 163 q 537 229 518 200 q 556 293 556 258 q 522 374 556 340 q 437 436 489 408 q 329 494 385 464 q 273 472 301 490 q 226 424 244 453 q 207 360 207 394 z "},"¨":{"ha":450,"x_min":28,"x_max":422,"o":"m 347 807 q 294 830 317 807 q 271 883 271 853 q 294 938 271 915 q 347 960 317 960 q 401 938 379 960 q 422 883 422 915 q 401 830 422 853 q 347 807 379 807 m 104 807 q 51 830 74 807 q 28 883 28 853 q 51 938 28 915 q 104 960 74 960 q 158 938 136 960 q 179 883 179 915 q 158 830 179 853 q 104 807 136 807 z "},"©":{"ha":1119,"x_min":68,"x_max":1051,"o":"m 560 -17 q 351 25 442 -17 q 197 138 260 67 q 101 301 133 210 q 68 490 68 392 q 101 681 68 590 q 197 844 133 772 q 351 958 260 917 q 560 1000 442 1000 q 769 958 678 1000 q 923 844 860 917 q 1019 681 986 772 q 1051 490 1051 590 q 1019 301 1051 392 q 923 138 986 210 q 769 25 860 67 q 560 -17 678 -17 m 560 89 q 754 140 668 89 q 890 283 840 192 q 940 490 940 374 q 890 697 940 606 q 755 841 840 788 q 560 894 669 894 q 365 841 451 894 q 229 697 279 788 q 179 490 179 606 q 229 283 179 374 q 365 140 279 192 q 560 89 451 89 m 567 210 q 442 244 500 210 q 350 340 385 278 q 315 488 315 403 q 350 638 315 575 q 442 735 385 701 q 567 769 500 769 q 694 733 638 769 q 778 629 751 696 l 693 597 q 645 654 676 638 q 564 671 614 671 q 454 619 488 671 q 421 490 421 568 q 456 358 421 408 q 564 308 492 308 q 645 325 614 308 q 693 381 676 342 l 778 350 q 694 247 751 283 q 567 210 636 210 z "},"ª":{"ha":843,"x_min":75,"x_max":724,"o":"m 382 -17 q 222 27 292 -17 q 114 152 153 71 q 75 347 75 233 q 115 546 75 465 q 227 669 156 626 q 389 711 299 711 q 494 689 450 711 q 569 632 539 667 q 613 558 599 597 l 613 694 l 724 694 l 724 0 l 608 0 l 608 133 q 559 52 594 86 q 477 1 524 18 q 382 -17 431 -17 m 399 89 q 512 124 465 89 q 583 218 558 160 q 607 347 607 276 q 552 535 607 463 q 394 607 497 607 q 281 573 326 607 q 214 481 236 539 q 192 350 192 422 q 214 219 192 278 q 283 124 236 160 q 399 89 329 89 z "},"«":{"ha":954,"x_min":67,"x_max":876,"o":"m 521 43 l 67 347 l 67 453 l 521 757 l 521 632 l 175 400 l 521 168 l 521 43 m 876 42 l 422 346 l 422 451 l 876 756 l 876 631 l 531 399 l 876 167 l 876 42 z "},"®":{"ha":1122,"x_min":163,"x_max":960,"o":"m 561 175 q 392 209 465 175 q 267 301 318 243 q 189 433 215 358 q 163 586 163 507 q 189 741 163 667 q 267 874 215 815 q 392 966 318 932 q 561 1000 465 1000 q 731 966 657 1000 q 856 874 804 932 q 933 741 907 815 q 960 586 960 667 q 933 433 960 507 q 856 301 907 358 q 731 209 804 243 q 561 175 657 175 m 561 276 q 713 316 646 276 q 818 426 779 356 q 857 586 857 496 q 818 747 857 676 q 713 857 779 817 q 561 897 646 897 q 410 857 476 897 q 304 747 343 817 q 265 586 265 676 q 304 426 265 496 q 410 316 343 356 q 561 276 476 276 m 417 388 l 417 793 l 564 793 q 664 759 626 793 q 701 676 701 725 q 678 592 701 622 q 625 550 654 561 l 728 388 l 631 388 l 542 536 l 501 536 l 501 388 l 417 388 m 500 615 l 546 615 q 600 627 582 615 q 618 669 618 639 q 546 718 618 718 l 500 718 l 500 615 z "},"¯":{"ha":744,"x_min":143,"x_max":601,"o":"m 143 889 l 143 1000 l 601 1000 l 601 889 l 143 889 z "},"°":{"ha":833,"x_min":242,"x_max":576,"o":"m 408 654 q 318 678 356 654 q 261 742 281 703 q 242 826 242 782 q 285 948 242 896 q 408 1000 329 1000 q 533 948 489 1000 q 576 826 576 896 q 557 742 576 782 q 500 678 538 703 q 408 654 463 654 m 408 743 q 467 767 444 743 q 490 826 490 790 q 467 887 490 863 q 408 911 444 911 q 351 887 374 911 q 328 826 328 863 q 351 767 328 790 q 408 743 374 743 z "},"´":{"ha":329,"x_min":33,"x_max":303,"o":"m 33 774 l 150 989 l 303 989 l 133 774 l 33 774 z "},"¶":{"ha":928,"x_min":83,"x_max":838,"o":"m 311 0 l 311 515 q 202 542 254 515 q 117 619 150 568 q 83 743 83 669 q 117 865 83 814 q 202 944 150 917 q 311 972 254 972 l 838 972 l 838 867 l 672 867 l 672 106 l 838 106 l 838 0 l 311 0 m 433 103 l 550 103 l 550 867 l 433 867 l 433 103 z "},"·":{"ha":425,"x_min":125,"x_max":300,"o":"m 214 335 q 151 361 178 335 q 125 422 125 388 q 151 485 125 458 q 214 511 178 511 q 275 485 250 511 q 300 422 300 458 q 275 361 300 388 q 214 335 250 335 z "},"¸":{"ha":833,"x_min":271,"x_max":553,"o":"m 418 -287 q 332 -267 371 -287 q 271 -218 293 -247 l 322 -157 q 356 -188 333 -171 q 410 -206 378 -206 q 475 -165 475 -206 q 418 -124 475 -124 q 385 -131 400 -124 q 367 -143 371 -137 l 307 -87 l 369 11 l 456 11 l 407 -64 q 474 -65 440 -54 q 530 -103 507 -76 q 553 -171 553 -131 q 513 -255 553 -222 q 418 -287 472 -287 z "},"º":{"ha":806,"x_min":75,"x_max":731,"o":"m 403 -17 q 242 24 317 -17 q 121 147 167 65 q 75 347 75 228 q 121 548 75 467 q 242 670 167 629 q 403 711 317 711 q 564 670 489 711 q 685 548 639 629 q 731 347 731 467 q 685 147 731 228 q 564 24 639 65 q 403 -17 489 -17 m 403 89 q 560 157 507 89 q 614 347 614 225 q 560 538 614 469 q 403 606 507 606 q 245 538 299 606 q 192 347 192 469 q 245 157 192 225 q 403 89 299 89 z "},"»":{"ha":954,"x_min":78,"x_max":888,"o":"m 433 43 l 433 168 l 779 400 l 433 632 l 433 757 l 888 453 l 888 347 l 433 43 m 78 42 l 78 167 l 424 399 l 78 631 l 78 756 l 532 451 l 532 346 l 78 42 z "},"¿":{"ha":710,"x_min":67,"x_max":643,"o":"m 399 535 q 338 561 364 535 q 313 624 313 588 q 338 685 313 660 q 399 711 364 711 q 461 685 435 711 q 488 624 488 660 q 461 561 488 588 q 399 535 435 535 m 354 -304 q 210 -273 275 -304 q 106 -183 144 -242 q 67 -42 67 -124 q 85 81 67 35 q 133 156 104 128 q 194 205 161 185 q 256 247 228 225 q 303 303 285 269 q 322 394 322 338 l 449 394 q 429 270 449 318 q 379 193 410 222 q 315 142 349 164 q 250 99 281 121 q 200 42 219 76 q 181 -50 181 7 q 228 -151 181 -108 q 356 -193 275 -193 q 446 -172 407 -193 q 507 -115 485 -150 q 529 -42 529 -81 l 643 -42 q 634 -111 643 -79 q 610 -171 625 -143 q 503 -269 572 -235 q 354 -304 433 -304 z "},"À":{"ha":843,"x_min":17,"x_max":826,"o":"m 17 0 l 363 972 l 481 972 l 826 0 l 710 0 l 614 271 l 229 271 l 133 0 l 17 0 m 269 382 l 574 382 l 422 810 l 269 382 m 372 1051 l 203 1267 l 356 1267 l 472 1051 l 372 1051 z "},"Á":{"ha":843,"x_min":17,"x_max":826,"o":"m 17 0 l 363 972 l 481 972 l 826 0 l 710 0 l 614 271 l 229 271 l 133 0 l 17 0 m 269 382 l 574 382 l 422 810 l 269 382 m 376 1051 l 493 1267 l 646 1267 l 476 1051 l 376 1051 z "},"Â":{"ha":843,"x_min":17,"x_max":826,"o":"m 17 0 l 363 972 l 481 972 l 826 0 l 710 0 l 614 271 l 229 271 l 133 0 l 17 0 m 269 382 l 574 382 l 422 810 l 269 382 m 200 1051 l 389 1267 l 458 1267 l 646 1051 l 532 1051 l 424 1178 l 315 1051 l 200 1051 z "},"Ã":{"ha":843,"x_min":17,"x_max":826,"o":"m 17 0 l 363 972 l 481 972 l 826 0 l 710 0 l 614 271 l 229 271 l 133 0 l 17 0 m 269 382 l 574 382 l 422 810 l 269 382 m 517 1075 q 453 1095 488 1075 q 385 1135 418 1115 q 329 1156 353 1156 q 270 1133 290 1156 q 239 1094 250 1110 l 186 1157 q 238 1220 201 1188 q 329 1253 274 1253 q 394 1233 360 1253 q 460 1192 428 1213 q 517 1172 493 1172 q 576 1195 557 1172 q 607 1233 596 1218 l 660 1171 q 610 1108 646 1140 q 517 1075 574 1075 z "},"Ä":{"ha":843,"x_min":17,"x_max":826,"o":"m 17 0 l 363 972 l 481 972 l 826 0 l 710 0 l 614 271 l 229 271 l 133 0 l 17 0 m 269 382 l 574 382 l 422 810 l 269 382 m 544 1085 q 491 1108 514 1085 q 468 1161 468 1131 q 491 1215 468 1193 q 544 1238 514 1238 q 598 1215 576 1238 q 619 1161 619 1193 q 598 1108 619 1131 q 544 1085 576 1085 m 301 1085 q 248 1108 271 1085 q 225 1161 225 1131 q 248 1215 225 1193 q 301 1238 271 1238 q 355 1215 333 1238 q 376 1161 376 1193 q 355 1108 376 1131 q 301 1085 333 1085 z "},"Å":{"ha":843,"x_min":17,"x_max":826,"o":"m 17 0 l 363 972 l 481 972 l 826 0 l 710 0 l 614 271 l 229 271 l 133 0 l 17 0 m 269 382 l 574 382 l 422 810 l 269 382 m 421 1051 q 319 1095 356 1051 q 282 1194 282 1139 q 319 1295 282 1251 q 421 1339 356 1339 q 524 1295 488 1339 q 561 1194 561 1251 q 524 1095 561 1139 q 421 1051 488 1051 m 421 1131 q 466 1149 449 1131 q 483 1194 483 1167 q 466 1241 483 1222 q 421 1260 449 1260 q 377 1241 394 1260 q 360 1194 360 1222 q 377 1149 360 1167 q 421 1131 394 1131 z "},"Æ":{"ha":1156,"x_min":14,"x_max":1075,"o":"m 14 0 l 451 972 l 1075 972 l 1075 861 l 658 861 l 658 556 l 990 556 l 990 444 l 658 444 l 658 111 l 1075 111 l 1075 0 l 536 0 l 536 271 l 258 271 l 136 0 l 14 0 m 308 382 l 536 382 l 536 889 l 308 382 z "},"Ç":{"ha":968,"x_min":76,"x_max":907,"o":"m 506 -18 q 310 25 392 -18 q 176 142 228 68 q 101 306 125 215 q 76 493 76 397 q 101 683 76 593 q 177 842 125 774 q 310 951 229 911 q 506 990 392 990 q 699 953 617 990 q 835 849 782 915 q 907 697 888 783 l 783 672 q 688 821 760 763 q 506 879 615 879 q 338 828 406 879 q 236 691 271 778 q 201 496 201 604 q 236 292 201 383 q 338 147 271 200 q 506 93 406 93 q 688 152 615 93 q 783 300 760 211 l 907 275 q 835 124 888 190 q 699 19 782 57 q 506 -18 617 -18 m 524 -290 q 438 -270 476 -290 q 376 -221 399 -250 l 428 -160 q 461 -191 439 -174 q 515 -208 483 -208 q 581 -168 581 -208 q 524 -126 581 -126 q 491 -133 506 -126 q 472 -146 476 -140 l 413 -90 l 475 8 l 561 8 l 513 -67 q 579 -68 546 -57 q 635 -106 613 -79 q 658 -174 658 -133 q 618 -258 658 -225 q 524 -290 578 -290 z "},"È":{"ha":783,"x_min":135,"x_max":704,"o":"m 135 0 l 135 972 l 704 972 l 704 861 l 257 861 l 257 553 l 619 553 l 619 444 l 257 444 l 257 111 l 704 111 l 704 0 l 135 0 m 371 1063 l 201 1278 l 354 1278 l 471 1063 l 371 1063 z "},"É":{"ha":783,"x_min":135,"x_max":704,"o":"m 135 0 l 135 972 l 704 972 l 704 861 l 257 861 l 257 553 l 619 553 l 619 444 l 257 444 l 257 111 l 704 111 l 704 0 l 135 0 m 375 1063 l 492 1278 l 644 1278 l 475 1063 l 375 1063 z "},"Ê":{"ha":783,"x_min":135,"x_max":704,"o":"m 135 0 l 135 972 l 704 972 l 704 861 l 257 861 l 257 553 l 619 553 l 619 444 l 257 444 l 257 111 l 704 111 l 704 0 l 135 0 m 199 1063 l 388 1278 l 457 1278 l 644 1063 l 531 1063 l 422 1189 l 314 1063 l 199 1063 z "},"Ë":{"ha":783,"x_min":135,"x_max":704,"o":"m 135 0 l 135 972 l 704 972 l 704 861 l 257 861 l 257 553 l 619 553 l 619 444 l 257 444 l 257 111 l 704 111 l 704 0 l 135 0 m 543 1096 q 490 1119 513 1096 q 467 1172 467 1142 q 490 1226 467 1204 q 543 1249 513 1249 q 597 1226 575 1249 q 618 1172 618 1204 q 597 1119 618 1142 q 543 1096 575 1096 m 300 1096 q 247 1119 269 1096 q 224 1172 224 1142 q 247 1226 224 1204 q 300 1249 269 1249 q 353 1226 332 1249 q 375 1172 375 1204 q 353 1119 375 1142 q 300 1096 332 1096 z "},"Ì":{"ha":661,"x_min":104,"x_max":557,"o":"m 104 0 l 104 103 l 269 103 l 269 867 l 104 867 l 104 972 l 557 972 l 557 867 l 392 867 l 392 106 l 557 106 l 557 0 l 104 0 m 282 1051 l 113 1267 l 265 1267 l 382 1051 l 282 1051 z "},"Í":{"ha":661,"x_min":104,"x_max":557,"o":"m 104 0 l 104 103 l 269 103 l 269 867 l 104 867 l 104 972 l 557 972 l 557 867 l 392 867 l 392 106 l 557 106 l 557 0 l 104 0 m 286 1051 l 403 1267 l 556 1267 l 386 1051 l 286 1051 z "},"Î":{"ha":661,"x_min":104,"x_max":557,"o":"m 104 0 l 104 103 l 269 103 l 269 867 l 104 867 l 104 972 l 557 972 l 557 867 l 392 867 l 392 106 l 557 106 l 557 0 l 104 0 m 110 1051 l 299 1267 l 368 1267 l 556 1051 l 442 1051 l 333 1178 l 225 1051 l 110 1051 z "},"Ï":{"ha":661,"x_min":104,"x_max":557,"o":"m 104 0 l 104 103 l 269 103 l 269 867 l 104 867 l 104 972 l 557 972 l 557 867 l 392 867 l 392 106 l 557 106 l 557 0 l 104 0 m 454 1085 q 401 1108 424 1085 q 378 1161 378 1131 q 401 1215 378 1193 q 454 1238 424 1238 q 508 1215 486 1238 q 529 1161 529 1193 q 508 1108 529 1131 q 454 1085 486 1085 m 211 1085 q 158 1108 181 1085 q 135 1161 135 1131 q 158 1215 135 1193 q 211 1238 181 1238 q 265 1215 243 1238 q 286 1161 286 1193 q 265 1108 286 1131 q 211 1085 243 1085 z "},"Ð":{"ha":939,"x_min":19,"x_max":869,"o":"m 135 0 l 135 419 l 19 419 l 19 536 l 135 536 l 135 972 l 401 972 q 665 911 561 972 q 819 741 768 850 q 869 485 869 632 q 819 231 869 340 q 665 61 768 122 q 401 0 561 0 l 135 0 m 254 111 l 406 111 q 592 159 518 111 q 704 292 667 207 q 742 486 742 376 q 704 680 742 596 q 592 813 667 764 q 406 861 518 861 l 254 861 l 254 536 l 372 536 l 372 419 l 254 419 l 254 111 z "},"Ñ":{"ha":990,"x_min":132,"x_max":858,"o":"m 132 0 l 132 972 l 310 972 l 736 175 l 736 972 l 858 972 l 858 0 l 699 0 l 254 803 l 254 0 l 132 0 m 600 1075 q 536 1095 571 1075 q 469 1135 501 1115 q 413 1156 436 1156 q 353 1133 374 1156 q 322 1094 333 1110 l 269 1157 q 321 1220 285 1188 q 413 1253 357 1253 q 477 1233 443 1253 q 544 1192 511 1213 q 600 1172 576 1172 q 660 1195 640 1172 q 690 1233 679 1218 l 743 1171 q 693 1108 729 1140 q 600 1075 657 1075 z "},"Ò":{"ha":1033,"x_min":76,"x_max":957,"o":"m 517 -15 q 317 25 400 -15 q 180 135 233 65 q 101 297 126 206 q 76 488 76 388 q 101 678 76 588 q 180 840 126 769 q 317 950 233 910 q 517 990 400 990 q 717 950 633 990 q 853 840 800 910 q 932 678 907 769 q 957 488 957 588 q 932 297 957 388 q 853 135 907 206 q 717 25 800 65 q 517 -15 633 -15 m 517 96 q 695 149 626 96 q 797 291 764 201 q 829 488 829 381 q 797 685 829 596 q 695 826 764 774 q 517 879 626 879 q 345 826 415 879 q 240 685 275 774 q 204 488 204 596 q 240 291 204 381 q 345 149 275 201 q 517 96 415 96 m 468 1064 l 299 1279 l 451 1279 l 568 1064 l 468 1064 z "},"Ó":{"ha":1033,"x_min":76,"x_max":957,"o":"m 517 -15 q 317 25 400 -15 q 180 135 233 65 q 101 297 126 206 q 76 488 76 388 q 101 678 76 588 q 180 840 126 769 q 317 950 233 910 q 517 990 400 990 q 717 950 633 990 q 853 840 800 910 q 932 678 907 769 q 957 488 957 588 q 932 297 957 388 q 853 135 907 206 q 717 25 800 65 q 517 -15 633 -15 m 517 96 q 695 149 626 96 q 797 291 764 201 q 829 488 829 381 q 797 685 829 596 q 695 826 764 774 q 517 879 626 879 q 345 826 415 879 q 240 685 275 774 q 204 488 204 596 q 240 291 204 381 q 345 149 275 201 q 517 96 415 96 m 472 1064 l 589 1279 l 742 1279 l 572 1064 l 472 1064 z "},"Ô":{"ha":1033,"x_min":76,"x_max":957,"o":"m 517 -15 q 317 25 400 -15 q 180 135 233 65 q 101 297 126 206 q 76 488 76 388 q 101 678 76 588 q 180 840 126 769 q 317 950 233 910 q 517 990 400 990 q 717 950 633 990 q 853 840 800 910 q 932 678 907 769 q 957 488 957 588 q 932 297 957 388 q 853 135 907 206 q 717 25 800 65 q 517 -15 633 -15 m 517 96 q 695 149 626 96 q 797 291 764 201 q 829 488 829 381 q 797 685 829 596 q 695 826 764 774 q 517 879 626 879 q 345 826 415 879 q 240 685 275 774 q 204 488 204 596 q 240 291 204 381 q 345 149 275 201 q 517 96 415 96 m 296 1064 l 485 1279 l 554 1279 l 742 1064 l 628 1064 l 519 1190 l 411 1064 l 296 1064 z "},"Õ":{"ha":1033,"x_min":76,"x_max":957,"o":"m 517 -15 q 317 25 400 -15 q 180 135 233 65 q 101 297 126 206 q 76 488 76 388 q 101 678 76 588 q 180 840 126 769 q 317 950 233 910 q 517 990 400 990 q 717 950 633 990 q 853 840 800 910 q 932 678 907 769 q 957 488 957 588 q 932 297 957 388 q 853 135 907 206 q 717 25 800 65 q 517 -15 633 -15 m 517 96 q 695 149 626 96 q 797 291 764 201 q 829 488 829 381 q 797 685 829 596 q 695 826 764 774 q 517 879 626 879 q 345 826 415 879 q 240 685 275 774 q 204 488 204 596 q 240 291 204 381 q 345 149 275 201 q 517 96 415 96 m 613 1088 q 549 1108 583 1088 q 481 1148 514 1128 q 425 1168 449 1168 q 366 1145 386 1168 q 335 1107 346 1122 l 282 1169 q 333 1233 297 1200 q 425 1265 369 1265 q 490 1245 456 1265 q 556 1205 524 1225 q 613 1185 589 1185 q 672 1208 653 1185 q 703 1246 692 1231 l 756 1183 q 706 1120 742 1153 q 613 1088 669 1088 z "},"Ö":{"ha":1033,"x_min":76,"x_max":957,"o":"m 517 -15 q 317 25 400 -15 q 180 135 233 65 q 101 297 126 206 q 76 488 76 388 q 101 678 76 588 q 180 840 126 769 q 317 950 233 910 q 517 990 400 990 q 717 950 633 990 q 853 840 800 910 q 932 678 907 769 q 957 488 957 588 q 932 297 957 388 q 853 135 907 206 q 717 25 800 65 q 517 -15 633 -15 m 517 96 q 695 149 626 96 q 797 291 764 201 q 829 488 829 381 q 797 685 829 596 q 695 826 764 774 q 517 879 626 879 q 345 826 415 879 q 240 685 275 774 q 204 488 204 596 q 240 291 204 381 q 345 149 275 201 q 517 96 415 96 m 640 1097 q 587 1120 610 1097 q 564 1174 564 1143 q 587 1228 564 1206 q 640 1250 610 1250 q 694 1228 672 1250 q 715 1174 715 1206 q 694 1120 715 1143 q 640 1097 672 1097 m 397 1097 q 344 1120 367 1097 q 321 1174 321 1143 q 344 1228 321 1206 q 397 1250 367 1250 q 451 1228 429 1250 q 472 1174 472 1206 q 451 1120 472 1143 q 397 1097 429 1097 z "},"×":{"ha":764,"x_min":89,"x_max":676,"o":"m 161 164 l 89 236 l 310 457 l 89 678 l 161 750 l 382 529 l 604 750 l 676 678 l 454 457 l 676 236 l 604 164 l 382 385 l 161 164 z "},"Ø":{"ha":1033,"x_min":74,"x_max":957,"o":"m 149 -50 l 74 17 l 174 143 q 100 301 124 213 q 76 488 76 390 q 101 678 76 588 q 180 840 126 769 q 317 950 233 910 q 517 990 400 990 q 666 969 600 990 q 782 910 732 947 l 869 1019 l 949 956 l 854 838 q 932 678 907 768 q 957 488 957 588 q 932 297 957 388 q 853 135 907 206 q 717 25 800 65 q 517 -15 633 -15 q 363 8 431 -15 q 244 71 296 31 l 149 -50 m 204 488 q 258 250 204 350 l 707 815 q 624 863 671 846 q 517 879 576 879 q 345 826 415 879 q 240 685 275 774 q 204 488 204 596 m 517 96 q 695 149 626 96 q 797 291 764 201 q 829 488 829 381 q 815 622 829 558 q 774 735 801 685 l 322 168 q 408 115 360 135 q 517 96 457 96 z "},"Ù":{"ha":936,"x_min":114,"x_max":822,"o":"m 474 -17 q 209 90 304 -17 q 114 382 114 197 l 114 974 l 236 974 l 236 382 q 301 171 236 240 q 468 101 367 101 q 585 132 533 101 q 669 225 638 163 q 700 382 700 288 l 700 974 l 822 974 l 822 382 q 735 90 822 197 q 474 -17 647 -17 m 425 1051 l 256 1267 l 408 1267 l 525 1051 l 425 1051 z "},"Ú":{"ha":936,"x_min":114,"x_max":822,"o":"m 474 -17 q 209 90 304 -17 q 114 382 114 197 l 114 974 l 236 974 l 236 382 q 301 171 236 240 q 468 101 367 101 q 585 132 533 101 q 669 225 638 163 q 700 382 700 288 l 700 974 l 822 974 l 822 382 q 735 90 822 197 q 474 -17 647 -17 m 429 1051 l 546 1267 l 699 1267 l 529 1051 l 429 1051 z "},"Û":{"ha":936,"x_min":114,"x_max":822,"o":"m 474 -17 q 209 90 304 -17 q 114 382 114 197 l 114 974 l 236 974 l 236 382 q 301 171 236 240 q 468 101 367 101 q 585 132 533 101 q 669 225 638 163 q 700 382 700 288 l 700 974 l 822 974 l 822 382 q 735 90 822 197 q 474 -17 647 -17 m 253 1051 l 442 1267 l 511 1267 l 699 1051 l 585 1051 l 476 1178 l 368 1051 l 253 1051 z "},"Ü":{"ha":936,"x_min":114,"x_max":822,"o":"m 474 -17 q 209 90 304 -17 q 114 382 114 197 l 114 974 l 236 974 l 236 382 q 301 171 236 240 q 468 101 367 101 q 585 132 533 101 q 669 225 638 163 q 700 382 700 288 l 700 974 l 822 974 l 822 382 q 735 90 822 197 q 474 -17 647 -17 m 597 1085 q 544 1108 567 1085 q 521 1161 521 1131 q 544 1215 521 1193 q 597 1238 567 1238 q 651 1215 629 1238 q 672 1161 672 1193 q 651 1108 672 1131 q 597 1085 629 1085 m 354 1085 q 301 1108 324 1085 q 278 1161 278 1131 q 301 1215 278 1193 q 354 1238 324 1238 q 408 1215 386 1238 q 429 1161 429 1193 q 408 1108 429 1131 q 354 1085 386 1085 z "},"Ý":{"ha":808,"x_min":7,"x_max":801,"o":"m 349 0 l 353 429 l 7 972 l 146 972 l 407 542 l 672 972 l 801 972 l 467 429 l 471 0 l 349 0 m 371 1051 l 488 1267 l 640 1267 l 471 1051 l 371 1051 z "},"Þ":{"ha":785,"x_min":132,"x_max":736,"o":"m 132 -1 l 132 972 l 254 972 l 254 768 l 429 768 q 661 700 586 768 q 736 497 736 632 q 660 298 736 368 q 426 228 585 228 l 257 228 l 257 -1 l 132 -1 m 254 339 l 425 339 q 526 351 485 339 q 590 399 568 364 q 611 500 611 433 q 563 623 611 589 q 426 657 515 657 l 254 657 l 254 339 z "},"ß":{"ha":788,"x_min":128,"x_max":713,"o":"m 399 -17 q 346 -12 371 -17 l 346 97 q 371 95 357 96 q 400 94 385 94 q 542 147 493 94 q 590 282 590 199 q 565 378 590 335 q 497 447 540 421 q 397 472 453 472 l 393 472 l 393 581 l 399 581 q 511 624 476 581 q 546 736 546 668 q 510 839 546 794 q 396 883 475 883 q 281 839 317 883 q 244 736 244 794 l 244 0 l 128 0 l 128 736 q 163 876 128 819 q 260 960 199 932 q 397 989 321 989 q 528 960 468 989 q 626 876 589 932 q 663 736 663 819 q 636 617 663 668 q 565 533 610 567 q 672 432 631 496 q 713 282 713 368 q 671 119 713 186 q 558 18 629 53 q 399 -17 488 -17 z "},"à":{"ha":843,"x_min":75,"x_max":724,"o":"m 382 -17 q 222 27 292 -17 q 114 152 153 71 q 75 347 75 233 q 115 546 75 465 q 227 669 156 626 q 389 711 299 711 q 494 689 450 711 q 569 632 539 667 q 613 558 599 597 l 613 694 l 724 694 l 724 0 l 608 0 l 608 133 q 559 52 594 86 q 477 1 524 18 q 382 -17 431 -17 m 399 89 q 512 124 465 89 q 583 218 558 160 q 607 347 607 276 q 552 535 607 463 q 394 607 497 607 q 281 573 326 607 q 214 481 236 539 q 192 350 192 422 q 214 219 192 278 q 283 124 236 160 q 399 89 329 89 m 367 779 l 197 994 l 350 994 l 467 779 l 367 779 z "},"á":{"ha":843,"x_min":75,"x_max":724,"o":"m 382 -17 q 222 27 292 -17 q 114 152 153 71 q 75 347 75 233 q 115 546 75 465 q 227 669 156 626 q 389 711 299 711 q 494 689 450 711 q 569 632 539 667 q 613 558 599 597 l 613 694 l 724 694 l 724 0 l 608 0 l 608 133 q 559 52 594 86 q 477 1 524 18 q 382 -17 431 -17 m 399 89 q 512 124 465 89 q 583 218 558 160 q 607 347 607 276 q 552 535 607 463 q 394 607 497 607 q 281 573 326 607 q 214 481 236 539 q 192 350 192 422 q 214 219 192 278 q 283 124 236 160 q 399 89 329 89 m 371 779 l 488 994 l 640 994 l 471 779 l 371 779 z "},"â":{"ha":843,"x_min":75,"x_max":724,"o":"m 382 -17 q 222 27 292 -17 q 114 152 153 71 q 75 347 75 233 q 115 546 75 465 q 227 669 156 626 q 389 711 299 711 q 494 689 450 711 q 569 632 539 667 q 613 558 599 597 l 613 694 l 724 694 l 724 0 l 608 0 l 608 133 q 559 52 594 86 q 477 1 524 18 q 382 -17 431 -17 m 399 89 q 512 124 465 89 q 583 218 558 160 q 607 347 607 276 q 552 535 607 463 q 394 607 497 607 q 281 573 326 607 q 214 481 236 539 q 192 350 192 422 q 214 219 192 278 q 283 124 236 160 q 399 89 329 89 m 194 779 l 383 994 l 453 994 l 640 779 l 526 779 l 418 906 l 310 779 l 194 779 z "},"ã":{"ha":843,"x_min":75,"x_max":724,"o":"m 382 -17 q 222 27 292 -17 q 114 152 153 71 q 75 347 75 233 q 115 546 75 465 q 227 669 156 626 q 389 711 299 711 q 494 689 450 711 q 569 632 539 667 q 613 558 599 597 l 613 694 l 724 694 l 724 0 l 608 0 l 608 133 q 559 52 594 86 q 477 1 524 18 q 382 -17 431 -17 m 399 89 q 512 124 465 89 q 583 218 558 160 q 607 347 607 276 q 552 535 607 463 q 394 607 497 607 q 281 573 326 607 q 214 481 236 539 q 192 350 192 422 q 214 219 192 278 q 283 124 236 160 q 399 89 329 89 m 511 803 q 447 823 482 803 q 380 863 413 843 q 324 883 347 883 q 265 860 285 883 q 233 822 244 838 l 181 885 q 232 948 196 915 q 324 981 268 981 q 388 960 354 981 q 455 920 422 940 q 511 900 488 900 q 571 923 551 900 q 601 961 590 946 l 654 899 q 604 835 640 868 q 511 803 568 803 z "},"ä":{"ha":843,"x_min":75,"x_max":724,"o":"m 382 -17 q 222 27 292 -17 q 114 152 153 71 q 75 347 75 233 q 115 546 75 465 q 227 669 156 626 q 389 711 299 711 q 494 689 450 711 q 569 632 539 667 q 613 558 599 597 l 613 694 l 724 694 l 724 0 l 608 0 l 608 133 q 559 52 594 86 q 477 1 524 18 q 382 -17 431 -17 m 399 89 q 512 124 465 89 q 583 218 558 160 q 607 347 607 276 q 552 535 607 463 q 394 607 497 607 q 281 573 326 607 q 214 481 236 539 q 192 350 192 422 q 214 219 192 278 q 283 124 236 160 q 399 89 329 89 m 539 813 q 485 835 508 813 q 463 889 463 858 q 485 943 463 921 q 539 965 508 965 q 592 943 571 965 q 614 889 614 921 q 592 835 614 858 q 539 813 571 813 m 296 813 q 242 835 265 813 q 219 889 219 858 q 242 943 219 921 q 296 965 265 965 q 349 943 328 965 q 371 889 371 921 q 349 835 371 858 q 296 813 328 813 z "},"å":{"ha":843,"x_min":75,"x_max":724,"o":"m 382 -17 q 222 27 292 -17 q 114 152 153 71 q 75 347 75 233 q 115 546 75 465 q 227 669 156 626 q 389 711 299 711 q 494 689 450 711 q 569 632 539 667 q 613 558 599 597 l 613 694 l 724 694 l 724 0 l 608 0 l 608 133 q 559 52 594 86 q 477 1 524 18 q 382 -17 431 -17 m 399 89 q 512 124 465 89 q 583 218 558 160 q 607 347 607 276 q 552 535 607 463 q 394 607 497 607 q 281 573 326 607 q 214 481 236 539 q 192 350 192 422 q 214 219 192 278 q 283 124 236 160 q 399 89 329 89 m 415 779 q 313 823 350 779 q 276 922 276 867 q 313 1023 276 979 q 415 1067 350 1067 q 519 1023 482 1067 q 556 922 556 979 q 519 823 556 867 q 415 779 482 779 m 415 858 q 460 876 443 858 q 478 922 478 894 q 460 969 478 950 q 415 988 443 988 q 372 969 389 988 q 354 922 354 950 q 372 876 354 894 q 415 858 389 858 z "},"æ":{"ha":1244,"x_min":78,"x_max":1175,"o":"m 278 -17 q 135 38 193 -17 q 78 188 78 92 q 190 372 78 319 q 546 424 303 424 l 546 467 q 497 565 546 524 q 378 606 449 606 q 289 589 325 606 q 232 550 253 572 q 202 511 211 528 q 193 494 193 494 l 99 546 q 112 571 99 546 q 157 628 125 596 q 245 686 189 661 q 388 711 301 711 q 528 678 467 711 q 625 594 590 646 q 732 681 669 651 q 867 711 794 711 q 1021 674 951 711 q 1133 560 1090 638 q 1175 363 1175 483 l 1175 324 l 661 324 q 714 154 665 221 q 864 88 763 88 q 974 117 926 88 q 1050 199 1021 146 l 1153 157 q 867 -18 1067 -18 q 703 28 778 -18 q 586 158 628 74 l 586 157 q 566 131 586 157 q 507 70 546 104 q 410 10 468 36 q 278 -17 353 -17 m 864 606 q 731 553 779 606 q 668 422 683 501 l 1058 422 q 1036 503 1058 461 q 971 576 1014 546 q 864 606 928 606 m 307 89 q 380 103 339 89 q 459 145 421 118 q 522 213 497 172 q 546 304 546 253 l 546 332 q 281 307 367 332 q 194 197 194 282 q 224 117 194 144 q 307 89 254 89 z "},"ç":{"ha":744,"x_min":75,"x_max":681,"o":"m 406 -18 q 242 26 318 -18 q 121 151 167 69 q 75 344 75 233 q 121 540 75 458 q 242 667 167 622 q 406 711 318 711 q 571 663 497 711 q 681 529 644 615 l 575 488 q 509 573 553 540 q 403 606 465 606 q 285 572 332 606 q 215 479 239 538 q 192 349 192 421 q 215 217 192 276 q 285 123 239 158 q 403 88 332 88 q 509 120 465 88 q 575 206 553 153 l 681 164 q 570 30 644 78 q 406 -18 496 -18 m 421 -308 q 335 -288 374 -308 q 274 -239 296 -268 l 325 -178 q 358 -209 336 -192 q 413 -226 381 -226 q 478 -186 478 -226 q 421 -144 478 -144 q 388 -151 403 -144 q 369 -164 374 -158 l 310 -108 l 372 -10 l 458 -10 l 410 -85 q 476 -86 443 -75 q 533 -124 510 -97 q 556 -192 556 -151 q 515 -276 556 -243 q 421 -308 475 -308 z "},"è":{"ha":790,"x_min":75,"x_max":721,"o":"m 404 -18 q 242 26 317 -18 q 121 151 167 69 q 75 344 75 233 q 121 540 75 458 q 242 667 167 622 q 404 711 317 711 q 565 674 493 711 q 678 560 636 638 q 721 363 721 483 l 721 319 l 190 319 q 249 153 196 219 q 401 88 301 88 q 515 117 464 88 q 596 199 567 146 l 699 157 q 404 -18 613 -18 m 401 606 q 266 553 317 606 q 199 422 215 501 l 604 422 q 581 503 604 461 q 514 576 558 546 q 401 606 469 606 m 356 778 l 186 993 l 339 993 l 456 778 l 356 778 z "},"é":{"ha":790,"x_min":75,"x_max":721,"o":"m 404 -18 q 242 26 317 -18 q 121 151 167 69 q 75 344 75 233 q 121 540 75 458 q 242 667 167 622 q 404 711 317 711 q 565 674 493 711 q 678 560 636 638 q 721 363 721 483 l 721 319 l 190 319 q 249 153 196 219 q 401 88 301 88 q 515 117 464 88 q 596 199 567 146 l 699 157 q 404 -18 613 -18 m 401 606 q 266 553 317 606 q 199 422 215 501 l 604 422 q 581 503 604 461 q 514 576 558 546 q 401 606 469 606 m 360 778 l 476 993 l 629 993 l 460 778 l 360 778 z "},"ê":{"ha":790,"x_min":75,"x_max":721,"o":"m 404 -18 q 242 26 317 -18 q 121 151 167 69 q 75 344 75 233 q 121 540 75 458 q 242 667 167 622 q 404 711 317 711 q 565 674 493 711 q 678 560 636 638 q 721 363 721 483 l 721 319 l 190 319 q 249 153 196 219 q 401 88 301 88 q 515 117 464 88 q 596 199 567 146 l 699 157 q 404 -18 613 -18 m 401 606 q 266 553 317 606 q 199 422 215 501 l 604 422 q 581 503 604 461 q 514 576 558 546 q 401 606 469 606 m 183 778 l 372 993 l 442 993 l 629 778 l 515 778 l 407 904 l 299 778 l 183 778 z "},"ë":{"ha":790,"x_min":75,"x_max":721,"o":"m 404 -18 q 242 26 317 -18 q 121 151 167 69 q 75 344 75 233 q 121 540 75 458 q 242 667 167 622 q 404 711 317 711 q 565 674 493 711 q 678 560 636 638 q 721 363 721 483 l 721 319 l 190 319 q 249 153 196 219 q 401 88 301 88 q 515 117 464 88 q 596 199 567 146 l 699 157 q 404 -18 613 -18 m 401 606 q 266 553 317 606 q 199 422 215 501 l 604 422 q 581 503 604 461 q 514 576 558 546 q 401 606 469 606 m 528 811 q 474 834 497 811 q 451 888 451 857 q 474 942 451 919 q 528 964 497 964 q 581 942 560 964 q 603 888 603 919 q 581 834 603 857 q 528 811 560 811 m 285 811 q 231 834 254 811 q 208 888 208 857 q 231 942 208 919 q 285 964 254 964 q 338 942 317 964 q 360 888 360 919 q 338 834 360 857 q 285 811 317 811 z "},"ì":{"ha":361,"x_min":-39,"x_max":239,"o":"m 122 0 l 122 694 l 239 694 l 239 0 l 122 0 m 131 774 l -39 989 l 114 989 l 231 774 l 131 774 z "},"í":{"ha":361,"x_min":122,"x_max":404,"o":"m 122 0 l 122 694 l 239 694 l 239 0 l 122 0 m 135 774 l 251 989 l 404 989 l 235 774 l 135 774 z "},"î":{"ha":361,"x_min":-42,"x_max":404,"o":"m 122 0 l 122 694 l 239 694 l 239 0 l 122 0 m -42 774 l 147 989 l 217 989 l 404 774 l 290 774 l 182 900 l 74 774 l -42 774 z "},"ï":{"ha":361,"x_min":-17,"x_max":378,"o":"m 122 0 l 122 694 l 239 694 l 239 0 l 122 0 m 303 807 q 249 830 272 807 q 226 883 226 853 q 249 938 226 915 q 303 960 272 960 q 356 938 335 960 q 378 883 378 915 q 356 830 378 853 q 303 807 335 807 m 60 807 q 6 830 29 807 q -17 883 -17 853 q 6 938 -17 915 q 60 960 29 960 q 113 938 92 960 q 135 883 135 915 q 113 830 135 853 q 60 807 92 807 z "},"ð":{"ha":790,"x_min":75,"x_max":717,"o":"m 392 -17 q 236 24 308 -17 q 119 147 164 65 q 75 347 75 228 q 119 548 75 467 q 236 670 164 629 q 392 711 308 711 q 428 707 399 711 q 490 691 457 703 q 542 653 524 679 q 499 730 533 685 q 411 819 464 775 l 214 750 l 183 829 l 328 879 q 265 914 297 899 q 197 940 232 929 l 253 1025 q 358 976 310 1003 q 447 921 407 950 l 599 974 l 628 894 l 524 858 q 651 683 610 775 q 705 504 693 592 q 715 347 717 417 q 667 147 713 228 q 548 24 621 65 q 392 -17 475 -17 m 392 89 q 547 157 493 89 q 601 347 601 225 q 547 538 601 469 q 392 606 493 606 q 240 538 292 606 q 188 347 188 469 q 240 157 188 225 q 392 89 292 89 z "},"ñ":{"ha":829,"x_min":128,"x_max":710,"o":"m 128 0 l 128 694 l 244 694 l 244 564 q 276 624 251 589 q 350 685 301 658 q 476 711 399 711 q 644 646 578 711 q 710 456 710 581 l 710 0 l 593 0 l 593 439 q 550 567 593 529 q 438 606 507 606 q 293 540 342 606 q 244 375 244 475 l 244 0 l 128 0 m 533 815 q 469 835 504 815 q 402 876 435 856 q 346 896 369 896 q 287 873 307 896 q 256 835 267 850 l 203 897 q 254 960 218 928 q 346 993 290 993 q 410 973 376 993 q 477 933 444 953 q 533 913 510 913 q 593 935 574 913 q 624 974 613 958 l 676 911 q 626 848 663 881 q 533 815 590 815 z "},"ò":{"ha":806,"x_min":75,"x_max":731,"o":"m 403 -17 q 242 24 317 -17 q 121 147 167 65 q 75 347 75 228 q 121 548 75 467 q 242 670 167 629 q 403 711 317 711 q 564 670 489 711 q 685 548 639 629 q 731 347 731 467 q 685 147 731 228 q 564 24 639 65 q 403 -17 489 -17 m 403 89 q 560 157 507 89 q 614 347 614 225 q 560 538 614 469 q 403 606 507 606 q 245 538 299 606 q 192 347 192 469 q 245 157 192 225 q 403 89 299 89 m 354 779 l 185 994 l 338 994 l 454 779 l 354 779 z "},"ó":{"ha":806,"x_min":75,"x_max":731,"o":"m 403 -17 q 242 24 317 -17 q 121 147 167 65 q 75 347 75 228 q 121 548 75 467 q 242 670 167 629 q 403 711 317 711 q 564 670 489 711 q 685 548 639 629 q 731 347 731 467 q 685 147 731 228 q 564 24 639 65 q 403 -17 489 -17 m 403 89 q 560 157 507 89 q 614 347 614 225 q 560 538 614 469 q 403 606 507 606 q 245 538 299 606 q 192 347 192 469 q 245 157 192 225 q 403 89 299 89 m 358 779 l 475 994 l 628 994 l 458 779 l 358 779 z "},"ô":{"ha":806,"x_min":75,"x_max":731,"o":"m 403 -17 q 242 24 317 -17 q 121 147 167 65 q 75 347 75 228 q 121 548 75 467 q 242 670 167 629 q 403 711 317 711 q 564 670 489 711 q 685 548 639 629 q 731 347 731 467 q 685 147 731 228 q 564 24 639 65 q 403 -17 489 -17 m 403 89 q 560 157 507 89 q 614 347 614 225 q 560 538 614 469 q 403 606 507 606 q 245 538 299 606 q 192 347 192 469 q 245 157 192 225 q 403 89 299 89 m 182 779 l 371 994 l 440 994 l 628 779 l 514 779 l 406 906 l 297 779 l 182 779 z "},"õ":{"ha":806,"x_min":75,"x_max":731,"o":"m 403 -17 q 242 24 317 -17 q 121 147 167 65 q 75 347 75 228 q 121 548 75 467 q 242 670 167 629 q 403 711 317 711 q 564 670 489 711 q 685 548 639 629 q 731 347 731 467 q 685 147 731 228 q 564 24 639 65 q 403 -17 489 -17 m 403 89 q 560 157 507 89 q 614 347 614 225 q 560 538 614 469 q 403 606 507 606 q 245 538 299 606 q 192 347 192 469 q 245 157 192 225 q 403 89 299 89 m 499 803 q 435 823 469 803 q 367 863 400 843 q 311 883 335 883 q 252 860 272 883 q 221 822 232 838 l 168 885 q 219 948 183 915 q 311 981 256 981 q 376 960 342 981 q 442 920 410 940 q 499 900 475 900 q 558 923 539 900 q 589 961 578 946 l 642 899 q 592 835 628 868 q 499 803 556 803 z "},"ö":{"ha":806,"x_min":75,"x_max":731,"o":"m 403 -17 q 242 24 317 -17 q 121 147 167 65 q 75 347 75 228 q 121 548 75 467 q 242 670 167 629 q 403 711 317 711 q 564 670 489 711 q 685 548 639 629 q 731 347 731 467 q 685 147 731 228 q 564 24 639 65 q 403 -17 489 -17 m 403 89 q 560 157 507 89 q 614 347 614 225 q 560 538 614 469 q 403 606 507 606 q 245 538 299 606 q 192 347 192 469 q 245 157 192 225 q 403 89 299 89 m 526 813 q 473 835 496 813 q 450 889 450 858 q 473 943 450 921 q 526 965 496 965 q 580 943 558 965 q 601 889 601 921 q 580 835 601 858 q 526 813 558 813 m 283 813 q 230 835 253 813 q 207 889 207 858 q 230 943 207 921 q 283 965 253 965 q 337 943 315 965 q 358 889 358 921 q 337 835 358 858 q 283 813 315 813 z "},"÷":{"ha":764,"x_min":92,"x_max":672,"o":"m 383 535 q 321 561 347 535 q 294 622 294 588 q 321 685 294 658 q 383 711 347 711 q 444 685 419 711 q 469 622 469 658 q 444 561 469 588 q 383 535 419 535 m 92 306 l 92 417 l 672 417 l 672 306 l 92 306 m 383 1 q 321 28 347 1 q 294 89 294 54 q 321 151 294 125 q 383 178 347 178 q 444 151 419 178 q 469 89 469 125 q 444 28 469 54 q 383 1 419 1 z "},"ø":{"ha":806,"x_min":64,"x_max":740,"o":"m 139 -67 l 64 0 l 147 107 q 94 212 114 151 q 75 347 75 272 q 121 548 75 467 q 242 670 167 629 q 403 711 317 711 q 582 658 503 711 l 661 758 l 740 694 l 657 589 q 711 484 692 544 q 731 347 731 424 q 685 147 731 228 q 564 24 639 65 q 403 -17 489 -17 q 221 38 301 -17 l 139 -67 m 192 347 q 219 199 192 258 l 518 576 q 403 606 471 606 q 245 538 299 606 q 192 347 192 469 m 403 89 q 560 157 507 89 q 614 347 614 225 q 585 497 614 438 l 286 119 q 403 89 333 89 z "},"ù":{"ha":829,"x_min":119,"x_max":701,"o":"m 353 -17 q 185 49 251 -17 q 119 239 119 114 l 119 694 l 236 694 l 236 256 q 279 127 236 165 q 392 89 322 89 q 536 154 488 89 q 585 319 585 219 l 585 694 l 701 694 l 701 0 l 585 0 l 585 131 q 553 72 579 107 q 479 10 528 36 q 353 -17 431 -17 m 351 778 l 182 993 l 335 993 l 451 778 l 351 778 z "},"ú":{"ha":829,"x_min":119,"x_max":701,"o":"m 353 -17 q 185 49 251 -17 q 119 239 119 114 l 119 694 l 236 694 l 236 256 q 279 127 236 165 q 392 89 322 89 q 536 154 488 89 q 585 319 585 219 l 585 694 l 701 694 l 701 0 l 585 0 l 585 131 q 553 72 579 107 q 479 10 528 36 q 353 -17 431 -17 m 356 778 l 472 993 l 625 993 l 456 778 l 356 778 z "},"û":{"ha":829,"x_min":119,"x_max":701,"o":"m 353 -17 q 185 49 251 -17 q 119 239 119 114 l 119 694 l 236 694 l 236 256 q 279 127 236 165 q 392 89 322 89 q 536 154 488 89 q 585 319 585 219 l 585 694 l 701 694 l 701 0 l 585 0 l 585 131 q 553 72 579 107 q 479 10 528 36 q 353 -17 431 -17 m 179 778 l 368 993 l 438 993 l 625 778 l 511 778 l 403 904 l 294 778 l 179 778 z "},"ü":{"ha":829,"x_min":119,"x_max":701,"o":"m 353 -17 q 185 49 251 -17 q 119 239 119 114 l 119 694 l 236 694 l 236 256 q 279 127 236 165 q 392 89 322 89 q 536 154 488 89 q 585 319 585 219 l 585 694 l 701 694 l 701 0 l 585 0 l 585 131 q 553 72 579 107 q 479 10 528 36 q 353 -17 431 -17 m 524 811 q 470 834 493 811 q 447 888 447 857 q 470 942 447 919 q 524 964 493 964 q 577 942 556 964 q 599 888 599 919 q 577 834 599 857 q 524 811 556 811 m 281 811 q 227 834 250 811 q 204 888 204 857 q 227 942 204 919 q 281 964 250 964 q 334 942 313 964 q 356 888 356 919 q 334 834 356 857 q 281 811 313 811 z "},"ý":{"ha":692,"x_min":21,"x_max":675,"o":"m 157 -319 q 115 -316 135 -319 q 82 -308 96 -312 l 82 -203 q 113 -207 94 -206 q 149 -208 131 -208 q 208 -192 181 -208 q 260 -131 235 -176 q 310 4 285 -85 l 21 694 l 140 694 l 364 165 l 551 694 l 675 694 l 396 -47 q 333 -198 363 -137 q 263 -289 303 -258 q 157 -319 222 -319 m 318 779 l 435 994 l 588 994 l 418 779 l 318 779 z "},"þ":{"ha":853,"x_min":128,"x_max":778,"o":"m 128 -319 l 128 989 l 240 989 l 240 558 q 285 632 256 597 q 358 689 314 667 q 464 711 403 711 q 626 669 556 711 q 738 546 697 626 q 778 347 778 465 q 739 152 778 233 q 631 27 700 71 q 471 -17 563 -17 q 376 1 424 -17 q 294 52 329 18 q 244 133 260 86 l 244 -319 l 128 -319 m 454 89 q 571 124 525 89 q 639 218 617 158 q 661 350 661 278 q 639 481 661 422 q 572 573 617 539 q 458 607 526 607 q 301 535 356 607 q 246 347 246 463 q 270 218 246 276 q 341 125 294 160 q 454 89 388 90 z "},"ÿ":{"ha":692,"x_min":21,"x_max":675,"o":"m 157 -319 q 115 -316 135 -319 q 82 -308 96 -312 l 82 -203 q 113 -207 94 -206 q 149 -208 131 -208 q 208 -192 181 -208 q 260 -131 235 -176 q 310 4 285 -85 l 21 694 l 140 694 l 364 165 l 551 694 l 675 694 l 396 -47 q 333 -198 363 -137 q 263 -289 303 -258 q 157 -319 222 -319 m 486 813 q 433 835 456 813 q 410 889 410 858 q 433 943 410 921 q 486 965 456 965 q 540 943 518 965 q 561 889 561 921 q 540 835 561 858 q 486 813 518 813 m 243 813 q 190 835 213 813 q 167 889 167 858 q 190 943 167 921 q 243 965 213 965 q 297 943 275 965 q 318 889 318 921 q 297 835 318 858 q 243 813 275 813 z "},"ˆ":{"ha":583,"x_min":72,"x_max":518,"o":"m 72 774 l 261 989 l 331 989 l 518 774 l 404 774 l 296 900 l 188 774 l 72 774 z "},"ˇ":{"ha":583,"x_min":72,"x_max":518,"o":"m 261 774 l 72 989 l 188 989 l 296 863 l 404 989 l 518 989 l 331 774 l 261 774 z "},"˘":{"ha":833,"x_min":217,"x_max":635,"o":"m 425 774 q 313 804 360 774 q 241 884 265 835 q 217 989 217 933 l 317 989 q 345 907 317 943 q 425 871 374 871 q 506 907 478 871 q 535 989 535 943 l 635 989 q 610 884 635 933 q 539 804 586 835 q 425 774 492 774 z "},"˙":{"ha":204,"x_min":26,"x_max":178,"o":"m 103 807 q 49 830 72 807 q 26 883 26 853 q 49 938 26 915 q 103 960 72 960 q 156 938 135 960 q 178 883 178 915 q 156 830 178 853 q 103 807 135 807 z "},"˚":{"ha":329,"x_min":25,"x_max":304,"o":"m 164 774 q 62 817 99 774 q 25 917 25 861 q 62 1017 25 974 q 164 1061 99 1061 q 267 1017 231 1061 q 304 917 304 974 q 267 817 304 861 q 164 774 231 774 m 164 853 q 209 871 192 853 q 226 917 226 889 q 209 963 226 944 q 164 982 192 982 q 120 963 138 982 q 103 917 103 944 q 120 871 103 889 q 164 853 138 853 z "},"˛":{"ha":833,"x_min":361,"x_max":599,"o":"m 513 -319 q 430 -297 464 -319 q 378 -237 396 -274 q 361 -161 361 -200 q 376 -92 361 -126 q 409 -33 390 -58 q 442 0 428 -8 l 557 0 q 492 -65 517 -25 q 467 -140 467 -106 q 488 -197 467 -179 q 540 -215 508 -215 q 599 -201 571 -215 l 599 -299 q 553 -315 581 -310 q 513 -319 526 -319 z "},"˜":{"ha":833,"x_min":132,"x_max":606,"o":"m 463 797 q 399 817 433 797 q 331 858 364 838 q 275 878 299 878 q 216 855 236 878 q 185 817 196 832 l 132 879 q 183 942 147 910 q 275 975 219 975 q 340 955 306 975 q 406 915 374 935 q 463 894 439 894 q 522 917 503 894 q 553 956 542 940 l 606 893 q 556 830 592 863 q 463 797 519 797 z "},"˝":{"ha":833,"x_min":154,"x_max":704,"o":"m 421 774 l 538 989 l 704 989 l 535 774 l 421 774 m 154 774 l 271 989 l 438 989 l 268 774 l 154 774 z "},"‘":{"ha":339,"x_min":69,"x_max":271,"o":"m 178 649 q 94 687 119 649 q 69 768 69 725 q 81 844 69 804 q 115 919 92 883 q 177 978 139 956 q 269 1000 215 1000 q 270 989 271 1000 q 269 966 269 978 q 269 954 269 954 q 254 949 269 954 q 218 931 239 944 q 182 894 197 918 q 167 833 167 871 q 174 835 169 835 q 181 835 178 835 q 242 808 215 835 q 269 746 269 781 q 242 679 269 710 q 178 649 215 649 z "},"’":{"ha":339,"x_min":69,"x_max":269,"o":"m 69 649 q 69 660 69 649 q 69 683 69 672 q 69 694 69 694 q 85 699 69 694 q 121 717 100 704 q 157 754 142 731 q 172 815 172 778 q 166 814 171 814 q 158 814 161 814 q 97 841 124 814 q 69 903 69 868 q 97 969 69 939 q 161 1000 124 1000 q 244 962 219 1000 q 269 881 269 924 q 258 806 269 846 q 224 729 247 765 q 162 671 200 693 q 69 649 124 649 z "},"−":{"ha":764,"x_min":85,"x_max":681,"o":"m 85 354 l 85 465 l 681 465 l 681 354 l 85 354 z "},"Ă":{"ha":843,"x_min":17,"x_max":826,"o":"m 17 0 l 363 972 l 481 972 l 826 0 l 710 0 l 614 271 l 229 271 l 133 0 l 17 0 m 269 382 l 574 382 l 422 810 l 269 382 m 419 1051 q 307 1082 354 1051 q 235 1162 260 1113 q 211 1267 211 1211 l 311 1267 q 340 1185 311 1221 q 419 1149 368 1149 q 501 1185 472 1149 q 529 1267 529 1221 l 629 1267 q 605 1162 629 1211 q 533 1082 581 1113 q 419 1051 486 1051 z "},"Ắ":{"ha":843,"x_min":17,"x_max":826,"o":"m 17 0 l 363 972 l 481 972 l 826 0 l 710 0 l 614 271 l 229 271 l 133 0 l 17 0 m 269 382 l 574 382 l 422 810 l 269 382 m 419 1051 q 307 1082 354 1051 q 235 1162 260 1113 q 211 1267 211 1211 l 311 1267 q 340 1185 311 1221 q 419 1149 368 1149 q 501 1185 472 1149 q 529 1267 529 1221 l 629 1267 q 605 1162 629 1211 q 533 1082 581 1113 q 419 1051 486 1051 m 372 1331 l 489 1546 l 642 1546 l 472 1331 l 372 1331 z "},"Ặ":{"ha":843,"x_min":17,"x_max":826,"o":"m 17 0 l 363 972 l 481 972 l 826 0 l 710 0 l 614 271 l 229 271 l 133 0 l 17 0 m 269 382 l 574 382 l 422 810 l 269 382 m 421 -242 q 367 -219 390 -242 q 344 -165 344 -196 q 367 -111 344 -133 q 421 -89 390 -89 q 474 -111 453 -89 q 496 -165 496 -133 q 474 -219 496 -196 q 421 -242 453 -242 m 419 1051 q 307 1082 354 1051 q 235 1162 260 1113 q 211 1267 211 1211 l 311 1267 q 340 1185 311 1221 q 419 1149 368 1149 q 501 1185 472 1149 q 529 1267 529 1221 l 629 1267 q 605 1162 629 1211 q 533 1082 581 1113 q 419 1051 486 1051 z "},"Ằ":{"ha":843,"x_min":17,"x_max":826,"o":"m 17 0 l 363 972 l 481 972 l 826 0 l 710 0 l 614 271 l 229 271 l 133 0 l 17 0 m 269 382 l 574 382 l 422 810 l 269 382 m 419 1051 q 307 1082 354 1051 q 235 1162 260 1113 q 211 1267 211 1211 l 311 1267 q 340 1185 311 1221 q 419 1149 368 1149 q 501 1185 472 1149 q 529 1267 529 1221 l 629 1267 q 605 1162 629 1211 q 533 1082 581 1113 q 419 1051 486 1051 m 367 1315 l 197 1531 l 350 1531 l 467 1315 l 367 1315 z "},"Ẳ":{"ha":843,"x_min":17,"x_max":826,"o":"m 17 0 l 363 972 l 481 972 l 826 0 l 710 0 l 614 271 l 229 271 l 133 0 l 17 0 m 269 382 l 574 382 l 422 810 l 269 382 m 361 1304 l 361 1396 q 439 1409 406 1396 q 472 1454 472 1422 q 435 1494 472 1482 q 353 1501 397 1506 l 353 1575 q 453 1569 407 1579 q 527 1531 499 1558 q 556 1454 556 1504 q 524 1378 556 1407 q 447 1343 492 1349 l 447 1304 l 361 1304 m 419 1051 q 307 1082 354 1051 q 235 1162 260 1113 q 211 1267 211 1211 l 311 1267 q 340 1185 311 1221 q 419 1149 368 1149 q 501 1185 472 1149 q 529 1267 529 1221 l 629 1267 q 605 1162 629 1211 q 533 1082 581 1113 q 419 1051 486 1051 z "},"Ẵ":{"ha":843,"x_min":17,"x_max":826,"o":"m 17 0 l 363 972 l 481 972 l 826 0 l 710 0 l 614 271 l 229 271 l 133 0 l 17 0 m 269 382 l 574 382 l 422 810 l 269 382 m 419 1051 q 307 1082 354 1051 q 235 1162 260 1113 q 211 1267 211 1211 l 311 1267 q 340 1185 311 1221 q 419 1149 368 1149 q 501 1185 472 1149 q 529 1267 529 1221 l 629 1267 q 605 1162 629 1211 q 533 1082 581 1113 q 419 1051 486 1051 m 506 1299 q 442 1319 476 1299 q 374 1359 407 1339 q 318 1379 342 1379 q 259 1356 279 1379 q 228 1318 239 1333 l 175 1381 q 226 1444 190 1411 q 318 1476 263 1476 q 383 1456 349 1476 q 449 1416 417 1436 q 506 1396 482 1396 q 565 1419 546 1396 q 596 1457 585 1442 l 649 1394 q 599 1331 635 1364 q 506 1299 563 1299 z "},"Ấ":{"ha":843,"x_min":17,"x_max":874,"o":"m 17 0 l 363 972 l 481 972 l 826 0 l 710 0 l 614 271 l 229 271 l 133 0 l 17 0 m 269 382 l 574 382 l 422 810 l 269 382 m 200 1051 l 389 1267 l 458 1267 l 646 1051 l 532 1051 l 424 1178 l 315 1051 l 200 1051 m 604 1188 l 721 1403 l 874 1403 l 704 1188 l 604 1188 z "},"Ậ":{"ha":843,"x_min":17,"x_max":826,"o":"m 17 0 l 363 972 l 481 972 l 826 0 l 710 0 l 614 271 l 229 271 l 133 0 l 17 0 m 269 382 l 574 382 l 422 810 l 269 382 m 421 -242 q 367 -219 390 -242 q 344 -165 344 -196 q 367 -111 344 -133 q 421 -89 390 -89 q 474 -111 453 -89 q 496 -165 496 -133 q 474 -219 496 -196 q 421 -242 453 -242 m 200 1051 l 389 1267 l 458 1267 l 646 1051 l 532 1051 l 424 1178 l 315 1051 l 200 1051 z "},"Ầ":{"ha":843,"x_min":17,"x_max":826,"o":"m 17 0 l 363 972 l 481 972 l 826 0 l 710 0 l 614 271 l 229 271 l 133 0 l 17 0 m 269 382 l 574 382 l 422 810 l 269 382 m 200 1051 l 389 1267 l 458 1267 l 646 1051 l 532 1051 l 424 1178 l 315 1051 l 200 1051 m 681 1189 l 511 1404 l 664 1404 l 781 1189 l 681 1189 z "},"Ẩ":{"ha":843,"x_min":17,"x_max":826,"o":"m 17 0 l 363 972 l 481 972 l 826 0 l 710 0 l 614 271 l 229 271 l 133 0 l 17 0 m 269 382 l 574 382 l 422 810 l 269 382 m 200 1051 l 389 1267 l 458 1267 l 646 1051 l 532 1051 l 424 1178 l 315 1051 l 200 1051 m 589 1249 l 589 1343 q 669 1356 635 1343 q 703 1403 703 1369 q 665 1443 703 1431 q 581 1451 626 1456 l 581 1526 q 683 1520 636 1531 q 760 1481 731 1510 q 789 1403 789 1453 q 756 1325 789 1356 q 678 1289 722 1294 l 678 1249 l 589 1249 z "},"Ẫ":{"ha":843,"x_min":17,"x_max":826,"o":"m 17 0 l 363 972 l 481 972 l 826 0 l 710 0 l 614 271 l 229 271 l 133 0 l 17 0 m 269 382 l 574 382 l 422 810 l 269 382 m 200 1051 l 389 1267 l 458 1267 l 646 1051 l 532 1051 l 424 1178 l 315 1051 l 200 1051 m 525 1328 q 461 1348 496 1328 q 394 1388 426 1368 q 338 1408 361 1408 q 278 1385 299 1408 q 247 1347 258 1363 l 194 1410 q 246 1473 210 1440 q 338 1506 282 1506 q 402 1485 368 1506 q 469 1445 436 1465 q 525 1425 501 1425 q 585 1448 565 1425 q 615 1486 604 1471 l 668 1424 q 618 1360 654 1393 q 525 1328 582 1328 z "},"Ạ":{"ha":843,"x_min":17,"x_max":826,"o":"m 17 0 l 363 972 l 481 972 l 826 0 l 710 0 l 614 271 l 229 271 l 133 0 l 17 0 m 269 382 l 574 382 l 422 810 l 269 382 m 421 -242 q 367 -219 390 -242 q 344 -165 344 -196 q 367 -111 344 -133 q 421 -89 390 -89 q 474 -111 453 -89 q 496 -165 496 -133 q 474 -219 496 -196 q 421 -242 453 -242 z "},"Ả":{"ha":843,"x_min":17,"x_max":826,"o":"m 17 0 l 363 972 l 481 972 l 826 0 l 710 0 l 614 271 l 229 271 l 133 0 l 17 0 m 269 382 l 574 382 l 422 810 l 269 382 m 382 1068 l 382 1163 q 462 1176 428 1163 q 496 1222 496 1189 q 458 1263 496 1250 q 374 1271 419 1275 l 374 1346 q 476 1340 429 1350 q 553 1301 524 1329 q 582 1222 582 1272 q 549 1144 582 1175 q 471 1108 515 1114 l 471 1068 l 382 1068 z "},"Ā":{"ha":843,"x_min":17,"x_max":826,"o":"m 17 0 l 363 972 l 481 972 l 826 0 l 710 0 l 614 271 l 229 271 l 133 0 l 17 0 m 269 382 l 574 382 l 422 810 l 269 382 m 214 1110 l 214 1213 l 629 1213 l 629 1110 l 214 1110 z "},"Ą":{"ha":843,"x_min":17,"x_max":867,"o":"m 17 0 l 363 972 l 481 972 l 826 0 l 710 0 l 614 271 l 229 271 l 133 0 l 17 0 m 269 382 l 574 382 l 422 810 l 269 382 m 781 -319 q 698 -297 732 -319 q 647 -237 664 -274 q 629 -161 629 -200 q 644 -92 629 -126 q 677 -33 658 -58 q 710 0 696 -8 l 825 0 q 760 -65 785 -25 q 735 -140 735 -106 q 756 -197 735 -179 q 808 -215 776 -215 q 867 -201 839 -215 l 867 -299 q 822 -315 849 -310 q 781 -319 794 -319 z "},"Ć":{"ha":968,"x_min":76,"x_max":907,"o":"m 506 -18 q 310 25 392 -18 q 176 142 228 68 q 101 306 125 215 q 76 493 76 397 q 101 683 76 593 q 177 842 125 774 q 310 951 229 911 q 506 990 392 990 q 699 953 617 990 q 835 849 782 915 q 907 697 888 783 l 783 672 q 688 821 760 763 q 506 879 615 879 q 338 828 406 879 q 236 691 271 778 q 201 496 201 604 q 236 292 201 383 q 338 147 271 200 q 506 93 406 93 q 688 152 615 93 q 783 300 760 211 l 907 275 q 835 124 888 190 q 699 19 782 57 q 506 -18 617 -18 m 461 1053 l 578 1268 l 731 1268 l 561 1053 l 461 1053 z "},"Č":{"ha":968,"x_min":76,"x_max":907,"o":"m 506 -18 q 310 25 392 -18 q 176 142 228 68 q 101 306 125 215 q 76 493 76 397 q 101 683 76 593 q 177 842 125 774 q 310 951 229 911 q 506 990 392 990 q 699 953 617 990 q 835 849 782 915 q 907 697 888 783 l 783 672 q 688 821 760 763 q 506 879 615 879 q 338 828 406 879 q 236 691 271 778 q 201 496 201 604 q 236 292 201 383 q 338 147 271 200 q 506 93 406 93 q 688 152 615 93 q 783 300 760 211 l 907 275 q 835 124 888 190 q 699 19 782 57 q 506 -18 617 -18 m 471 1053 l 282 1268 l 397 1268 l 506 1142 l 614 1268 l 728 1268 l 540 1053 l 471 1053 z "},"Ċ":{"ha":968,"x_min":76,"x_max":907,"o":"m 506 -18 q 310 25 392 -18 q 176 142 228 68 q 101 306 125 215 q 76 493 76 397 q 101 683 76 593 q 177 842 125 774 q 310 951 229 911 q 506 990 392 990 q 699 953 617 990 q 835 849 782 915 q 907 697 888 783 l 783 672 q 688 821 760 763 q 506 879 615 879 q 338 828 406 879 q 236 691 271 778 q 201 496 201 604 q 236 292 201 383 q 338 147 271 200 q 506 93 406 93 q 688 152 615 93 q 783 300 760 211 l 907 275 q 835 124 888 190 q 699 19 782 57 q 506 -18 617 -18 m 506 1086 q 452 1109 475 1086 q 429 1163 429 1132 q 452 1217 429 1194 q 506 1239 475 1239 q 559 1217 538 1239 q 581 1163 581 1194 q 559 1109 581 1132 q 506 1086 538 1086 z "},"Ď":{"ha":939,"x_min":135,"x_max":869,"o":"m 135 0 l 135 972 l 401 972 q 665 911 561 972 q 819 741 768 850 q 869 485 869 632 q 819 231 869 340 q 665 61 768 122 q 401 0 561 0 l 135 0 m 254 111 l 406 111 q 592 159 518 111 q 704 292 667 207 q 742 486 742 376 q 704 680 742 596 q 592 813 667 764 q 406 861 518 861 l 254 861 l 254 111 m 414 1051 l 225 1267 l 340 1267 l 449 1140 l 557 1267 l 671 1267 l 483 1051 l 414 1051 z "},"Đ":{"ha":939,"x_min":19,"x_max":869,"o":"m 135 0 l 135 419 l 19 419 l 19 536 l 135 536 l 135 972 l 401 972 q 665 911 561 972 q 819 741 768 850 q 869 485 869 632 q 819 231 869 340 q 665 61 768 122 q 401 0 561 0 l 135 0 m 254 111 l 406 111 q 592 159 518 111 q 704 292 667 207 q 742 486 742 376 q 704 680 742 596 q 592 813 667 764 q 406 861 518 861 l 254 861 l 254 536 l 372 536 l 372 419 l 254 419 l 254 111 z "},"Ḍ":{"ha":939,"x_min":135,"x_max":869,"o":"m 135 0 l 135 972 l 401 972 q 665 911 561 972 q 819 741 768 850 q 869 485 869 632 q 819 231 869 340 q 665 61 768 122 q 401 0 561 0 l 135 0 m 254 111 l 406 111 q 592 159 518 111 q 704 292 667 207 q 742 486 742 376 q 704 680 742 596 q 592 813 667 764 q 406 861 518 861 l 254 861 l 254 111 m 431 -242 q 377 -219 400 -242 q 354 -165 354 -196 q 377 -111 354 -133 q 431 -89 400 -89 q 484 -111 463 -89 q 506 -165 506 -133 q 484 -219 506 -196 q 431 -242 463 -242 z "},"Ḏ":{"ha":939,"x_min":135,"x_max":869,"o":"m 135 0 l 135 972 l 401 972 q 665 911 561 972 q 819 741 768 850 q 869 485 869 632 q 819 231 869 340 q 665 61 768 122 q 401 0 561 0 l 135 0 m 254 111 l 406 111 q 592 159 518 111 q 704 292 667 207 q 742 486 742 376 q 704 680 742 596 q 592 813 667 764 q 406 861 518 861 l 254 861 l 254 111 m 201 -221 l 201 -118 l 672 -118 l 672 -221 l 201 -221 z "},"Ě":{"ha":783,"x_min":135,"x_max":704,"o":"m 135 0 l 135 972 l 704 972 l 704 861 l 257 861 l 257 553 l 619 553 l 619 444 l 257 444 l 257 111 l 704 111 l 704 0 l 135 0 m 385 1063 l 196 1278 l 311 1278 l 419 1151 l 528 1278 l 642 1278 l 454 1063 l 385 1063 z "},"Ế":{"ha":783,"x_min":135,"x_max":872,"o":"m 135 0 l 135 972 l 704 972 l 704 861 l 257 861 l 257 553 l 619 553 l 619 444 l 257 444 l 257 111 l 704 111 l 704 0 l 135 0 m 199 1063 l 388 1278 l 457 1278 l 644 1063 l 531 1063 l 422 1189 l 314 1063 l 199 1063 m 603 1199 l 719 1414 l 872 1414 l 703 1199 l 603 1199 z "},"Ệ":{"ha":783,"x_min":135,"x_max":704,"o":"m 135 0 l 135 972 l 704 972 l 704 861 l 257 861 l 257 553 l 619 553 l 619 444 l 257 444 l 257 111 l 704 111 l 704 0 l 135 0 m 419 -242 q 366 -219 389 -242 q 343 -165 343 -196 q 366 -111 343 -133 q 419 -89 389 -89 q 473 -111 451 -89 q 494 -165 494 -133 q 473 -219 494 -196 q 419 -242 451 -242 m 199 1063 l 388 1278 l 457 1278 l 644 1063 l 531 1063 l 422 1189 l 314 1063 l 199 1063 z "},"Ề":{"ha":783,"x_min":135,"x_max":779,"o":"m 135 0 l 135 972 l 704 972 l 704 861 l 257 861 l 257 553 l 619 553 l 619 444 l 257 444 l 257 111 l 704 111 l 704 0 l 135 0 m 199 1063 l 388 1278 l 457 1278 l 644 1063 l 531 1063 l 422 1189 l 314 1063 l 199 1063 m 679 1200 l 510 1415 l 663 1415 l 779 1200 l 679 1200 z "},"Ể":{"ha":783,"x_min":135,"x_max":788,"o":"m 135 0 l 135 972 l 704 972 l 704 861 l 257 861 l 257 553 l 619 553 l 619 444 l 257 444 l 257 111 l 704 111 l 704 0 l 135 0 m 199 1063 l 388 1278 l 457 1278 l 644 1063 l 531 1063 l 422 1189 l 314 1063 l 199 1063 m 588 1260 l 588 1354 q 667 1367 633 1354 q 701 1414 701 1381 q 663 1454 701 1442 q 579 1463 625 1467 l 579 1538 q 682 1531 635 1542 q 758 1492 729 1521 q 788 1414 788 1464 q 754 1336 788 1367 q 676 1300 721 1306 l 676 1260 l 588 1260 z "},"Ễ":{"ha":783,"x_min":135,"x_max":704,"o":"m 135 0 l 135 972 l 704 972 l 704 861 l 257 861 l 257 553 l 619 553 l 619 444 l 257 444 l 257 111 l 704 111 l 704 0 l 135 0 m 199 1063 l 388 1278 l 457 1278 l 644 1063 l 531 1063 l 422 1189 l 314 1063 l 199 1063 m 524 1339 q 460 1359 494 1339 q 392 1399 425 1379 q 336 1419 360 1419 q 277 1397 297 1419 q 246 1358 257 1374 l 193 1421 q 244 1484 208 1451 q 336 1517 281 1517 q 401 1497 367 1517 q 467 1456 435 1476 q 524 1436 500 1436 q 583 1459 564 1436 q 614 1497 603 1482 l 667 1435 q 617 1372 653 1404 q 524 1339 581 1339 z "},"Ė":{"ha":783,"x_min":135,"x_max":704,"o":"m 135 0 l 135 972 l 704 972 l 704 861 l 257 861 l 257 553 l 619 553 l 619 444 l 257 444 l 257 111 l 704 111 l 704 0 l 135 0 m 419 1096 q 366 1119 389 1096 q 343 1172 343 1142 q 366 1226 343 1204 q 419 1249 389 1249 q 473 1226 451 1249 q 494 1172 494 1204 q 473 1119 494 1142 q 419 1096 451 1096 z "},"Ẹ":{"ha":783,"x_min":135,"x_max":704,"o":"m 135 0 l 135 972 l 704 972 l 704 861 l 257 861 l 257 553 l 619 553 l 619 444 l 257 444 l 257 111 l 704 111 l 704 0 l 135 0 m 419 -242 q 366 -219 389 -242 q 343 -165 343 -196 q 366 -111 343 -133 q 419 -89 389 -89 q 473 -111 451 -89 q 494 -165 494 -133 q 473 -219 494 -196 q 419 -242 451 -242 z "},"Ẻ":{"ha":783,"x_min":135,"x_max":704,"o":"m 135 0 l 135 972 l 704 972 l 704 861 l 257 861 l 257 553 l 619 553 l 619 444 l 257 444 l 257 111 l 704 111 l 704 0 l 135 0 m 381 1079 l 381 1174 q 460 1187 426 1174 q 494 1233 494 1200 q 456 1274 494 1261 q 372 1282 418 1286 l 372 1357 q 475 1351 428 1361 q 551 1312 522 1340 q 581 1233 581 1283 q 547 1156 581 1186 q 469 1119 514 1125 l 469 1079 l 381 1079 z "},"Ē":{"ha":783,"x_min":135,"x_max":704,"o":"m 135 0 l 135 972 l 704 972 l 704 861 l 257 861 l 257 553 l 619 553 l 619 444 l 257 444 l 257 111 l 704 111 l 704 0 l 135 0 m 213 1121 l 213 1224 l 628 1224 l 628 1121 l 213 1121 z "},"Ę":{"ha":783,"x_min":135,"x_max":746,"o":"m 135 0 l 135 972 l 704 972 l 704 861 l 257 861 l 257 553 l 619 553 l 619 444 l 257 444 l 257 111 l 704 111 l 704 0 l 135 0 m 660 -319 q 577 -297 611 -319 q 526 -237 543 -274 q 508 -161 508 -200 q 523 -92 508 -126 q 556 -33 538 -58 q 589 0 575 -8 l 704 0 q 639 -65 664 -25 q 614 -140 614 -106 q 635 -197 614 -179 q 687 -215 656 -215 q 746 -201 718 -215 l 746 -299 q 701 -315 728 -310 q 660 -319 674 -319 z "},"Ẽ":{"ha":783,"x_min":135,"x_max":704,"o":"m 135 0 l 135 972 l 704 972 l 704 861 l 257 861 l 257 553 l 619 553 l 619 444 l 257 444 l 257 111 l 704 111 l 704 0 l 135 0 m 515 1086 q 451 1106 486 1086 q 384 1147 417 1126 q 328 1167 351 1167 q 269 1144 289 1167 q 238 1106 249 1121 l 185 1168 q 236 1231 200 1199 q 328 1264 272 1264 q 392 1244 358 1264 q 459 1203 426 1224 q 515 1183 492 1183 q 575 1206 556 1183 q 606 1244 594 1229 l 658 1182 q 608 1119 644 1151 q 515 1086 572 1086 z "},"Ğ":{"ha":1004,"x_min":76,"x_max":913,"o":"m 519 -17 q 317 24 401 -17 q 180 136 233 65 q 101 299 126 207 q 76 493 76 390 q 101 683 76 593 q 177 842 125 774 q 310 951 229 911 q 506 990 392 990 q 699 953 617 990 q 835 849 782 915 q 907 697 888 783 l 783 672 q 688 821 760 763 q 506 879 615 879 q 338 828 406 879 q 236 691 271 778 q 201 496 201 604 q 235 292 201 383 q 335 147 268 200 q 501 93 401 93 q 640 132 575 93 q 747 239 706 171 q 789 394 789 307 l 569 394 l 569 511 l 913 511 l 913 0 l 817 0 l 799 149 q 682 26 757 68 q 519 -17 607 -17 m 503 1068 q 390 1099 438 1068 q 319 1178 343 1129 q 294 1283 294 1228 l 394 1283 q 423 1201 394 1238 q 503 1165 451 1165 q 584 1201 556 1165 q 613 1283 613 1238 l 713 1283 q 688 1178 713 1228 q 617 1099 664 1129 q 503 1068 569 1068 z "},"Ģ":{"ha":1004,"x_min":76,"x_max":913,"o":"m 519 -17 q 317 24 401 -17 q 180 136 233 65 q 101 299 126 207 q 76 493 76 390 q 101 683 76 593 q 177 842 125 774 q 310 951 229 911 q 506 990 392 990 q 699 953 617 990 q 835 849 782 915 q 907 697 888 783 l 783 672 q 688 821 760 763 q 506 879 615 879 q 338 828 406 879 q 236 691 271 778 q 201 496 201 604 q 235 292 201 383 q 335 147 268 200 q 501 93 401 93 q 640 132 575 93 q 747 239 706 171 q 789 394 789 307 l 569 394 l 569 511 l 913 511 l 913 0 l 817 0 l 799 149 q 682 26 757 68 q 519 -17 607 -17 m 411 -394 q 411 -385 411 -394 q 411 -366 411 -375 q 411 -357 411 -357 q 432 -349 411 -357 q 474 -321 453 -342 q 494 -260 494 -300 q 489 -261 493 -261 q 483 -261 485 -261 q 433 -238 456 -261 q 411 -189 411 -215 q 433 -135 411 -160 q 485 -110 454 -110 q 549 -138 524 -110 q 575 -207 575 -167 q 529 -342 575 -290 q 411 -394 483 -394 z "},"Ġ":{"ha":1004,"x_min":76,"x_max":913,"o":"m 519 -17 q 317 24 401 -17 q 180 136 233 65 q 101 299 126 207 q 76 493 76 390 q 101 683 76 593 q 177 842 125 774 q 310 951 229 911 q 506 990 392 990 q 699 953 617 990 q 835 849 782 915 q 907 697 888 783 l 783 672 q 688 821 760 763 q 506 879 615 879 q 338 828 406 879 q 236 691 271 778 q 201 496 201 604 q 235 292 201 383 q 335 147 268 200 q 501 93 401 93 q 640 132 575 93 q 747 239 706 171 q 789 394 789 307 l 569 394 l 569 511 l 913 511 l 913 0 l 817 0 l 799 149 q 682 26 757 68 q 519 -17 607 -17 m 504 1101 q 451 1124 474 1101 q 428 1178 428 1147 q 451 1232 428 1210 q 504 1254 474 1254 q 558 1232 536 1254 q 579 1178 579 1210 q 558 1124 579 1147 q 504 1101 536 1101 z "},"Ḡ":{"ha":1004,"x_min":76,"x_max":913,"o":"m 519 -17 q 317 24 401 -17 q 180 136 233 65 q 101 299 126 207 q 76 493 76 390 q 101 683 76 593 q 177 842 125 774 q 310 951 229 911 q 506 990 392 990 q 699 953 617 990 q 835 849 782 915 q 907 697 888 783 l 783 672 q 688 821 760 763 q 506 879 615 879 q 338 828 406 879 q 236 691 271 778 q 201 496 201 604 q 235 292 201 383 q 335 147 268 200 q 501 93 401 93 q 640 132 575 93 q 747 239 706 171 q 789 394 789 307 l 569 394 l 569 511 l 913 511 l 913 0 l 817 0 l 799 149 q 682 26 757 68 q 519 -17 607 -17 m 297 1126 l 297 1229 l 713 1229 l 713 1126 l 297 1126 z "},"Ħ":{"ha":972,"x_min":61,"x_max":915,"o":"m 135 0 l 135 683 l 61 683 l 61 781 l 135 781 l 135 972 l 257 972 l 257 781 l 721 781 l 721 972 l 843 972 l 843 781 l 915 781 l 915 683 l 843 683 l 843 0 l 721 0 l 721 450 l 257 450 l 257 0 l 135 0 m 257 561 l 721 561 l 721 683 l 257 683 l 257 561 z "},"Ĳ":{"ha":1349,"x_min":104,"x_max":1235,"o":"m 104 0 l 104 103 l 269 103 l 269 867 l 104 867 l 104 972 l 557 972 l 557 867 l 392 867 l 392 106 l 557 106 l 557 0 l 104 0 m 954 -17 q 765 51 836 -17 q 675 240 694 118 l 792 278 q 844 147 807 194 q 949 100 881 100 q 1078 161 1043 100 q 1113 333 1113 222 l 1113 972 l 1235 972 l 1235 335 q 1171 70 1235 157 q 954 -17 1107 -17 z "},"İ":{"ha":661,"x_min":104,"x_max":557,"o":"m 104 0 l 104 103 l 269 103 l 269 867 l 104 867 l 104 972 l 557 972 l 557 867 l 392 867 l 392 106 l 557 106 l 557 0 l 104 0 m 331 1085 q 277 1108 300 1085 q 254 1161 254 1131 q 277 1215 254 1193 q 331 1238 300 1238 q 384 1215 363 1238 q 406 1161 406 1193 q 384 1108 406 1131 q 331 1085 363 1085 z "},"Ị":{"ha":661,"x_min":104,"x_max":557,"o":"m 104 0 l 104 103 l 269 103 l 269 867 l 104 867 l 104 972 l 557 972 l 557 867 l 392 867 l 392 106 l 557 106 l 557 0 l 104 0 m 331 -242 q 277 -219 300 -242 q 254 -165 254 -196 q 277 -111 254 -133 q 331 -89 300 -89 q 384 -111 363 -89 q 406 -165 406 -133 q 384 -219 406 -196 q 331 -242 363 -242 z "},"Ỉ":{"ha":661,"x_min":104,"x_max":557,"o":"m 104 0 l 104 103 l 269 103 l 269 867 l 104 867 l 104 972 l 557 972 l 557 867 l 392 867 l 392 106 l 557 106 l 557 0 l 104 0 m 292 1068 l 292 1163 q 372 1176 338 1163 q 406 1222 406 1189 q 367 1263 406 1250 q 283 1271 329 1275 l 283 1346 q 386 1340 339 1350 q 463 1301 433 1329 q 492 1222 492 1272 q 458 1144 492 1175 q 381 1108 425 1114 l 381 1068 l 292 1068 z "},"Ī":{"ha":661,"x_min":104,"x_max":557,"o":"m 104 0 l 104 103 l 269 103 l 269 867 l 104 867 l 104 972 l 557 972 l 557 867 l 392 867 l 392 106 l 557 106 l 557 0 l 104 0 m 124 1110 l 124 1213 l 539 1213 l 539 1110 l 124 1110 z "},"Į":{"ha":661,"x_min":104,"x_max":557,"o":"m 104 0 l 104 103 l 269 103 l 269 867 l 104 867 l 104 972 l 557 972 l 557 867 l 392 867 l 392 106 l 557 106 l 557 0 l 104 0 m 351 -319 q 269 -297 303 -319 q 217 -237 235 -274 q 200 -161 200 -200 q 215 -92 200 -126 q 248 -33 229 -58 q 281 0 267 -8 l 396 0 q 331 -65 356 -25 q 306 -140 306 -106 q 326 -197 306 -179 q 378 -215 347 -215 q 438 -201 410 -215 l 438 -299 q 392 -315 419 -310 q 351 -319 365 -319 z "},"Ĩ":{"ha":661,"x_min":96,"x_max":569,"o":"m 104 0 l 104 103 l 269 103 l 269 867 l 104 867 l 104 972 l 557 972 l 557 867 l 392 867 l 392 106 l 557 106 l 557 0 l 104 0 m 426 1075 q 363 1095 397 1075 q 295 1135 328 1115 q 239 1156 263 1156 q 180 1133 200 1156 q 149 1094 160 1110 l 96 1157 q 147 1220 111 1188 q 239 1253 183 1253 q 303 1233 269 1253 q 370 1192 338 1213 q 426 1172 403 1172 q 486 1195 467 1172 q 517 1233 506 1218 l 569 1171 q 519 1108 556 1140 q 426 1075 483 1075 z "},"Ķ":{"ha":854,"x_min":132,"x_max":833,"o":"m 132 0 l 132 972 l 254 972 l 254 501 l 660 972 l 808 972 l 461 561 l 833 0 l 678 0 l 376 476 l 254 336 l 254 0 l 132 0 m 344 -394 q 344 -385 344 -394 q 344 -366 344 -375 q 344 -357 344 -357 q 365 -349 344 -357 q 407 -321 386 -342 q 428 -260 428 -300 q 422 -261 426 -261 q 417 -261 418 -261 q 367 -238 389 -261 q 344 -189 344 -215 q 366 -135 344 -160 q 418 -110 388 -110 q 483 -138 457 -110 q 508 -207 508 -167 q 463 -342 508 -290 q 344 -394 417 -394 z "},"Ĺ":{"ha":728,"x_min":132,"x_max":703,"o":"m 132 0 l 132 972 l 254 972 l 254 111 l 703 111 l 703 0 l 132 0 m 149 1051 l 265 1267 l 418 1267 l 249 1051 l 149 1051 z "},"Ľ":{"ha":728,"x_min":132,"x_max":703,"o":"m 132 0 l 132 972 l 254 972 l 254 111 l 703 111 l 703 0 l 132 0 m 383 735 l 425 989 l 574 989 l 479 735 l 383 735 z "},"Ļ":{"ha":728,"x_min":132,"x_max":703,"o":"m 132 0 l 132 972 l 254 972 l 254 111 l 703 111 l 703 0 l 132 0 m 344 -394 q 344 -385 344 -394 q 344 -366 344 -375 q 344 -357 344 -357 q 365 -349 344 -357 q 407 -321 386 -342 q 428 -260 428 -300 q 422 -261 426 -261 q 417 -261 418 -261 q 367 -238 389 -261 q 344 -189 344 -215 q 366 -135 344 -160 q 418 -110 388 -110 q 483 -138 457 -110 q 508 -207 508 -167 q 463 -342 508 -290 q 344 -394 417 -394 z "},"Ḷ":{"ha":728,"x_min":132,"x_max":703,"o":"m 132 0 l 132 972 l 254 972 l 254 111 l 703 111 l 703 0 l 132 0 m 410 -242 q 356 -219 379 -242 q 333 -165 333 -196 q 356 -111 333 -133 q 410 -89 379 -89 q 463 -111 442 -89 q 485 -165 485 -133 q 463 -219 485 -196 q 410 -242 442 -242 z "},"Ḻ":{"ha":728,"x_min":132,"x_max":703,"o":"m 132 0 l 132 972 l 254 972 l 254 111 l 703 111 l 703 0 l 132 0 m 175 -221 l 175 -118 l 646 -118 l 646 -221 l 175 -221 z "},"Ł":{"ha":728,"x_min":-21,"x_max":703,"o":"m 132 0 l 132 375 l 26 318 l -21 408 l 132 489 l 132 972 l 254 972 l 254 554 l 418 642 l 467 553 l 254 439 l 254 111 l 703 111 l 703 0 l 132 0 z "},"Ń":{"ha":990,"x_min":132,"x_max":858,"o":"m 132 0 l 132 972 l 310 972 l 736 175 l 736 972 l 858 972 l 858 0 l 699 0 l 254 803 l 254 0 l 132 0 m 460 1051 l 576 1267 l 729 1267 l 560 1051 l 460 1051 z "},"Ň":{"ha":990,"x_min":132,"x_max":858,"o":"m 132 0 l 132 972 l 310 972 l 736 175 l 736 972 l 858 972 l 858 0 l 699 0 l 254 803 l 254 0 l 132 0 m 469 1051 l 281 1267 l 396 1267 l 504 1140 l 613 1267 l 726 1267 l 539 1051 l 469 1051 z "},"Ņ":{"ha":990,"x_min":132,"x_max":858,"o":"m 132 0 l 132 972 l 310 972 l 736 175 l 736 972 l 858 972 l 858 0 l 699 0 l 254 803 l 254 0 l 132 0 m 429 -378 q 429 -368 429 -378 q 429 -349 429 -358 q 429 -340 429 -340 q 450 -333 429 -340 q 492 -304 471 -325 q 513 -243 513 -283 q 507 -244 511 -244 q 501 -244 503 -244 q 451 -222 474 -244 q 429 -172 429 -199 q 451 -118 429 -143 q 503 -93 472 -93 q 567 -122 542 -93 q 593 -190 593 -150 q 547 -326 593 -274 q 429 -378 501 -378 z "},"Ṇ":{"ha":990,"x_min":132,"x_max":858,"o":"m 132 0 l 132 972 l 310 972 l 736 175 l 736 972 l 858 972 l 858 0 l 699 0 l 254 803 l 254 0 l 132 0 m 510 -242 q 456 -219 479 -242 q 433 -165 433 -196 q 456 -111 433 -133 q 510 -89 479 -89 q 563 -111 542 -89 q 585 -165 585 -133 q 563 -219 585 -196 q 510 -242 542 -242 z "},"Ṉ":{"ha":990,"x_min":132,"x_max":858,"o":"m 132 0 l 132 972 l 310 972 l 736 175 l 736 972 l 858 972 l 858 0 l 699 0 l 254 803 l 254 0 l 132 0 m 274 -204 l 274 -101 l 744 -101 l 744 -204 l 274 -204 z "},"Ŋ":{"ha":990,"x_min":132,"x_max":858,"o":"m 642 -261 q 603 -258 625 -261 q 564 -250 582 -256 l 564 -156 q 598 -160 581 -158 q 629 -161 615 -161 q 708 -138 681 -161 q 736 -60 736 -115 l 736 36 l 254 803 l 254 0 l 132 0 l 132 972 l 310 972 l 736 268 l 736 972 l 858 972 l 858 -61 q 807 -210 858 -158 q 642 -261 756 -261 z "},"Ố":{"ha":1033,"x_min":76,"x_max":969,"o":"m 517 -15 q 317 25 400 -15 q 180 135 233 65 q 101 297 126 206 q 76 488 76 388 q 101 678 76 588 q 180 840 126 769 q 317 950 233 910 q 517 990 400 990 q 717 950 633 990 q 853 840 800 910 q 932 678 907 769 q 957 488 957 588 q 932 297 957 388 q 853 135 907 206 q 717 25 800 65 q 517 -15 633 -15 m 517 96 q 695 149 626 96 q 797 291 764 201 q 829 488 829 381 q 797 685 829 596 q 695 826 764 774 q 517 879 626 879 q 345 826 415 879 q 240 685 275 774 q 204 488 204 596 q 240 291 204 381 q 345 149 275 201 q 517 96 415 96 m 296 1064 l 485 1279 l 554 1279 l 742 1064 l 628 1064 l 519 1190 l 411 1064 l 296 1064 m 700 1200 l 817 1415 l 969 1415 l 800 1200 l 700 1200 z "},"Ộ":{"ha":1033,"x_min":76,"x_max":957,"o":"m 517 -15 q 317 25 400 -15 q 180 135 233 65 q 101 297 126 206 q 76 488 76 388 q 101 678 76 588 q 180 840 126 769 q 317 950 233 910 q 517 990 400 990 q 717 950 633 990 q 853 840 800 910 q 932 678 907 769 q 957 488 957 588 q 932 297 957 388 q 853 135 907 206 q 717 25 800 65 q 517 -15 633 -15 m 517 96 q 695 149 626 96 q 797 291 764 201 q 829 488 829 381 q 797 685 829 596 q 695 826 764 774 q 517 879 626 879 q 345 826 415 879 q 240 685 275 774 q 204 488 204 596 q 240 291 204 381 q 345 149 275 201 q 517 96 415 96 m 518 -242 q 465 -219 488 -242 q 442 -165 442 -196 q 465 -111 442 -133 q 518 -89 488 -89 q 572 -111 550 -89 q 593 -165 593 -133 q 572 -219 593 -196 q 518 -242 550 -242 m 296 1064 l 485 1279 l 554 1279 l 742 1064 l 628 1064 l 519 1190 l 411 1064 l 296 1064 z "},"Ồ":{"ha":1033,"x_min":76,"x_max":957,"o":"m 517 -15 q 317 25 400 -15 q 180 135 233 65 q 101 297 126 206 q 76 488 76 388 q 101 678 76 588 q 180 840 126 769 q 317 950 233 910 q 517 990 400 990 q 717 950 633 990 q 853 840 800 910 q 932 678 907 769 q 957 488 957 588 q 932 297 957 388 q 853 135 907 206 q 717 25 800 65 q 517 -15 633 -15 m 517 96 q 695 149 626 96 q 797 291 764 201 q 829 488 829 381 q 797 685 829 596 q 695 826 764 774 q 517 879 626 879 q 345 826 415 879 q 240 685 275 774 q 204 488 204 596 q 240 291 204 381 q 345 149 275 201 q 517 96 415 96 m 296 1064 l 485 1279 l 554 1279 l 742 1064 l 628 1064 l 519 1190 l 411 1064 l 296 1064 m 776 1201 l 607 1417 l 760 1417 l 876 1201 l 776 1201 z "},"Ổ":{"ha":1033,"x_min":76,"x_max":957,"o":"m 517 -15 q 317 25 400 -15 q 180 135 233 65 q 101 297 126 206 q 76 488 76 388 q 101 678 76 588 q 180 840 126 769 q 317 950 233 910 q 517 990 400 990 q 717 950 633 990 q 853 840 800 910 q 932 678 907 769 q 957 488 957 588 q 932 297 957 388 q 853 135 907 206 q 717 25 800 65 q 517 -15 633 -15 m 517 96 q 695 149 626 96 q 797 291 764 201 q 829 488 829 381 q 797 685 829 596 q 695 826 764 774 q 517 879 626 879 q 345 826 415 879 q 240 685 275 774 q 204 488 204 596 q 240 291 204 381 q 345 149 275 201 q 517 96 415 96 m 296 1064 l 485 1279 l 554 1279 l 742 1064 l 628 1064 l 519 1190 l 411 1064 l 296 1064 m 685 1261 l 685 1356 q 765 1369 731 1356 q 799 1415 799 1382 q 760 1456 799 1443 q 676 1464 722 1468 l 676 1539 q 779 1533 732 1543 q 856 1494 826 1522 q 885 1415 885 1465 q 851 1338 885 1368 q 774 1301 818 1307 l 774 1261 l 685 1261 z "},"Ỗ":{"ha":1033,"x_min":76,"x_max":957,"o":"m 517 -15 q 317 25 400 -15 q 180 135 233 65 q 101 297 126 206 q 76 488 76 388 q 101 678 76 588 q 180 840 126 769 q 317 950 233 910 q 517 990 400 990 q 717 950 633 990 q 853 840 800 910 q 932 678 907 769 q 957 488 957 588 q 932 297 957 388 q 853 135 907 206 q 717 25 800 65 q 517 -15 633 -15 m 517 96 q 695 149 626 96 q 797 291 764 201 q 829 488 829 381 q 797 685 829 596 q 695 826 764 774 q 517 879 626 879 q 345 826 415 879 q 240 685 275 774 q 204 488 204 596 q 240 291 204 381 q 345 149 275 201 q 517 96 415 96 m 296 1064 l 485 1279 l 554 1279 l 742 1064 l 628 1064 l 519 1190 l 411 1064 l 296 1064 m 621 1340 q 557 1360 592 1340 q 490 1401 522 1381 q 433 1421 457 1421 q 374 1398 394 1421 q 343 1360 354 1375 l 290 1422 q 342 1485 306 1453 q 433 1518 378 1518 q 498 1498 464 1518 q 565 1458 532 1478 q 621 1438 597 1438 q 681 1460 661 1438 q 711 1499 700 1483 l 764 1436 q 714 1373 750 1406 q 621 1340 678 1340 z "},"Ọ":{"ha":1033,"x_min":76,"x_max":957,"o":"m 517 -15 q 317 25 400 -15 q 180 135 233 65 q 101 297 126 206 q 76 488 76 388 q 101 678 76 588 q 180 840 126 769 q 317 950 233 910 q 517 990 400 990 q 717 950 633 990 q 853 840 800 910 q 932 678 907 769 q 957 488 957 588 q 932 297 957 388 q 853 135 907 206 q 717 25 800 65 q 517 -15 633 -15 m 517 96 q 695 149 626 96 q 797 291 764 201 q 829 488 829 381 q 797 685 829 596 q 695 826 764 774 q 517 879 626 879 q 345 826 415 879 q 240 685 275 774 q 204 488 204 596 q 240 291 204 381 q 345 149 275 201 q 517 96 415 96 m 518 -242 q 465 -219 488 -242 q 442 -165 442 -196 q 465 -111 442 -133 q 518 -89 488 -89 q 572 -111 550 -89 q 593 -165 593 -133 q 572 -219 593 -196 q 518 -242 550 -242 z "},"Ỏ":{"ha":1033,"x_min":76,"x_max":957,"o":"m 517 -15 q 317 25 400 -15 q 180 135 233 65 q 101 297 126 206 q 76 488 76 388 q 101 678 76 588 q 180 840 126 769 q 317 950 233 910 q 517 990 400 990 q 717 950 633 990 q 853 840 800 910 q 932 678 907 769 q 957 488 957 588 q 932 297 957 388 q 853 135 907 206 q 717 25 800 65 q 517 -15 633 -15 m 517 96 q 695 149 626 96 q 797 291 764 201 q 829 488 829 381 q 797 685 829 596 q 695 826 764 774 q 517 879 626 879 q 345 826 415 879 q 240 685 275 774 q 204 488 204 596 q 240 291 204 381 q 345 149 275 201 q 517 96 415 96 m 478 1081 l 478 1175 q 558 1188 524 1175 q 592 1235 592 1201 q 553 1275 592 1263 q 469 1283 515 1288 l 469 1358 q 572 1352 525 1363 q 649 1313 619 1342 q 678 1235 678 1285 q 644 1157 678 1188 q 567 1121 611 1126 l 567 1081 l 478 1081 z "},"Ơ":{"ha":833,"x_min":-22,"x_max":874,"o":"m 418 -15 q 218 25 301 -15 q 81 135 135 65 q 3 297 28 206 q -22 488 -22 388 q 3 678 -22 588 q 81 840 28 769 q 218 950 135 910 q 418 990 301 990 q 426 990 422 990 l 426 990 q 511 988 479 990 q 574 983 543 985 q 654 982 604 981 q 728 1009 708 983 q 749 1070 749 1035 q 740 1136 749 1106 l 861 1144 q 872 1071 871 1113 q 859 990 874 1029 q 808 922 844 950 q 707 890 772 894 q 822 715 786 821 q 858 488 858 608 q 833 297 858 388 q 755 135 808 206 q 618 25 701 65 q 418 -15 535 -15 m 418 96 q 597 149 528 96 q 698 291 665 201 q 731 488 731 381 q 698 685 731 596 q 597 826 665 774 q 418 879 528 879 q 247 826 317 879 q 141 685 176 774 q 106 488 106 596 q 141 291 106 381 q 247 149 176 201 q 418 96 317 96 z "},"Ớ":{"ha":833,"x_min":-22,"x_max":874,"o":"m 418 -15 q 218 25 301 -15 q 81 135 135 65 q 3 297 28 206 q -22 488 -22 388 q 3 678 -22 588 q 81 840 28 769 q 218 950 135 910 q 418 990 301 990 q 426 990 422 990 l 426 990 q 511 988 479 990 q 574 983 543 985 q 654 982 604 981 q 728 1009 708 983 q 749 1070 749 1035 q 740 1136 749 1106 l 861 1144 q 872 1071 871 1113 q 859 990 874 1029 q 808 922 844 950 q 707 890 772 894 q 822 715 786 821 q 858 488 858 608 q 833 297 858 388 q 755 135 808 206 q 618 25 701 65 q 418 -15 535 -15 m 418 96 q 597 149 528 96 q 698 291 665 201 q 731 488 731 381 q 698 685 731 596 q 597 826 665 774 q 418 879 528 879 q 247 826 317 879 q 141 685 176 774 q 106 488 106 596 q 141 291 106 381 q 247 149 176 201 q 418 96 317 96 m 374 1064 l 490 1279 l 643 1279 l 474 1064 l 374 1064 z "},"Ợ":{"ha":833,"x_min":-22,"x_max":874,"o":"m 418 -15 q 218 25 301 -15 q 81 135 135 65 q 3 297 28 206 q -22 488 -22 388 q 3 678 -22 588 q 81 840 28 769 q 218 950 135 910 q 418 990 301 990 q 426 990 422 990 l 426 990 q 511 988 479 990 q 574 983 543 985 q 654 982 604 981 q 728 1009 708 983 q 749 1070 749 1035 q 740 1136 749 1106 l 861 1144 q 872 1071 871 1113 q 859 990 874 1029 q 808 922 844 950 q 707 890 772 894 q 822 715 786 821 q 858 488 858 608 q 833 297 858 388 q 755 135 808 206 q 618 25 701 65 q 418 -15 535 -15 m 418 96 q 597 149 528 96 q 698 291 665 201 q 731 488 731 381 q 698 685 731 596 q 597 826 665 774 q 418 879 528 879 q 247 826 317 879 q 141 685 176 774 q 106 488 106 596 q 141 291 106 381 q 247 149 176 201 q 418 96 317 96 m 421 -242 q 367 -219 390 -242 q 344 -165 344 -196 q 367 -111 344 -133 q 421 -89 390 -89 q 474 -111 453 -89 q 496 -165 496 -133 q 474 -219 496 -196 q 421 -242 453 -242 z "},"Ờ":{"ha":833,"x_min":-22,"x_max":874,"o":"m 418 -15 q 218 25 301 -15 q 81 135 135 65 q 3 297 28 206 q -22 488 -22 388 q 3 678 -22 588 q 81 840 28 769 q 218 950 135 910 q 418 990 301 990 q 426 990 422 990 l 426 990 q 511 988 479 990 q 574 983 543 985 q 654 982 604 981 q 728 1009 708 983 q 749 1070 749 1035 q 740 1136 749 1106 l 861 1144 q 872 1071 871 1113 q 859 990 874 1029 q 808 922 844 950 q 707 890 772 894 q 822 715 786 821 q 858 488 858 608 q 833 297 858 388 q 755 135 808 206 q 618 25 701 65 q 418 -15 535 -15 m 418 96 q 597 149 528 96 q 698 291 665 201 q 731 488 731 381 q 698 685 731 596 q 597 826 665 774 q 418 879 528 879 q 247 826 317 879 q 141 685 176 774 q 106 488 106 596 q 141 291 106 381 q 247 149 176 201 q 418 96 317 96 m 369 1064 l 200 1279 l 353 1279 l 469 1064 l 369 1064 z "},"Ở":{"ha":833,"x_min":-22,"x_max":874,"o":"m 418 -15 q 218 25 301 -15 q 81 135 135 65 q 3 297 28 206 q -22 488 -22 388 q 3 678 -22 588 q 81 840 28 769 q 218 950 135 910 q 418 990 301 990 q 426 990 422 990 l 426 990 q 511 988 479 990 q 574 983 543 985 q 654 982 604 981 q 728 1009 708 983 q 749 1070 749 1035 q 740 1136 749 1106 l 861 1144 q 872 1071 871 1113 q 859 990 874 1029 q 808 922 844 950 q 707 890 772 894 q 822 715 786 821 q 858 488 858 608 q 833 297 858 388 q 755 135 808 206 q 618 25 701 65 q 418 -15 535 -15 m 418 96 q 597 149 528 96 q 698 291 665 201 q 731 488 731 381 q 698 685 731 596 q 597 826 665 774 q 418 879 528 879 q 247 826 317 879 q 141 685 176 774 q 106 488 106 596 q 141 291 106 381 q 247 149 176 201 q 418 96 317 96 m 379 1081 l 379 1175 q 459 1188 425 1175 q 493 1235 493 1201 q 455 1275 493 1263 q 371 1283 417 1288 l 371 1358 q 474 1352 426 1363 q 550 1313 521 1342 q 579 1235 579 1285 q 546 1157 579 1188 q 468 1121 513 1126 l 468 1081 l 379 1081 z "},"Ỡ":{"ha":833,"x_min":-22,"x_max":874,"o":"m 418 -15 q 218 25 301 -15 q 81 135 135 65 q 3 297 28 206 q -22 488 -22 388 q 3 678 -22 588 q 81 840 28 769 q 218 950 135 910 q 418 990 301 990 q 426 990 422 990 l 426 990 q 511 988 479 990 q 574 983 543 985 q 654 982 604 981 q 728 1009 708 983 q 749 1070 749 1035 q 740 1136 749 1106 l 861 1144 q 872 1071 871 1113 q 859 990 874 1029 q 808 922 844 950 q 707 890 772 894 q 822 715 786 821 q 858 488 858 608 q 833 297 858 388 q 755 135 808 206 q 618 25 701 65 q 418 -15 535 -15 m 418 96 q 597 149 528 96 q 698 291 665 201 q 731 488 731 381 q 698 685 731 596 q 597 826 665 774 q 418 879 528 879 q 247 826 317 879 q 141 685 176 774 q 106 488 106 596 q 141 291 106 381 q 247 149 176 201 q 418 96 317 96 m 514 1088 q 450 1108 485 1088 q 383 1148 415 1128 q 326 1168 350 1168 q 267 1145 288 1168 q 236 1107 247 1122 l 183 1169 q 235 1233 199 1200 q 326 1265 271 1265 q 391 1245 357 1265 q 458 1205 425 1225 q 514 1185 490 1185 q 574 1208 554 1185 q 604 1246 593 1231 l 657 1183 q 607 1120 643 1153 q 514 1088 571 1088 z "},"Ő":{"ha":1033,"x_min":76,"x_max":957,"o":"m 517 -15 q 317 25 400 -15 q 180 135 233 65 q 101 297 126 206 q 76 488 76 388 q 101 678 76 588 q 180 840 126 769 q 317 950 233 910 q 517 990 400 990 q 717 950 633 990 q 853 840 800 910 q 932 678 907 769 q 957 488 957 588 q 932 297 957 388 q 853 135 907 206 q 717 25 800 65 q 517 -15 633 -15 m 517 96 q 695 149 626 96 q 797 291 764 201 q 829 488 829 381 q 797 685 829 596 q 695 826 764 774 q 517 879 626 879 q 345 826 415 879 q 240 685 275 774 q 204 488 204 596 q 240 291 204 381 q 345 149 275 201 q 517 96 415 96 m 586 1064 l 703 1279 l 869 1279 l 700 1064 l 586 1064 m 319 1064 l 436 1279 l 603 1279 l 433 1064 l 319 1064 z "},"Ō":{"ha":1033,"x_min":76,"x_max":957,"o":"m 517 -15 q 317 25 400 -15 q 180 135 233 65 q 101 297 126 206 q 76 488 76 388 q 101 678 76 588 q 180 840 126 769 q 317 950 233 910 q 517 990 400 990 q 717 950 633 990 q 853 840 800 910 q 932 678 907 769 q 957 488 957 588 q 932 297 957 388 q 853 135 907 206 q 717 25 800 65 q 517 -15 633 -15 m 517 96 q 695 149 626 96 q 797 291 764 201 q 829 488 829 381 q 797 685 829 596 q 695 826 764 774 q 517 879 626 879 q 345 826 415 879 q 240 685 275 774 q 204 488 204 596 q 240 291 204 381 q 345 149 275 201 q 517 96 415 96 m 310 1122 l 310 1225 l 725 1225 l 725 1122 l 310 1122 z "},"Œ":{"ha":1485,"x_min":76,"x_max":1404,"o":"m 510 -15 q 310 25 393 -15 q 176 135 228 65 q 101 297 125 206 q 76 488 76 388 q 101 678 76 588 q 179 840 126 769 q 314 950 232 910 q 510 990 396 990 q 690 958 614 990 q 818 869 765 925 l 818 972 l 1404 972 l 1404 861 l 940 861 l 940 556 l 940 556 l 1319 556 l 1319 444 l 942 444 q 940 419 942 432 l 940 111 l 1404 111 l 1404 0 l 818 0 l 818 106 q 690 17 765 50 q 510 -15 614 -15 m 510 96 q 686 149 619 96 q 784 291 753 201 q 815 488 815 381 q 784 685 815 596 q 686 826 753 774 q 510 879 619 879 q 340 826 408 879 q 238 685 272 774 q 204 488 204 596 q 238 291 204 381 q 340 149 272 201 q 510 96 408 96 z "},"Ŕ":{"ha":897,"x_min":132,"x_max":839,"o":"m 132 0 l 132 972 l 483 972 q 628 947 571 972 q 721 879 686 921 q 770 788 756 838 q 785 692 785 739 q 738 536 785 611 q 592 425 690 461 l 839 0 l 694 0 l 467 406 l 257 406 l 257 0 l 132 0 m 254 517 l 483 517 q 610 567 560 517 q 660 692 660 618 q 638 774 660 736 q 576 837 615 813 q 485 861 536 861 l 254 861 l 254 517 m 385 1063 l 501 1278 l 654 1278 l 485 1063 l 385 1063 z "},"Ř":{"ha":897,"x_min":132,"x_max":839,"o":"m 132 0 l 132 972 l 483 972 q 628 947 571 972 q 721 879 686 921 q 770 788 756 838 q 785 692 785 739 q 738 536 785 611 q 592 425 690 461 l 839 0 l 694 0 l 467 406 l 257 406 l 257 0 l 132 0 m 254 517 l 483 517 q 610 567 560 517 q 660 692 660 618 q 638 774 660 736 q 576 837 615 813 q 485 861 536 861 l 254 861 l 254 517 m 394 1063 l 206 1278 l 321 1278 l 429 1151 l 538 1278 l 651 1278 l 464 1063 l 394 1063 z "},"Ŗ":{"ha":897,"x_min":132,"x_max":839,"o":"m 132 0 l 132 972 l 483 972 q 628 947 571 972 q 721 879 686 921 q 770 788 756 838 q 785 692 785 739 q 738 536 785 611 q 592 425 690 461 l 839 0 l 694 0 l 467 406 l 257 406 l 257 0 l 132 0 m 254 517 l 483 517 q 610 567 560 517 q 660 692 660 618 q 638 774 660 736 q 576 837 615 813 q 485 861 536 861 l 254 861 l 254 517 m 344 -394 q 344 -385 344 -394 q 344 -366 344 -375 q 344 -357 344 -357 q 365 -349 344 -357 q 407 -321 386 -342 q 428 -260 428 -300 q 422 -261 426 -261 q 417 -261 418 -261 q 367 -238 389 -261 q 344 -189 344 -215 q 366 -135 344 -160 q 418 -110 388 -110 q 483 -138 457 -110 q 508 -207 508 -167 q 463 -342 508 -290 q 344 -394 417 -394 z "},"Ṟ":{"ha":897,"x_min":132,"x_max":839,"o":"m 132 0 l 132 972 l 483 972 q 628 947 571 972 q 721 879 686 921 q 770 788 756 838 q 785 692 785 739 q 738 536 785 611 q 592 425 690 461 l 839 0 l 694 0 l 467 406 l 257 406 l 257 0 l 132 0 m 254 517 l 483 517 q 610 567 560 517 q 660 692 660 618 q 638 774 660 736 q 576 837 615 813 q 485 861 536 861 l 254 861 l 254 517 m 239 -221 l 239 -118 l 710 -118 l 710 -221 l 239 -221 z "},"Ś":{"ha":863,"x_min":69,"x_max":783,"o":"m 439 -17 q 240 28 318 -17 q 120 146 161 74 q 69 297 79 218 l 204 297 q 281 153 219 208 q 439 94 342 97 q 551 115 500 94 q 632 172 601 135 q 661 258 663 208 q 631 347 661 315 q 551 397 600 379 q 442 428 501 415 q 322 458 382 442 q 213 504 263 475 q 133 584 164 533 q 103 717 103 635 q 138 850 103 788 q 247 951 174 913 q 435 989 321 989 q 576 964 514 989 q 681 898 638 939 q 748 808 725 857 q 774 713 771 760 l 644 713 q 613 792 638 754 q 541 853 588 829 q 425 878 494 878 q 328 860 374 878 q 253 807 282 842 q 225 724 225 772 q 256 636 225 668 q 335 586 286 604 q 444 554 385 568 q 564 524 504 540 q 673 478 624 507 q 753 399 722 449 q 783 271 783 350 q 739 112 783 176 q 617 15 694 47 q 439 -17 540 -17 m 392 1063 l 508 1278 l 661 1278 l 492 1063 l 392 1063 z "},"Š":{"ha":863,"x_min":69,"x_max":783,"o":"m 439 -17 q 240 28 318 -17 q 120 146 161 74 q 69 297 79 218 l 204 297 q 281 153 219 208 q 439 94 342 97 q 551 115 500 94 q 632 172 601 135 q 661 258 663 208 q 631 347 661 315 q 551 397 600 379 q 442 428 501 415 q 322 458 382 442 q 213 504 263 475 q 133 584 164 533 q 103 717 103 635 q 138 850 103 788 q 247 951 174 913 q 435 989 321 989 q 576 964 514 989 q 681 898 638 939 q 748 808 725 857 q 774 713 771 760 l 644 713 q 613 792 638 754 q 541 853 588 829 q 425 878 494 878 q 328 860 374 878 q 253 807 282 842 q 225 724 225 772 q 256 636 225 668 q 335 586 286 604 q 444 554 385 568 q 564 524 504 540 q 673 478 624 507 q 753 399 722 449 q 783 271 783 350 q 739 112 783 176 q 617 15 694 47 q 439 -17 540 -17 m 401 1063 l 213 1278 l 328 1278 l 436 1151 l 544 1278 l 658 1278 l 471 1063 l 401 1063 z "},"Ş":{"ha":863,"x_min":69,"x_max":783,"o":"m 439 -17 q 240 28 318 -17 q 120 146 161 74 q 69 297 79 218 l 204 297 q 281 153 219 208 q 439 94 342 97 q 551 115 500 94 q 632 172 601 135 q 661 258 663 208 q 631 347 661 315 q 551 397 600 379 q 442 428 501 415 q 322 458 382 442 q 213 504 263 475 q 133 584 164 533 q 103 717 103 635 q 138 850 103 788 q 247 951 174 913 q 435 989 321 989 q 576 964 514 989 q 681 898 638 939 q 748 808 725 857 q 774 713 771 760 l 644 713 q 613 792 638 754 q 541 853 588 829 q 425 878 494 878 q 328 860 374 878 q 253 807 282 842 q 225 724 225 772 q 256 636 225 668 q 335 586 286 604 q 444 554 385 568 q 564 524 504 540 q 673 478 624 507 q 753 399 722 449 q 783 271 783 350 q 739 112 783 176 q 617 15 694 47 q 439 -17 540 -17 m 454 -307 q 368 -287 407 -307 q 307 -237 329 -267 l 358 -176 q 392 -208 369 -190 q 446 -225 414 -225 q 511 -185 511 -225 q 454 -143 511 -143 q 422 -150 436 -143 q 403 -162 407 -157 l 343 -107 l 406 -8 l 492 -8 l 443 -83 q 510 -85 476 -74 q 566 -123 543 -96 q 589 -190 589 -150 q 549 -274 589 -242 q 454 -307 508 -307 z "},"Ș":{"ha":863,"x_min":69,"x_max":783,"o":"m 439 -17 q 240 28 318 -17 q 120 146 161 74 q 69 297 79 218 l 204 297 q 281 153 219 208 q 439 94 342 97 q 551 115 500 94 q 632 172 601 135 q 661 258 663 208 q 631 347 661 315 q 551 397 600 379 q 442 428 501 415 q 322 458 382 442 q 213 504 263 475 q 133 584 164 533 q 103 717 103 635 q 138 850 103 788 q 247 951 174 913 q 435 989 321 989 q 576 964 514 989 q 681 898 638 939 q 748 808 725 857 q 774 713 771 760 l 644 713 q 613 792 638 754 q 541 853 588 829 q 425 878 494 878 q 328 860 374 878 q 253 807 282 842 q 225 724 225 772 q 256 636 225 668 q 335 586 286 604 q 444 554 385 568 q 564 524 504 540 q 673 478 624 507 q 753 399 722 449 q 783 271 783 350 q 739 112 783 176 q 617 15 694 47 q 439 -17 540 -17 m 358 -394 q 358 -385 358 -394 q 358 -366 358 -375 q 358 -357 358 -357 q 379 -349 358 -357 q 421 -321 400 -342 q 442 -260 442 -300 q 436 -261 440 -261 q 431 -261 432 -261 q 381 -238 403 -261 q 358 -189 358 -215 q 380 -135 358 -160 q 432 -110 401 -110 q 497 -138 471 -110 q 522 -207 522 -167 q 476 -342 522 -290 q 358 -394 431 -394 z "},"ẞ":{"ha":947,"x_min":135,"x_max":872,"o":"m 563 -17 q 354 42 442 -17 l 419 136 q 564 94 478 94 q 662 119 619 94 q 728 188 704 144 q 753 282 753 231 q 722 366 753 332 q 645 417 690 400 q 558 435 600 435 l 428 435 l 428 531 l 638 822 q 585 860 628 843 q 478 876 543 876 q 366 844 417 876 q 286 742 315 811 q 257 565 257 674 l 257 0 l 135 0 l 135 578 q 222 882 135 775 q 479 989 308 989 q 620 968 554 989 q 733 912 686 947 q 796 833 779 876 l 574 531 q 728 497 661 531 q 834 405 796 463 q 872 276 872 347 q 828 120 872 186 q 713 19 783 54 q 563 -17 642 -17 z "},"Ť":{"ha":693,"x_min":21,"x_max":671,"o":"m 285 0 l 285 861 l 21 861 l 21 972 l 671 972 l 671 861 l 407 861 l 407 0 l 285 0 m 310 1051 l 121 1267 l 236 1267 l 344 1140 l 453 1267 l 567 1267 l 379 1051 l 310 1051 z "},"Ţ":{"ha":693,"x_min":21,"x_max":671,"o":"m 285 0 l 285 861 l 21 861 l 21 972 l 671 972 l 671 861 l 407 861 l 407 0 l 285 0 m 358 -290 q 272 -270 311 -290 q 211 -221 233 -250 l 263 -160 q 296 -191 274 -174 q 350 -208 318 -208 q 415 -168 415 -208 q 358 -126 415 -126 q 326 -133 340 -126 q 307 -146 311 -140 l 247 -90 l 310 8 l 396 8 l 347 -67 q 414 -68 381 -57 q 470 -106 447 -79 q 493 -174 493 -133 q 453 -258 493 -225 q 358 -290 413 -290 z "},"Ț":{"ha":693,"x_min":21,"x_max":671,"o":"m 285 0 l 285 861 l 21 861 l 21 972 l 671 972 l 671 861 l 407 861 l 407 0 l 285 0 m 263 -378 q 263 -368 263 -378 q 263 -349 263 -358 q 263 -340 263 -340 q 283 -333 263 -340 q 325 -304 304 -325 q 346 -243 346 -283 q 340 -244 344 -244 q 335 -244 336 -244 q 285 -222 307 -244 q 263 -172 263 -199 q 284 -118 263 -143 q 336 -93 306 -93 q 401 -122 375 -93 q 426 -190 426 -150 q 381 -326 426 -274 q 263 -378 335 -378 z "},"Ṭ":{"ha":693,"x_min":21,"x_max":671,"o":"m 285 0 l 285 861 l 21 861 l 21 972 l 671 972 l 671 861 l 407 861 l 407 0 l 285 0 m 343 -242 q 290 -219 313 -242 q 267 -165 267 -196 q 290 -111 267 -133 q 343 -89 313 -89 q 397 -111 375 -89 q 418 -165 418 -133 q 397 -219 418 -196 q 343 -242 375 -242 z "},"Ṯ":{"ha":693,"x_min":21,"x_max":671,"o":"m 285 0 l 285 861 l 21 861 l 21 972 l 671 972 l 671 861 l 407 861 l 407 0 l 285 0 m 107 -204 l 107 -101 l 578 -101 l 578 -204 l 107 -204 z "},"Ŭ":{"ha":936,"x_min":114,"x_max":822,"o":"m 474 -17 q 209 90 304 -17 q 114 382 114 197 l 114 974 l 236 974 l 236 382 q 301 171 236 240 q 468 101 367 101 q 585 132 533 101 q 669 225 638 163 q 700 382 700 288 l 700 974 l 822 974 l 822 382 q 735 90 822 197 q 474 -17 647 -17 m 472 1051 q 360 1082 407 1051 q 288 1162 313 1113 q 264 1267 264 1211 l 364 1267 q 392 1185 364 1221 q 472 1149 421 1149 q 553 1185 525 1149 q 582 1267 582 1221 l 682 1267 q 658 1162 682 1211 q 586 1082 633 1113 q 472 1051 539 1051 z "},"Ụ":{"ha":936,"x_min":114,"x_max":822,"o":"m 474 -17 q 209 90 304 -17 q 114 382 114 197 l 114 974 l 236 974 l 236 382 q 301 171 236 240 q 468 101 367 101 q 585 132 533 101 q 669 225 638 163 q 700 382 700 288 l 700 974 l 822 974 l 822 382 q 735 90 822 197 q 474 -17 647 -17 m 472 -242 q 419 -219 442 -242 q 396 -165 396 -196 q 419 -111 396 -133 q 472 -89 442 -89 q 526 -111 504 -89 q 547 -165 547 -133 q 526 -219 547 -196 q 472 -242 504 -242 z "},"Ủ":{"ha":936,"x_min":114,"x_max":822,"o":"m 474 -17 q 209 90 304 -17 q 114 382 114 197 l 114 974 l 236 974 l 236 382 q 301 171 236 240 q 468 101 367 101 q 585 132 533 101 q 669 225 638 163 q 700 382 700 288 l 700 974 l 822 974 l 822 382 q 735 90 822 197 q 474 -17 647 -17 m 435 1068 l 435 1163 q 515 1176 481 1163 q 549 1222 549 1189 q 510 1263 549 1250 q 426 1271 472 1275 l 426 1346 q 529 1340 482 1350 q 606 1301 576 1329 q 635 1222 635 1272 q 601 1144 635 1175 q 524 1108 568 1114 l 524 1068 l 435 1068 z "},"Ư":{"ha":936,"x_min":114,"x_max":1003,"o":"m 474 -18 q 209 89 304 -18 q 114 381 114 196 l 114 972 l 236 972 l 236 381 q 301 169 236 239 q 468 100 367 100 q 585 131 533 100 q 669 224 638 161 q 700 381 700 286 l 700 972 l 783 972 q 858 999 838 974 q 878 1060 878 1025 q 869 1126 878 1096 l 990 1135 q 1002 1060 1001 1103 q 987 976 1003 1017 q 931 908 971 935 q 822 881 892 881 l 822 381 q 735 89 822 196 q 474 -18 647 -18 z "},"Ứ":{"ha":936,"x_min":114,"x_max":1003,"o":"m 474 -18 q 209 89 304 -18 q 114 381 114 196 l 114 972 l 236 972 l 236 381 q 301 169 236 239 q 468 100 367 100 q 585 131 533 100 q 669 224 638 161 q 700 381 700 286 l 700 972 l 783 972 q 858 999 838 974 q 878 1060 878 1025 q 869 1126 878 1096 l 990 1135 q 1002 1060 1001 1103 q 987 976 1003 1017 q 931 908 971 935 q 822 881 892 881 l 822 381 q 735 89 822 196 q 474 -18 647 -18 m 429 1050 l 546 1265 l 699 1265 l 529 1050 l 429 1050 z "},"Ự":{"ha":936,"x_min":114,"x_max":1003,"o":"m 474 -18 q 209 89 304 -18 q 114 381 114 196 l 114 972 l 236 972 l 236 381 q 301 169 236 239 q 468 100 367 100 q 585 131 533 100 q 669 224 638 161 q 700 381 700 286 l 700 972 l 783 972 q 858 999 838 974 q 878 1060 878 1025 q 869 1126 878 1096 l 990 1135 q 1002 1060 1001 1103 q 987 976 1003 1017 q 931 908 971 935 q 822 881 892 881 l 822 381 q 735 89 822 196 q 474 -18 647 -18 m 472 -242 q 419 -219 442 -242 q 396 -165 396 -196 q 419 -111 396 -133 q 472 -89 442 -89 q 526 -111 504 -89 q 547 -165 547 -133 q 526 -219 547 -196 q 472 -242 504 -242 z "},"Ừ":{"ha":936,"x_min":114,"x_max":1003,"o":"m 474 -18 q 209 89 304 -18 q 114 381 114 196 l 114 972 l 236 972 l 236 381 q 301 169 236 239 q 468 100 367 100 q 585 131 533 100 q 669 224 638 161 q 700 381 700 286 l 700 972 l 783 972 q 858 999 838 974 q 878 1060 878 1025 q 869 1126 878 1096 l 990 1135 q 1002 1060 1001 1103 q 987 976 1003 1017 q 931 908 971 935 q 822 881 892 881 l 822 381 q 735 89 822 196 q 474 -18 647 -18 m 425 1050 l 256 1265 l 408 1265 l 525 1050 l 425 1050 z "},"Ử":{"ha":936,"x_min":114,"x_max":1003,"o":"m 474 -18 q 209 89 304 -18 q 114 381 114 196 l 114 972 l 236 972 l 236 381 q 301 169 236 239 q 468 100 367 100 q 585 131 533 100 q 669 224 638 161 q 700 381 700 286 l 700 972 l 783 972 q 858 999 838 974 q 878 1060 878 1025 q 869 1126 878 1096 l 990 1135 q 1002 1060 1001 1103 q 987 976 1003 1017 q 931 908 971 935 q 822 881 892 881 l 822 381 q 735 89 822 196 q 474 -18 647 -18 m 435 1067 l 435 1161 q 515 1174 481 1161 q 549 1221 549 1188 q 510 1261 549 1249 q 426 1269 472 1274 l 426 1344 q 529 1338 482 1349 q 606 1299 576 1328 q 635 1221 635 1271 q 601 1143 635 1174 q 524 1107 568 1113 l 524 1067 l 435 1067 z "},"Ữ":{"ha":936,"x_min":114,"x_max":1003,"o":"m 474 -18 q 209 89 304 -18 q 114 381 114 196 l 114 972 l 236 972 l 236 381 q 301 169 236 239 q 468 100 367 100 q 585 131 533 100 q 669 224 638 161 q 700 381 700 286 l 700 972 l 783 972 q 858 999 838 974 q 878 1060 878 1025 q 869 1126 878 1096 l 990 1135 q 1002 1060 1001 1103 q 987 976 1003 1017 q 931 908 971 935 q 822 881 892 881 l 822 381 q 735 89 822 196 q 474 -18 647 -18 m 569 1074 q 506 1094 540 1074 q 438 1134 471 1114 q 382 1154 406 1154 q 323 1131 343 1154 q 292 1093 303 1108 l 239 1156 q 290 1219 254 1186 q 382 1251 326 1251 q 447 1231 413 1251 q 513 1191 481 1211 q 569 1171 546 1171 q 629 1194 610 1171 q 660 1232 649 1217 l 713 1169 q 663 1106 699 1139 q 569 1074 626 1074 z "},"Ű":{"ha":936,"x_min":114,"x_max":826,"o":"m 474 -17 q 209 90 304 -17 q 114 382 114 197 l 114 974 l 236 974 l 236 382 q 301 171 236 240 q 468 101 367 101 q 585 132 533 101 q 669 225 638 163 q 700 382 700 288 l 700 974 l 822 974 l 822 382 q 735 90 822 197 q 474 -17 647 -17 m 543 1051 l 660 1267 l 826 1267 l 657 1051 l 543 1051 m 276 1051 l 393 1267 l 560 1267 l 390 1051 l 276 1051 z "},"Ū":{"ha":936,"x_min":114,"x_max":822,"o":"m 474 -17 q 209 90 304 -17 q 114 382 114 197 l 114 974 l 236 974 l 236 382 q 301 171 236 240 q 468 101 367 101 q 585 132 533 101 q 669 225 638 163 q 700 382 700 288 l 700 974 l 822 974 l 822 382 q 735 90 822 197 q 474 -17 647 -17 m 267 1110 l 267 1213 l 682 1213 l 682 1110 l 267 1110 z "},"Ų":{"ha":936,"x_min":114,"x_max":822,"o":"m 474 -17 q 209 90 304 -17 q 114 382 114 197 l 114 974 l 236 974 l 236 382 q 301 171 236 240 q 468 101 367 101 q 585 132 533 101 q 669 225 638 163 q 700 382 700 288 l 700 974 l 822 974 l 822 382 q 735 90 822 197 q 474 -17 647 -17 m 513 -319 q 430 -297 464 -319 q 378 -237 396 -274 q 361 -161 361 -200 q 376 -92 361 -126 q 409 -33 390 -58 q 442 0 428 -8 l 557 0 q 492 -65 517 -25 q 467 -140 467 -106 q 488 -197 467 -179 q 540 -215 508 -215 q 599 -201 571 -215 l 599 -299 q 553 -315 581 -310 q 513 -319 526 -319 z "},"Ů":{"ha":936,"x_min":114,"x_max":822,"o":"m 474 -17 q 209 90 304 -17 q 114 382 114 197 l 114 974 l 236 974 l 236 382 q 301 171 236 240 q 468 101 367 101 q 585 132 533 101 q 669 225 638 163 q 700 382 700 288 l 700 974 l 822 974 l 822 382 q 735 90 822 197 q 474 -17 647 -17 m 474 1051 q 372 1095 408 1051 q 335 1194 335 1139 q 372 1295 335 1251 q 474 1339 408 1339 q 577 1295 540 1339 q 614 1194 614 1251 q 577 1095 614 1139 q 474 1051 540 1051 m 474 1131 q 519 1149 501 1131 q 536 1194 536 1167 q 519 1241 536 1222 q 474 1260 501 1260 q 430 1241 447 1260 q 413 1194 413 1222 q 430 1149 413 1167 q 474 1131 447 1131 z "},"Ũ":{"ha":936,"x_min":114,"x_max":822,"o":"m 474 -17 q 209 90 304 -17 q 114 382 114 197 l 114 974 l 236 974 l 236 382 q 301 171 236 240 q 468 101 367 101 q 585 132 533 101 q 669 225 638 163 q 700 382 700 288 l 700 974 l 822 974 l 822 382 q 735 90 822 197 q 474 -17 647 -17 m 569 1075 q 506 1095 540 1075 q 438 1135 471 1115 q 382 1156 406 1156 q 323 1133 343 1156 q 292 1094 303 1110 l 239 1157 q 290 1220 254 1188 q 382 1253 326 1253 q 447 1233 413 1253 q 513 1192 481 1213 q 569 1172 546 1172 q 629 1195 610 1172 q 660 1233 649 1218 l 713 1171 q 663 1108 699 1140 q 569 1075 626 1075 z "},"Ẃ":{"ha":1286,"x_min":39,"x_max":1247,"o":"m 247 0 l 39 972 l 168 972 l 331 161 l 568 972 l 718 972 l 956 161 l 1118 972 l 1247 972 l 1039 0 l 879 0 l 643 790 l 407 0 l 247 0 m 599 1051 l 715 1267 l 868 1267 l 699 1051 l 599 1051 z "},"Ŵ":{"ha":1286,"x_min":39,"x_max":1247,"o":"m 247 0 l 39 972 l 168 972 l 331 161 l 568 972 l 718 972 l 956 161 l 1118 972 l 1247 972 l 1039 0 l 879 0 l 643 790 l 407 0 l 247 0 m 422 1051 l 611 1267 l 681 1267 l 868 1051 l 754 1051 l 646 1178 l 538 1051 l 422 1051 z "},"Ẅ":{"ha":1286,"x_min":39,"x_max":1247,"o":"m 247 0 l 39 972 l 168 972 l 331 161 l 568 972 l 718 972 l 956 161 l 1118 972 l 1247 972 l 1039 0 l 879 0 l 643 790 l 407 0 l 247 0 m 767 1085 q 713 1108 736 1085 q 690 1161 690 1131 q 713 1215 690 1193 q 767 1238 736 1238 q 820 1215 799 1238 q 842 1161 842 1193 q 820 1108 842 1131 q 767 1085 799 1085 m 524 1085 q 470 1108 493 1085 q 447 1161 447 1131 q 470 1215 447 1193 q 524 1238 493 1238 q 577 1215 556 1238 q 599 1161 599 1193 q 577 1108 599 1131 q 524 1085 556 1085 z "},"Ẁ":{"ha":1286,"x_min":39,"x_max":1247,"o":"m 247 0 l 39 972 l 168 972 l 331 161 l 568 972 l 718 972 l 956 161 l 1118 972 l 1247 972 l 1039 0 l 879 0 l 643 790 l 407 0 l 247 0 m 594 1051 l 425 1267 l 578 1267 l 694 1051 l 594 1051 z "},"Ŷ":{"ha":808,"x_min":7,"x_max":801,"o":"m 349 0 l 353 429 l 7 972 l 146 972 l 407 542 l 672 972 l 801 972 l 467 429 l 471 0 l 349 0 m 194 1051 l 383 1267 l 453 1267 l 640 1051 l 526 1051 l 418 1178 l 310 1051 l 194 1051 z "},"Ÿ":{"ha":808,"x_min":7,"x_max":801,"o":"m 349 0 l 353 429 l 7 972 l 146 972 l 407 542 l 672 972 l 801 972 l 467 429 l 471 0 l 349 0 m 539 1085 q 485 1108 508 1085 q 463 1161 463 1131 q 485 1215 463 1193 q 539 1238 508 1238 q 592 1215 571 1238 q 614 1161 614 1193 q 592 1108 614 1131 q 539 1085 571 1085 m 296 1085 q 242 1108 265 1085 q 219 1161 219 1131 q 242 1215 219 1193 q 296 1238 265 1238 q 349 1215 328 1238 q 371 1161 371 1193 q 349 1108 371 1131 q 296 1085 328 1085 z "},"Ỵ":{"ha":808,"x_min":7,"x_max":801,"o":"m 349 0 l 353 429 l 7 972 l 146 972 l 407 542 l 672 972 l 801 972 l 467 429 l 471 0 l 349 0 m 407 -242 q 353 -219 376 -242 q 331 -165 331 -196 q 353 -111 331 -133 q 407 -89 376 -89 q 460 -111 439 -89 q 482 -165 482 -133 q 460 -219 482 -196 q 407 -242 439 -242 z "},"Ỳ":{"ha":808,"x_min":7,"x_max":801,"o":"m 349 0 l 353 429 l 7 972 l 146 972 l 407 542 l 672 972 l 801 972 l 467 429 l 471 0 l 349 0 m 367 1051 l 197 1267 l 350 1267 l 467 1051 l 367 1051 z "},"Ỷ":{"ha":808,"x_min":7,"x_max":801,"o":"m 349 0 l 353 429 l 7 972 l 146 972 l 407 542 l 672 972 l 801 972 l 467 429 l 471 0 l 349 0 m 376 1068 l 376 1163 q 456 1176 422 1163 q 490 1222 490 1189 q 452 1263 490 1250 q 368 1271 414 1275 l 368 1346 q 471 1340 424 1350 q 547 1301 518 1329 q 576 1222 576 1272 q 543 1144 576 1175 q 465 1108 510 1114 l 465 1068 l 376 1068 z "},"Ỹ":{"ha":808,"x_min":7,"x_max":801,"o":"m 349 0 l 353 429 l 7 972 l 146 972 l 407 542 l 672 972 l 801 972 l 467 429 l 471 0 l 349 0 m 511 1075 q 447 1095 482 1075 q 380 1135 413 1115 q 324 1156 347 1156 q 265 1133 285 1156 q 233 1094 244 1110 l 181 1157 q 232 1220 196 1188 q 324 1253 268 1253 q 388 1233 354 1253 q 455 1192 422 1213 q 511 1172 488 1172 q 571 1195 551 1172 q 601 1233 590 1218 l 654 1171 q 604 1108 640 1140 q 511 1075 568 1075 z "},"Ź":{"ha":769,"x_min":63,"x_max":700,"o":"m 63 1 l 63 115 l 556 861 l 63 861 l 63 972 l 700 972 l 700 858 l 207 113 l 700 113 l 700 1 l 63 1 m 344 1051 l 461 1267 l 614 1267 l 444 1051 l 344 1051 z "},"Ž":{"ha":769,"x_min":63,"x_max":700,"o":"m 63 1 l 63 115 l 556 861 l 63 861 l 63 972 l 700 972 l 700 858 l 207 113 l 700 113 l 700 1 l 63 1 m 354 1051 l 165 1267 l 281 1267 l 389 1140 l 497 1267 l 611 1267 l 424 1051 l 354 1051 z "},"Ż":{"ha":769,"x_min":63,"x_max":700,"o":"m 63 1 l 63 115 l 556 861 l 63 861 l 63 972 l 700 972 l 700 858 l 207 113 l 700 113 l 700 1 l 63 1 m 389 1085 q 335 1108 358 1085 q 313 1161 313 1131 q 335 1215 313 1193 q 389 1238 358 1238 q 442 1215 421 1238 q 464 1161 464 1193 q 442 1108 464 1131 q 389 1085 421 1085 z "},"ă":{"ha":843,"x_min":75,"x_max":724,"o":"m 382 -17 q 222 27 292 -17 q 114 152 153 71 q 75 347 75 233 q 115 546 75 465 q 227 669 156 626 q 389 711 299 711 q 494 689 450 711 q 569 632 539 667 q 613 558 599 597 l 613 694 l 724 694 l 724 0 l 608 0 l 608 133 q 559 52 594 86 q 477 1 524 18 q 382 -17 431 -17 m 399 89 q 512 124 465 89 q 583 218 558 160 q 607 347 607 276 q 552 535 607 463 q 394 607 497 607 q 281 573 326 607 q 214 481 236 539 q 192 350 192 422 q 214 219 192 278 q 283 124 236 160 q 399 89 329 89 m 414 779 q 301 810 349 779 q 230 890 254 840 q 206 994 206 939 l 306 994 q 334 913 306 949 q 414 876 363 876 q 495 913 467 876 q 524 994 524 949 l 624 994 q 599 890 624 939 q 528 810 575 840 q 414 779 481 779 z "},"ắ":{"ha":843,"x_min":75,"x_max":724,"o":"m 382 -17 q 222 27 292 -17 q 114 152 153 71 q 75 347 75 233 q 115 546 75 465 q 227 669 156 626 q 389 711 299 711 q 494 689 450 711 q 569 632 539 667 q 613 558 599 597 l 613 694 l 724 694 l 724 0 l 608 0 l 608 133 q 559 52 594 86 q 477 1 524 18 q 382 -17 431 -17 m 399 89 q 512 124 465 89 q 583 218 558 160 q 607 347 607 276 q 552 535 607 463 q 394 607 497 607 q 281 573 326 607 q 214 481 236 539 q 192 350 192 422 q 214 219 192 278 q 283 124 236 160 q 399 89 329 89 m 414 779 q 301 810 349 779 q 230 890 254 840 q 206 994 206 939 l 306 994 q 334 913 306 949 q 414 876 363 876 q 495 913 467 876 q 524 994 524 949 l 624 994 q 599 890 624 939 q 528 810 575 840 q 414 779 481 779 m 367 1058 l 483 1274 l 636 1274 l 467 1058 l 367 1058 z "},"ặ":{"ha":843,"x_min":75,"x_max":724,"o":"m 382 -17 q 222 27 292 -17 q 114 152 153 71 q 75 347 75 233 q 115 546 75 465 q 227 669 156 626 q 389 711 299 711 q 494 689 450 711 q 569 632 539 667 q 613 558 599 597 l 613 694 l 724 694 l 724 0 l 608 0 l 608 133 q 559 52 594 86 q 477 1 524 18 q 382 -17 431 -17 m 399 89 q 512 124 465 89 q 583 218 558 160 q 607 347 607 276 q 552 535 607 463 q 394 607 497 607 q 281 573 326 607 q 214 481 236 539 q 192 350 192 422 q 214 219 192 278 q 283 124 236 160 q 399 89 329 89 m 382 -258 q 328 -235 351 -258 q 306 -182 306 -212 q 328 -128 306 -150 q 382 -106 351 -106 q 435 -128 414 -106 q 457 -182 457 -150 q 435 -235 457 -212 q 382 -258 414 -258 m 414 779 q 301 810 349 779 q 230 890 254 840 q 206 994 206 939 l 306 994 q 334 913 306 949 q 414 876 363 876 q 495 913 467 876 q 524 994 524 949 l 624 994 q 599 890 624 939 q 528 810 575 840 q 414 779 481 779 z "},"ằ":{"ha":843,"x_min":75,"x_max":724,"o":"m 382 -17 q 222 27 292 -17 q 114 152 153 71 q 75 347 75 233 q 115 546 75 465 q 227 669 156 626 q 389 711 299 711 q 494 689 450 711 q 569 632 539 667 q 613 558 599 597 l 613 694 l 724 694 l 724 0 l 608 0 l 608 133 q 559 52 594 86 q 477 1 524 18 q 382 -17 431 -17 m 399 89 q 512 124 465 89 q 583 218 558 160 q 607 347 607 276 q 552 535 607 463 q 394 607 497 607 q 281 573 326 607 q 214 481 236 539 q 192 350 192 422 q 214 219 192 278 q 283 124 236 160 q 399 89 329 89 m 414 779 q 301 810 349 779 q 230 890 254 840 q 206 994 206 939 l 306 994 q 334 913 306 949 q 414 876 363 876 q 495 913 467 876 q 524 994 524 949 l 624 994 q 599 890 624 939 q 528 810 575 840 q 414 779 481 779 m 361 1043 l 192 1258 l 344 1258 l 461 1043 l 361 1043 z "},"ẳ":{"ha":843,"x_min":75,"x_max":724,"o":"m 382 -17 q 222 27 292 -17 q 114 152 153 71 q 75 347 75 233 q 115 546 75 465 q 227 669 156 626 q 389 711 299 711 q 494 689 450 711 q 569 632 539 667 q 613 558 599 597 l 613 694 l 724 694 l 724 0 l 608 0 l 608 133 q 559 52 594 86 q 477 1 524 18 q 382 -17 431 -17 m 399 89 q 512 124 465 89 q 583 218 558 160 q 607 347 607 276 q 552 535 607 463 q 394 607 497 607 q 281 573 326 607 q 214 481 236 539 q 192 350 192 422 q 214 219 192 278 q 283 124 236 160 q 399 89 329 89 m 356 1032 l 356 1124 q 433 1137 400 1124 q 467 1182 467 1150 q 429 1222 467 1210 q 347 1229 392 1233 l 347 1303 q 447 1297 401 1307 q 522 1259 493 1286 q 550 1182 550 1232 q 518 1106 550 1135 q 442 1071 486 1076 l 442 1032 l 356 1032 m 414 779 q 301 810 349 779 q 230 890 254 840 q 206 994 206 939 l 306 994 q 334 913 306 949 q 414 876 363 876 q 495 913 467 876 q 524 994 524 949 l 624 994 q 599 890 624 939 q 528 810 575 840 q 414 779 481 779 z "},"ẵ":{"ha":843,"x_min":75,"x_max":724,"o":"m 382 -17 q 222 27 292 -17 q 114 152 153 71 q 75 347 75 233 q 115 546 75 465 q 227 669 156 626 q 389 711 299 711 q 494 689 450 711 q 569 632 539 667 q 613 558 599 597 l 613 694 l 724 694 l 724 0 l 608 0 l 608 133 q 559 52 594 86 q 477 1 524 18 q 382 -17 431 -17 m 399 89 q 512 124 465 89 q 583 218 558 160 q 607 347 607 276 q 552 535 607 463 q 394 607 497 607 q 281 573 326 607 q 214 481 236 539 q 192 350 192 422 q 214 219 192 278 q 283 124 236 160 q 399 89 329 89 m 414 779 q 301 810 349 779 q 230 890 254 840 q 206 994 206 939 l 306 994 q 334 913 306 949 q 414 876 363 876 q 495 913 467 876 q 524 994 524 949 l 624 994 q 599 890 624 939 q 528 810 575 840 q 414 779 481 779 m 500 1026 q 436 1047 471 1026 q 369 1087 401 1067 q 313 1107 336 1107 q 253 1084 274 1107 q 222 1046 233 1061 l 169 1108 q 221 1172 185 1139 q 313 1204 257 1204 q 377 1184 343 1204 q 444 1144 411 1164 q 500 1124 476 1124 q 560 1147 540 1124 q 590 1185 579 1169 l 643 1122 q 593 1059 629 1092 q 500 1026 557 1026 z "},"ấ":{"ha":843,"x_min":75,"x_max":868,"o":"m 382 -17 q 222 27 292 -17 q 114 152 153 71 q 75 347 75 233 q 115 546 75 465 q 227 669 156 626 q 389 711 299 711 q 494 689 450 711 q 569 632 539 667 q 613 558 599 597 l 613 694 l 724 694 l 724 0 l 608 0 l 608 133 q 559 52 594 86 q 477 1 524 18 q 382 -17 431 -17 m 399 89 q 512 124 465 89 q 583 218 558 160 q 607 347 607 276 q 552 535 607 463 q 394 607 497 607 q 281 573 326 607 q 214 481 236 539 q 192 350 192 422 q 214 219 192 278 q 283 124 236 160 q 399 89 329 89 m 194 779 l 383 994 l 453 994 l 640 779 l 526 779 l 418 906 l 310 779 l 194 779 m 599 915 l 715 1131 l 868 1131 l 699 915 l 599 915 z "},"ậ":{"ha":843,"x_min":75,"x_max":724,"o":"m 382 -17 q 222 27 292 -17 q 114 152 153 71 q 75 347 75 233 q 115 546 75 465 q 227 669 156 626 q 389 711 299 711 q 494 689 450 711 q 569 632 539 667 q 613 558 599 597 l 613 694 l 724 694 l 724 0 l 608 0 l 608 133 q 559 52 594 86 q 477 1 524 18 q 382 -17 431 -17 m 399 89 q 512 124 465 89 q 583 218 558 160 q 607 347 607 276 q 552 535 607 463 q 394 607 497 607 q 281 573 326 607 q 214 481 236 539 q 192 350 192 422 q 214 219 192 278 q 283 124 236 160 q 399 89 329 89 m 382 -258 q 328 -235 351 -258 q 306 -182 306 -212 q 328 -128 306 -150 q 382 -106 351 -106 q 435 -128 414 -106 q 457 -182 457 -150 q 435 -235 457 -212 q 382 -258 414 -258 m 194 779 l 383 994 l 453 994 l 640 779 l 526 779 l 418 906 l 310 779 l 194 779 z "},"ầ":{"ha":843,"x_min":75,"x_max":775,"o":"m 382 -17 q 222 27 292 -17 q 114 152 153 71 q 75 347 75 233 q 115 546 75 465 q 227 669 156 626 q 389 711 299 711 q 494 689 450 711 q 569 632 539 667 q 613 558 599 597 l 613 694 l 724 694 l 724 0 l 608 0 l 608 133 q 559 52 594 86 q 477 1 524 18 q 382 -17 431 -17 m 399 89 q 512 124 465 89 q 583 218 558 160 q 607 347 607 276 q 552 535 607 463 q 394 607 497 607 q 281 573 326 607 q 214 481 236 539 q 192 350 192 422 q 214 219 192 278 q 283 124 236 160 q 399 89 329 89 m 194 779 l 383 994 l 453 994 l 640 779 l 526 779 l 418 906 l 310 779 l 194 779 m 675 917 l 506 1132 l 658 1132 l 775 917 l 675 917 z "},"ẩ":{"ha":843,"x_min":75,"x_max":783,"o":"m 382 -17 q 222 27 292 -17 q 114 152 153 71 q 75 347 75 233 q 115 546 75 465 q 227 669 156 626 q 389 711 299 711 q 494 689 450 711 q 569 632 539 667 q 613 558 599 597 l 613 694 l 724 694 l 724 0 l 608 0 l 608 133 q 559 52 594 86 q 477 1 524 18 q 382 -17 431 -17 m 399 89 q 512 124 465 89 q 583 218 558 160 q 607 347 607 276 q 552 535 607 463 q 394 607 497 607 q 281 573 326 607 q 214 481 236 539 q 192 350 192 422 q 214 219 192 278 q 283 124 236 160 q 399 89 329 89 m 194 779 l 383 994 l 453 994 l 640 779 l 526 779 l 418 906 l 310 779 l 194 779 m 583 976 l 583 1071 q 663 1084 629 1071 q 697 1131 697 1097 q 659 1171 697 1158 q 575 1179 621 1183 l 575 1254 q 678 1248 631 1258 q 754 1209 725 1238 q 783 1131 783 1181 q 750 1053 783 1083 q 672 1017 717 1022 l 672 976 l 583 976 z "},"ẫ":{"ha":843,"x_min":75,"x_max":724,"o":"m 382 -17 q 222 27 292 -17 q 114 152 153 71 q 75 347 75 233 q 115 546 75 465 q 227 669 156 626 q 389 711 299 711 q 494 689 450 711 q 569 632 539 667 q 613 558 599 597 l 613 694 l 724 694 l 724 0 l 608 0 l 608 133 q 559 52 594 86 q 477 1 524 18 q 382 -17 431 -17 m 399 89 q 512 124 465 89 q 583 218 558 160 q 607 347 607 276 q 552 535 607 463 q 394 607 497 607 q 281 573 326 607 q 214 481 236 539 q 192 350 192 422 q 214 219 192 278 q 283 124 236 160 q 399 89 329 89 m 194 779 l 383 994 l 453 994 l 640 779 l 526 779 l 418 906 l 310 779 l 194 779 m 519 1056 q 456 1076 490 1056 q 388 1116 421 1096 q 332 1136 356 1136 q 273 1113 293 1136 q 242 1075 253 1090 l 189 1138 q 240 1201 204 1168 q 332 1233 276 1233 q 397 1213 363 1233 q 463 1173 431 1193 q 519 1153 496 1153 q 579 1176 560 1153 q 610 1214 599 1199 l 663 1151 q 613 1088 649 1121 q 519 1056 576 1056 z "},"ạ":{"ha":843,"x_min":75,"x_max":724,"o":"m 382 -17 q 222 27 292 -17 q 114 152 153 71 q 75 347 75 233 q 115 546 75 465 q 227 669 156 626 q 389 711 299 711 q 494 689 450 711 q 569 632 539 667 q 613 558 599 597 l 613 694 l 724 694 l 724 0 l 608 0 l 608 133 q 559 52 594 86 q 477 1 524 18 q 382 -17 431 -17 m 399 89 q 512 124 465 89 q 583 218 558 160 q 607 347 607 276 q 552 535 607 463 q 394 607 497 607 q 281 573 326 607 q 214 481 236 539 q 192 350 192 422 q 214 219 192 278 q 283 124 236 160 q 399 89 329 89 m 382 -258 q 328 -235 351 -258 q 306 -182 306 -212 q 328 -128 306 -150 q 382 -106 351 -106 q 435 -128 414 -106 q 457 -182 457 -150 q 435 -235 457 -212 q 382 -258 414 -258 z "},"ả":{"ha":843,"x_min":75,"x_max":724,"o":"m 382 -17 q 222 27 292 -17 q 114 152 153 71 q 75 347 75 233 q 115 546 75 465 q 227 669 156 626 q 389 711 299 711 q 494 689 450 711 q 569 632 539 667 q 613 558 599 597 l 613 694 l 724 694 l 724 0 l 608 0 l 608 133 q 559 52 594 86 q 477 1 524 18 q 382 -17 431 -17 m 399 89 q 512 124 465 89 q 583 218 558 160 q 607 347 607 276 q 552 535 607 463 q 394 607 497 607 q 281 573 326 607 q 214 481 236 539 q 192 350 192 422 q 214 219 192 278 q 283 124 236 160 q 399 89 329 89 m 376 796 l 376 890 q 456 903 422 890 q 490 950 490 917 q 452 990 490 978 q 368 999 414 1003 l 368 1074 q 471 1067 424 1078 q 547 1028 518 1057 q 576 950 576 1000 q 543 872 576 903 q 465 836 510 842 l 465 796 l 376 796 z "},"ā":{"ha":843,"x_min":75,"x_max":724,"o":"m 382 -17 q 222 27 292 -17 q 114 152 153 71 q 75 347 75 233 q 115 546 75 465 q 227 669 156 626 q 389 711 299 711 q 494 689 450 711 q 569 632 539 667 q 613 558 599 597 l 613 694 l 724 694 l 724 0 l 608 0 l 608 133 q 559 52 594 86 q 477 1 524 18 q 382 -17 431 -17 m 399 89 q 512 124 465 89 q 583 218 558 160 q 607 347 607 276 q 552 535 607 463 q 394 607 497 607 q 281 573 326 607 q 214 481 236 539 q 192 350 192 422 q 214 219 192 278 q 283 124 236 160 q 399 89 329 89 m 208 838 l 208 940 l 624 940 l 624 838 l 208 838 z "},"ą":{"ha":843,"x_min":75,"x_max":765,"o":"m 382 -17 q 222 27 292 -17 q 114 152 153 71 q 75 347 75 233 q 115 546 75 465 q 227 669 156 626 q 389 711 299 711 q 494 689 450 711 q 569 632 539 667 q 613 558 599 597 l 613 694 l 724 694 l 724 0 l 608 0 l 608 133 q 559 52 594 86 q 477 1 524 18 q 382 -17 431 -17 m 399 89 q 512 124 465 89 q 583 218 558 160 q 607 347 607 276 q 552 535 607 463 q 394 607 497 607 q 281 573 326 607 q 214 481 236 539 q 192 350 192 422 q 214 219 192 278 q 283 124 236 160 q 399 89 329 89 m 679 -319 q 597 -297 631 -319 q 545 -237 563 -274 q 528 -161 528 -200 q 542 -92 528 -126 q 576 -33 557 -58 q 608 0 594 -8 l 724 0 q 658 -65 683 -25 q 633 -140 633 -106 q 654 -197 633 -179 q 706 -215 675 -215 q 765 -201 738 -215 l 765 -299 q 720 -315 747 -310 q 679 -319 693 -319 z "},"ć":{"ha":744,"x_min":75,"x_max":681,"o":"m 406 -18 q 242 26 318 -18 q 121 151 167 69 q 75 344 75 233 q 121 540 75 458 q 242 667 167 622 q 406 711 318 711 q 571 663 497 711 q 681 529 644 615 l 575 488 q 509 573 553 540 q 403 606 465 606 q 285 572 332 606 q 215 479 239 538 q 192 349 192 421 q 215 217 192 276 q 285 123 239 158 q 403 88 332 88 q 509 120 465 88 q 575 206 553 153 l 681 164 q 570 30 644 78 q 406 -18 496 -18 m 361 786 l 478 1001 l 631 1001 l 461 786 l 361 786 z "},"č":{"ha":744,"x_min":75,"x_max":681,"o":"m 406 -18 q 242 26 318 -18 q 121 151 167 69 q 75 344 75 233 q 121 540 75 458 q 242 667 167 622 q 406 711 318 711 q 571 663 497 711 q 681 529 644 615 l 575 488 q 509 573 553 540 q 403 606 465 606 q 285 572 332 606 q 215 479 239 538 q 192 349 192 421 q 215 217 192 276 q 285 123 239 158 q 403 88 332 88 q 509 120 465 88 q 575 206 553 153 l 681 164 q 570 30 644 78 q 406 -18 496 -18 m 371 786 l 182 1001 l 297 1001 l 406 875 l 514 1001 l 628 1001 l 440 786 l 371 786 z "},"ċ":{"ha":744,"x_min":75,"x_max":681,"o":"m 406 -18 q 242 26 318 -18 q 121 151 167 69 q 75 344 75 233 q 121 540 75 458 q 242 667 167 622 q 406 711 318 711 q 571 663 497 711 q 681 529 644 615 l 575 488 q 509 573 553 540 q 403 606 465 606 q 285 572 332 606 q 215 479 239 538 q 192 349 192 421 q 215 217 192 276 q 285 123 239 158 q 403 88 332 88 q 509 120 465 88 q 575 206 553 153 l 681 164 q 570 30 644 78 q 406 -18 496 -18 m 406 819 q 352 842 375 819 q 329 896 329 865 q 352 950 329 928 q 406 972 375 972 q 459 950 438 972 q 481 896 481 928 q 459 842 481 865 q 406 819 438 819 z "},"ď":{"ha":871,"x_min":75,"x_max":1040,"o":"m 389 -17 q 227 26 299 -17 q 115 149 156 68 q 75 347 75 231 q 114 542 75 461 q 222 667 153 624 q 382 711 292 711 q 477 694 431 711 q 559 643 524 676 q 608 561 594 610 l 608 989 l 725 989 l 725 175 q 743 116 725 133 q 813 110 761 99 l 813 15 q 783 3 799 7 q 740 -1 767 -1 q 650 31 686 -1 q 614 136 614 63 q 569 63 599 99 q 495 6 540 28 q 389 -17 450 -17 m 394 88 q 552 160 497 88 q 607 347 607 233 q 583 477 607 418 q 512 571 558 536 q 399 606 465 606 q 283 570 329 606 q 214 476 236 535 q 192 344 192 417 q 214 214 192 272 q 281 122 236 156 q 394 88 326 88 m 850 735 l 892 989 l 1040 989 l 946 735 l 850 735 z "},"đ":{"ha":871,"x_min":75,"x_max":815,"o":"m 389 -17 q 227 26 299 -17 q 115 149 156 68 q 75 347 75 231 q 114 542 75 461 q 222 667 153 624 q 382 711 292 711 q 477 694 431 711 q 559 643 524 676 q 608 561 594 610 l 608 808 l 408 808 l 408 903 l 608 903 l 608 989 l 725 989 l 725 903 l 815 903 l 815 808 l 725 808 l 725 175 q 743 116 725 133 q 813 110 761 99 l 813 15 q 783 3 799 7 q 740 -1 767 -1 q 650 31 686 -1 q 614 136 614 63 q 569 63 599 99 q 495 6 540 28 q 389 -17 450 -17 m 394 88 q 552 160 497 88 q 607 347 607 233 q 583 477 607 418 q 512 571 558 536 q 399 606 465 606 q 283 570 329 606 q 214 476 236 535 q 192 344 192 417 q 214 214 192 272 q 281 122 236 156 q 394 88 326 88 z "},"ḍ":{"ha":871,"x_min":75,"x_max":813,"o":"m 389 -17 q 227 26 299 -17 q 115 149 156 68 q 75 347 75 231 q 114 542 75 461 q 222 667 153 624 q 382 711 292 711 q 477 694 431 711 q 559 643 524 676 q 608 561 594 610 l 608 989 l 725 989 l 725 175 q 743 116 725 133 q 813 110 761 99 l 813 15 q 783 3 799 7 q 740 -1 767 -1 q 650 31 686 -1 q 614 136 614 63 q 569 63 599 99 q 495 6 540 28 q 389 -17 450 -17 m 394 88 q 552 160 497 88 q 607 347 607 233 q 583 477 607 418 q 512 571 558 536 q 399 606 465 606 q 283 570 329 606 q 214 476 236 535 q 192 344 192 417 q 214 214 192 272 q 281 122 236 156 q 394 88 326 88 m 389 -258 q 335 -235 358 -258 q 313 -182 313 -212 q 335 -128 313 -150 q 389 -106 358 -106 q 442 -128 421 -106 q 464 -182 464 -150 q 442 -235 464 -212 q 389 -258 421 -258 z "},"ḏ":{"ha":871,"x_min":75,"x_max":813,"o":"m 389 -17 q 227 26 299 -17 q 115 149 156 68 q 75 347 75 231 q 114 542 75 461 q 222 667 153 624 q 382 711 292 711 q 477 694 431 711 q 559 643 524 676 q 608 561 594 610 l 608 989 l 725 989 l 725 175 q 743 116 725 133 q 813 110 761 99 l 813 15 q 783 3 799 7 q 740 -1 767 -1 q 650 31 686 -1 q 614 136 614 63 q 569 63 599 99 q 495 6 540 28 q 389 -17 450 -17 m 394 88 q 552 160 497 88 q 607 347 607 233 q 583 477 607 418 q 512 571 558 536 q 399 606 465 606 q 283 570 329 606 q 214 476 236 535 q 192 344 192 417 q 214 214 192 272 q 281 122 236 156 q 394 88 326 88 m 153 -221 l 153 -118 l 624 -118 l 624 -221 l 153 -221 z "},"ě":{"ha":790,"x_min":75,"x_max":721,"o":"m 404 -18 q 242 26 317 -18 q 121 151 167 69 q 75 344 75 233 q 121 540 75 458 q 242 667 167 622 q 404 711 317 711 q 565 674 493 711 q 678 560 636 638 q 721 363 721 483 l 721 319 l 190 319 q 249 153 196 219 q 401 88 301 88 q 515 117 464 88 q 596 199 567 146 l 699 157 q 404 -18 613 -18 m 401 606 q 266 553 317 606 q 199 422 215 501 l 604 422 q 581 503 604 461 q 514 576 558 546 q 401 606 469 606 m 369 778 l 181 993 l 296 993 l 404 867 l 513 993 l 626 993 l 439 778 l 369 778 z "},"ế":{"ha":790,"x_min":75,"x_max":857,"o":"m 404 -18 q 242 26 317 -18 q 121 151 167 69 q 75 344 75 233 q 121 540 75 458 q 242 667 167 622 q 404 711 317 711 q 565 674 493 711 q 678 560 636 638 q 721 363 721 483 l 721 319 l 190 319 q 249 153 196 219 q 401 88 301 88 q 515 117 464 88 q 596 199 567 146 l 699 157 q 404 -18 613 -18 m 401 606 q 266 553 317 606 q 199 422 215 501 l 604 422 q 581 503 604 461 q 514 576 558 546 q 401 606 469 606 m 183 778 l 372 993 l 442 993 l 629 778 l 515 778 l 407 904 l 299 778 l 183 778 m 588 914 l 704 1129 l 857 1129 l 688 914 l 588 914 z "},"ệ":{"ha":790,"x_min":75,"x_max":721,"o":"m 404 -18 q 242 26 317 -18 q 121 151 167 69 q 75 344 75 233 q 121 540 75 458 q 242 667 167 622 q 404 711 317 711 q 565 674 493 711 q 678 560 636 638 q 721 363 721 483 l 721 319 l 190 319 q 249 153 196 219 q 401 88 301 88 q 515 117 464 88 q 596 199 567 146 l 699 157 q 404 -18 613 -18 m 401 606 q 266 553 317 606 q 199 422 215 501 l 604 422 q 581 503 604 461 q 514 576 558 546 q 401 606 469 606 m 404 -260 q 351 -237 374 -260 q 328 -183 328 -214 q 351 -129 328 -151 q 404 -107 374 -107 q 458 -129 436 -107 q 479 -183 479 -151 q 458 -237 479 -214 q 404 -260 436 -260 m 183 778 l 372 993 l 442 993 l 629 778 l 515 778 l 407 904 l 299 778 l 183 778 z "},"ề":{"ha":790,"x_min":75,"x_max":764,"o":"m 404 -18 q 242 26 317 -18 q 121 151 167 69 q 75 344 75 233 q 121 540 75 458 q 242 667 167 622 q 404 711 317 711 q 565 674 493 711 q 678 560 636 638 q 721 363 721 483 l 721 319 l 190 319 q 249 153 196 219 q 401 88 301 88 q 515 117 464 88 q 596 199 567 146 l 699 157 q 404 -18 613 -18 m 401 606 q 266 553 317 606 q 199 422 215 501 l 604 422 q 581 503 604 461 q 514 576 558 546 q 401 606 469 606 m 183 778 l 372 993 l 442 993 l 629 778 l 515 778 l 407 904 l 299 778 l 183 778 m 664 915 l 494 1131 l 647 1131 l 764 915 l 664 915 z "},"ể":{"ha":790,"x_min":75,"x_max":772,"o":"m 404 -18 q 242 26 317 -18 q 121 151 167 69 q 75 344 75 233 q 121 540 75 458 q 242 667 167 622 q 404 711 317 711 q 565 674 493 711 q 678 560 636 638 q 721 363 721 483 l 721 319 l 190 319 q 249 153 196 219 q 401 88 301 88 q 515 117 464 88 q 596 199 567 146 l 699 157 q 404 -18 613 -18 m 401 606 q 266 553 317 606 q 199 422 215 501 l 604 422 q 581 503 604 461 q 514 576 558 546 q 401 606 469 606 m 183 778 l 372 993 l 442 993 l 629 778 l 515 778 l 407 904 l 299 778 l 183 778 m 572 975 l 572 1069 q 652 1083 618 1069 q 686 1129 686 1096 q 648 1169 686 1157 q 564 1178 610 1182 l 564 1253 q 667 1247 619 1257 q 743 1208 714 1236 q 772 1129 772 1179 q 739 1051 772 1082 q 661 1015 706 1021 l 661 975 l 572 975 z "},"ễ":{"ha":790,"x_min":75,"x_max":721,"o":"m 404 -18 q 242 26 317 -18 q 121 151 167 69 q 75 344 75 233 q 121 540 75 458 q 242 667 167 622 q 404 711 317 711 q 565 674 493 711 q 678 560 636 638 q 721 363 721 483 l 721 319 l 190 319 q 249 153 196 219 q 401 88 301 88 q 515 117 464 88 q 596 199 567 146 l 699 157 q 404 -18 613 -18 m 401 606 q 266 553 317 606 q 199 422 215 501 l 604 422 q 581 503 604 461 q 514 576 558 546 q 401 606 469 606 m 183 778 l 372 993 l 442 993 l 629 778 l 515 778 l 407 904 l 299 778 l 183 778 m 508 1054 q 444 1074 479 1054 q 377 1115 410 1094 q 321 1135 344 1135 q 262 1112 282 1135 q 231 1074 242 1089 l 178 1136 q 229 1199 193 1167 q 321 1232 265 1232 q 385 1212 351 1232 q 452 1172 419 1192 q 508 1151 485 1151 q 568 1174 549 1151 q 599 1213 588 1197 l 651 1150 q 601 1087 638 1119 q 508 1054 565 1054 z "},"ė":{"ha":790,"x_min":75,"x_max":721,"o":"m 404 -18 q 242 26 317 -18 q 121 151 167 69 q 75 344 75 233 q 121 540 75 458 q 242 667 167 622 q 404 711 317 711 q 565 674 493 711 q 678 560 636 638 q 721 363 721 483 l 721 319 l 190 319 q 249 153 196 219 q 401 88 301 88 q 515 117 464 88 q 596 199 567 146 l 699 157 q 404 -18 613 -18 m 401 606 q 266 553 317 606 q 199 422 215 501 l 604 422 q 581 503 604 461 q 514 576 558 546 q 401 606 469 606 m 404 811 q 351 834 374 811 q 328 888 328 857 q 351 942 328 919 q 404 964 374 964 q 458 942 436 964 q 479 888 479 919 q 458 834 479 857 q 404 811 436 811 z "},"ẹ":{"ha":790,"x_min":75,"x_max":721,"o":"m 404 -18 q 242 26 317 -18 q 121 151 167 69 q 75 344 75 233 q 121 540 75 458 q 242 667 167 622 q 404 711 317 711 q 565 674 493 711 q 678 560 636 638 q 721 363 721 483 l 721 319 l 190 319 q 249 153 196 219 q 401 88 301 88 q 515 117 464 88 q 596 199 567 146 l 699 157 q 404 -18 613 -18 m 401 606 q 266 553 317 606 q 199 422 215 501 l 604 422 q 581 503 604 461 q 514 576 558 546 q 401 606 469 606 m 404 -260 q 351 -237 374 -260 q 328 -183 328 -214 q 351 -129 328 -151 q 404 -107 374 -107 q 458 -129 436 -107 q 479 -183 479 -151 q 458 -237 479 -214 q 404 -260 436 -260 z "},"ẻ":{"ha":790,"x_min":75,"x_max":721,"o":"m 404 -18 q 242 26 317 -18 q 121 151 167 69 q 75 344 75 233 q 121 540 75 458 q 242 667 167 622 q 404 711 317 711 q 565 674 493 711 q 678 560 636 638 q 721 363 721 483 l 721 319 l 190 319 q 249 153 196 219 q 401 88 301 88 q 515 117 464 88 q 596 199 567 146 l 699 157 q 404 -18 613 -18 m 401 606 q 266 553 317 606 q 199 422 215 501 l 604 422 q 581 503 604 461 q 514 576 558 546 q 401 606 469 606 m 365 794 l 365 889 q 445 902 411 889 q 479 949 479 915 q 441 989 479 976 q 357 997 403 1001 l 357 1072 q 460 1066 413 1076 q 536 1027 507 1056 q 565 949 565 999 q 532 871 565 901 q 454 835 499 840 l 454 794 l 365 794 z "},"ē":{"ha":790,"x_min":75,"x_max":721,"o":"m 404 -18 q 242 26 317 -18 q 121 151 167 69 q 75 344 75 233 q 121 540 75 458 q 242 667 167 622 q 404 711 317 711 q 565 674 493 711 q 678 560 636 638 q 721 363 721 483 l 721 319 l 190 319 q 249 153 196 219 q 401 88 301 88 q 515 117 464 88 q 596 199 567 146 l 699 157 q 404 -18 613 -18 m 401 606 q 266 553 317 606 q 199 422 215 501 l 604 422 q 581 503 604 461 q 514 576 558 546 q 401 606 469 606 m 197 836 l 197 939 l 613 939 l 613 836 l 197 836 z "},"ę":{"ha":790,"x_min":75,"x_max":721,"o":"m 404 -18 q 242 26 317 -18 q 121 151 167 69 q 75 344 75 233 q 121 540 75 458 q 242 667 167 622 q 404 711 317 711 q 565 674 493 711 q 678 560 636 638 q 721 363 721 483 l 721 319 l 190 319 q 249 153 196 219 q 401 88 301 88 q 515 117 464 88 q 596 199 567 146 l 699 157 q 668 106 685 129 q 610 1 638 54 q 582 -94 582 -53 q 603 -151 582 -133 q 655 -169 624 -169 q 714 -156 686 -169 l 714 -253 q 669 -269 696 -264 q 628 -274 642 -274 q 545 -251 579 -274 q 494 -191 511 -228 q 476 -115 476 -154 q 488 -57 476 -86 q 513 -4 499 -28 q 404 -18 464 -18 m 401 606 q 266 553 317 606 q 199 422 215 501 l 604 422 q 581 503 604 461 q 514 576 558 546 q 401 606 469 606 z "},"ẽ":{"ha":790,"x_min":75,"x_max":721,"o":"m 404 -18 q 242 26 317 -18 q 121 151 167 69 q 75 344 75 233 q 121 540 75 458 q 242 667 167 622 q 404 711 317 711 q 565 674 493 711 q 678 560 636 638 q 721 363 721 483 l 721 319 l 190 319 q 249 153 196 219 q 401 88 301 88 q 515 117 464 88 q 596 199 567 146 l 699 157 q 404 -18 613 -18 m 401 606 q 266 553 317 606 q 199 422 215 501 l 604 422 q 581 503 604 461 q 514 576 558 546 q 401 606 469 606 m 500 801 q 436 822 471 801 q 369 862 401 842 q 313 882 336 882 q 253 859 274 882 q 222 821 233 836 l 169 883 q 221 947 185 914 q 313 979 257 979 q 377 959 343 979 q 444 919 411 939 q 500 899 476 899 q 560 922 540 899 q 590 960 579 944 l 643 897 q 593 834 629 867 q 500 801 557 801 z "},"ğ":{"ha":843,"x_min":75,"x_max":724,"o":"m 389 -319 q 219 -279 299 -318 q 100 -149 140 -240 l 192 -92 q 269 -185 218 -153 q 390 -217 321 -217 q 557 -156 506 -217 q 608 24 608 -94 l 608 133 q 559 52 594 86 q 477 1 524 18 q 382 -17 431 -17 q 222 27 292 -17 q 114 152 153 71 q 75 347 75 233 q 115 546 75 465 q 227 669 156 626 q 389 711 299 711 q 494 689 450 711 q 569 632 539 667 q 613 558 599 597 l 613 694 l 724 694 l 724 24 q 678 -183 724 -107 q 557 -290 633 -258 q 389 -319 481 -321 m 399 89 q 512 124 465 89 q 583 218 558 160 q 607 347 607 276 q 552 535 607 463 q 394 607 497 607 q 281 573 326 607 q 214 481 236 539 q 192 350 192 422 q 214 219 192 278 q 283 124 236 160 q 399 89 329 89 m 388 774 q 275 804 322 774 q 203 884 228 835 q 179 989 179 933 l 279 989 q 308 907 279 943 q 388 871 336 871 q 469 907 440 871 q 497 989 497 943 l 597 989 q 573 884 597 933 q 501 804 549 835 q 388 774 454 774 z "},"ģ":{"ha":843,"x_min":75,"x_max":724,"o":"m 389 -319 q 219 -279 299 -318 q 100 -149 140 -240 l 192 -92 q 269 -185 218 -153 q 390 -217 321 -217 q 557 -156 506 -217 q 608 24 608 -94 l 608 133 q 559 52 594 86 q 477 1 524 18 q 382 -17 431 -17 q 222 27 292 -17 q 114 152 153 71 q 75 347 75 233 q 115 546 75 465 q 227 669 156 626 q 389 711 299 711 q 494 689 450 711 q 569 632 539 667 q 613 558 599 597 l 613 694 l 724 694 l 724 24 q 678 -183 724 -107 q 557 -290 633 -258 q 389 -319 481 -321 m 399 89 q 512 124 465 89 q 583 218 558 160 q 607 347 607 276 q 552 535 607 463 q 394 607 497 607 q 281 573 326 607 q 214 481 236 539 q 192 350 192 422 q 214 219 192 278 q 283 124 236 160 q 399 89 329 89 m 390 771 q 326 800 351 771 q 300 868 300 829 q 346 1003 300 951 q 464 1056 392 1056 q 465 1047 465 1056 q 464 1028 464 1038 q 464 1018 464 1018 q 443 1010 464 1018 q 401 982 422 1003 q 381 921 381 961 q 387 922 383 922 q 392 922 390 922 q 442 900 419 922 q 464 850 464 878 q 442 796 464 821 q 390 771 421 771 z "},"ġ":{"ha":843,"x_min":75,"x_max":724,"o":"m 389 -319 q 219 -279 299 -318 q 100 -149 140 -240 l 192 -92 q 269 -185 218 -153 q 390 -217 321 -217 q 557 -156 506 -217 q 608 24 608 -94 l 608 133 q 559 52 594 86 q 477 1 524 18 q 382 -17 431 -17 q 222 27 292 -17 q 114 152 153 71 q 75 347 75 233 q 115 546 75 465 q 227 669 156 626 q 389 711 299 711 q 494 689 450 711 q 569 632 539 667 q 613 558 599 597 l 613 694 l 724 694 l 724 24 q 678 -183 724 -107 q 557 -290 633 -258 q 389 -319 481 -321 m 399 89 q 512 124 465 89 q 583 218 558 160 q 607 347 607 276 q 552 535 607 463 q 394 607 497 607 q 281 573 326 607 q 214 481 236 539 q 192 350 192 422 q 214 219 192 278 q 283 124 236 160 q 399 89 329 89 m 389 807 q 335 830 358 807 q 313 883 313 853 q 335 938 313 915 q 389 960 358 960 q 442 938 421 960 q 464 883 464 915 q 442 830 464 853 q 389 807 421 807 z "},"ḡ":{"ha":843,"x_min":75,"x_max":724,"o":"m 389 -319 q 219 -279 299 -318 q 100 -149 140 -240 l 192 -92 q 269 -185 218 -153 q 390 -217 321 -217 q 557 -156 506 -217 q 608 24 608 -94 l 608 133 q 559 52 594 86 q 477 1 524 18 q 382 -17 431 -17 q 222 27 292 -17 q 114 152 153 71 q 75 347 75 233 q 115 546 75 465 q 227 669 156 626 q 389 711 299 711 q 494 689 450 711 q 569 632 539 667 q 613 558 599 597 l 613 694 l 724 694 l 724 24 q 678 -183 724 -107 q 557 -290 633 -258 q 389 -319 481 -321 m 399 89 q 512 124 465 89 q 583 218 558 160 q 607 347 607 276 q 552 535 607 463 q 394 607 497 607 q 281 573 326 607 q 214 481 236 539 q 192 350 192 422 q 214 219 192 278 q 283 124 236 160 q 399 89 329 89 m 182 832 l 182 935 l 597 935 l 597 832 l 182 832 z "},"ħ":{"ha":881,"x_min":89,"x_max":761,"o":"m 179 0 l 179 808 l 89 808 l 89 903 l 179 903 l 179 989 l 296 989 l 296 903 l 496 903 l 496 808 l 296 808 l 296 564 q 328 624 303 589 q 401 685 353 658 q 528 711 450 711 q 695 646 629 711 q 761 456 761 581 l 761 0 l 644 0 l 644 439 q 601 567 644 529 q 489 606 558 606 q 344 540 393 606 q 296 375 296 475 l 296 0 l 179 0 z "},"ı":{"ha":361,"x_min":122,"x_max":239,"o":"m 122 0 l 122 694 l 239 694 l 239 0 l 122 0 z "},"ị":{"ha":361,"x_min":100,"x_max":261,"o":"m 182 826 q 124 851 149 826 q 100 907 100 875 q 124 965 100 940 q 182 989 149 989 q 238 965 214 989 q 261 907 261 940 q 238 851 261 875 q 182 826 214 826 m 122 0 l 122 694 l 239 694 l 239 0 l 122 0 m 182 -242 q 128 -219 151 -242 q 106 -165 106 -196 q 128 -111 106 -133 q 182 -89 151 -89 q 235 -111 214 -89 q 257 -165 257 -133 q 235 -219 257 -196 q 182 -242 214 -242 z "},"ỉ":{"ha":361,"x_min":122,"x_max":340,"o":"m 122 0 l 122 694 l 239 694 l 239 0 l 122 0 m 140 790 l 140 885 q 220 898 186 885 q 254 944 254 911 q 216 985 254 972 q 132 993 178 997 l 132 1068 q 235 1062 188 1072 q 311 1023 282 1051 q 340 944 340 994 q 307 867 340 897 q 229 831 274 836 l 229 790 l 140 790 z "},"ĳ":{"ha":779,"x_min":86,"x_max":679,"o":"m 592 824 q 529 850 556 824 q 503 911 503 876 q 529 974 503 947 q 592 1000 556 1000 q 653 974 628 1000 q 678 911 679 947 q 653 850 678 876 q 592 824 628 824 m 175 824 q 113 850 139 824 q 86 911 86 876 q 113 974 86 947 q 175 1000 139 1000 q 236 974 211 1000 q 261 911 261 947 q 236 850 261 876 q 175 824 211 824 m 115 0 l 115 694 l 232 694 l 232 0 l 115 0 m 444 -319 q 406 -317 428 -319 q 367 -308 385 -314 l 367 -214 q 401 -218 383 -217 q 432 -219 418 -219 q 510 -197 483 -219 q 538 -118 538 -174 l 538 694 l 654 694 q 654 342 654 486 q 654 108 654 199 q 653 -33 654 17 q 653 -101 653 -82 q 653 -119 653 -119 q 606 -268 653 -217 q 444 -319 558 -319 z "},"ī":{"ha":361,"x_min":-28,"x_max":388,"o":"m 122 0 l 122 694 l 239 694 l 239 0 l 122 0 m -28 832 l -28 935 l 388 935 l 388 832 l -28 832 z "},"į":{"ha":361,"x_min":42,"x_max":279,"o":"m 122 0 l 122 694 l 239 694 l 239 0 l 122 0 m 179 807 q 126 830 149 807 q 103 883 103 853 q 126 938 103 915 q 179 960 149 960 q 233 938 211 960 q 254 883 254 915 q 233 830 254 853 q 179 807 211 807 m 193 -319 q 110 -297 144 -319 q 59 -237 76 -274 q 42 -161 42 -200 q 56 -92 42 -126 q 90 -33 71 -58 q 122 0 108 -8 l 238 0 q 172 -65 197 -25 q 147 -140 147 -106 q 168 -197 147 -179 q 220 -215 189 -215 q 279 -201 251 -215 l 279 -299 q 234 -315 261 -310 q 193 -319 207 -319 z "},"ĩ":{"ha":361,"x_min":-56,"x_max":418,"o":"m 122 0 l 122 694 l 239 694 l 239 0 l 122 0 m 275 797 q 211 817 246 797 q 144 858 176 838 q 88 878 111 878 q 28 855 49 878 q -3 817 8 832 l -56 879 q -4 942 -40 910 q 88 975 32 975 q 152 955 118 975 q 219 915 186 935 q 275 894 251 894 q 335 917 315 894 q 365 956 354 940 l 418 893 q 368 830 404 863 q 275 797 332 797 z "},"ȷ":{"ha":418,"x_min":6,"x_max":293,"o":"m 83 -319 q 45 -317 67 -319 q 6 -308 24 -314 l 6 -214 q 40 -218 22 -217 q 71 -219 57 -219 q 149 -197 122 -219 q 176 -118 176 -174 l 176 694 l 293 694 q 293 342 293 486 q 293 108 293 199 q 292 -33 293 17 q 292 -101 292 -82 q 292 -119 292 -119 q 244 -268 292 -217 q 83 -319 197 -319 z "},"ķ":{"ha":729,"x_min":128,"x_max":708,"o":"m 128 0 l 128 989 l 244 989 l 244 397 l 542 694 l 686 694 l 401 404 l 708 0 l 561 0 l 310 331 l 244 267 l 244 0 l 128 0 m 307 -394 q 307 -385 307 -394 q 307 -366 307 -375 q 307 -357 307 -357 q 328 -349 307 -357 q 369 -321 349 -342 q 390 -260 390 -300 q 385 -261 389 -261 q 379 -261 381 -261 q 329 -238 351 -261 q 307 -189 307 -215 q 328 -135 307 -160 q 381 -110 350 -110 q 445 -138 419 -110 q 471 -207 471 -167 q 425 -342 471 -290 q 307 -394 379 -394 z "},"ĺ":{"ha":358,"x_min":125,"x_max":404,"o":"m 125 0 l 125 989 l 242 989 l 242 0 l 125 0 m 135 1069 l 251 1285 l 404 1285 l 235 1069 l 135 1069 z "},"ľ":{"ha":358,"x_min":125,"x_max":533,"o":"m 125 0 l 125 989 l 242 989 l 242 0 l 125 0 m 343 735 l 385 989 l 533 989 l 439 735 l 343 735 z "},"ļ":{"ha":358,"x_min":104,"x_max":268,"o":"m 125 0 l 125 989 l 242 989 l 242 0 l 125 0 m 104 -378 q 104 -368 104 -378 q 104 -349 104 -358 q 104 -340 104 -340 q 125 -333 104 -340 q 167 -304 146 -325 q 188 -243 188 -283 q 182 -244 186 -244 q 176 -244 178 -244 q 126 -222 149 -244 q 104 -172 104 -199 q 126 -118 104 -143 q 178 -93 147 -93 q 242 -122 217 -93 q 268 -190 268 -150 q 222 -326 268 -274 q 104 -378 176 -378 z "},"ḷ":{"ha":358,"x_min":108,"x_max":260,"o":"m 125 0 l 125 989 l 242 989 l 242 0 l 125 0 m 185 -242 q 131 -219 154 -242 q 108 -165 108 -196 q 131 -111 108 -133 q 185 -89 154 -89 q 238 -111 217 -89 q 260 -165 260 -133 q 238 -219 260 -196 q 185 -242 217 -242 z "},"ḻ":{"ha":358,"x_min":-51,"x_max":419,"o":"m 125 0 l 125 989 l 242 989 l 242 0 l 125 0 m -51 -204 l -51 -101 l 419 -101 l 419 -204 l -51 -204 z "},"ł":{"ha":508,"x_min":42,"x_max":467,"o":"m 188 0 l 188 371 l 89 318 l 42 408 l 188 485 l 188 989 l 304 989 l 304 547 l 418 607 l 467 518 l 304 432 l 304 0 l 188 0 z "},"ń":{"ha":829,"x_min":128,"x_max":710,"o":"m 128 0 l 128 694 l 244 694 l 244 564 q 276 624 251 589 q 350 685 301 658 q 476 711 399 711 q 644 646 578 711 q 710 456 710 581 l 710 0 l 593 0 l 593 439 q 550 567 593 529 q 438 606 507 606 q 293 540 342 606 q 244 375 244 475 l 244 0 l 128 0 m 393 792 l 510 1007 l 663 1007 l 493 792 l 393 792 z "},"ň":{"ha":829,"x_min":128,"x_max":710,"o":"m 128 0 l 128 694 l 244 694 l 244 564 q 276 624 251 589 q 350 685 301 658 q 476 711 399 711 q 644 646 578 711 q 710 456 710 581 l 710 0 l 593 0 l 593 439 q 550 567 593 529 q 438 606 507 606 q 293 540 342 606 q 244 375 244 475 l 244 0 l 128 0 m 403 792 l 214 1007 l 329 1007 l 438 881 l 546 1007 l 660 1007 l 472 792 l 403 792 z "},"ņ":{"ha":829,"x_min":128,"x_max":710,"o":"m 128 0 l 128 694 l 244 694 l 244 564 q 276 624 251 589 q 350 685 301 658 q 476 711 399 711 q 644 646 578 711 q 710 456 710 581 l 710 0 l 593 0 l 593 439 q 550 567 593 529 q 438 606 507 606 q 293 540 342 606 q 244 375 244 475 l 244 0 l 128 0 m 349 -378 q 349 -368 349 -378 q 349 -349 349 -358 q 349 -340 349 -340 q 369 -333 349 -340 q 411 -304 390 -325 q 432 -243 432 -283 q 426 -244 431 -244 q 421 -244 422 -244 q 371 -222 393 -244 q 349 -172 349 -199 q 370 -118 349 -143 q 422 -93 392 -93 q 487 -122 461 -93 q 513 -190 513 -150 q 467 -326 513 -274 q 349 -378 421 -378 z "},"ṇ":{"ha":829,"x_min":128,"x_max":710,"o":"m 128 0 l 128 694 l 244 694 l 244 564 q 276 624 251 589 q 350 685 301 658 q 476 711 399 711 q 644 646 578 711 q 710 456 710 581 l 710 0 l 593 0 l 593 439 q 550 567 593 529 q 438 606 507 606 q 293 540 342 606 q 244 375 244 475 l 244 0 l 128 0 m 429 -242 q 376 -219 399 -242 q 353 -165 353 -196 q 376 -111 353 -133 q 429 -89 399 -89 q 483 -111 461 -89 q 504 -165 504 -133 q 483 -219 504 -196 q 429 -242 461 -242 z "},"ɲ":{"ha":833,"x_min":-43,"x_max":710,"o":"m 33 -261 q -43 -250 -6 -261 l -43 -156 q -10 -160 -26 -158 q 21 -161 7 -161 q 100 -138 72 -161 q 128 -60 128 -115 l 128 694 l 244 694 l 244 564 q 276 624 251 589 q 350 685 301 658 q 476 711 399 711 q 644 646 578 711 q 710 456 710 581 l 710 1 l 593 1 l 593 439 q 550 567 593 529 q 438 606 507 606 q 293 540 342 606 q 244 375 244 475 l 244 -61 q 196 -210 244 -158 q 33 -261 147 -261 z "},"ɳ":{"ha":833,"x_min":128,"x_max":878,"o":"m 801 -261 q 640 -210 688 -261 q 593 -61 593 -158 l 593 439 q 550 567 593 529 q 438 606 507 606 q 293 540 342 606 q 244 375 244 475 l 244 0 l 128 0 l 128 694 l 244 694 l 244 564 q 276 624 251 589 q 350 685 301 658 q 476 711 399 711 q 644 646 578 711 q 710 456 710 581 l 710 -60 q 736 -138 710 -115 q 814 -161 763 -161 q 844 -160 828 -161 q 878 -156 861 -158 l 878 -250 q 801 -261 840 -261 z "},"ṉ":{"ha":833,"x_min":128,"x_max":710,"o":"m 128 0 l 128 694 l 244 694 l 244 564 q 276 624 251 589 q 350 685 301 658 q 476 711 399 711 q 644 646 578 711 q 710 456 710 581 l 710 0 l 593 0 l 593 439 q 550 567 593 529 q 438 606 507 606 q 293 540 342 606 q 244 375 244 475 l 244 0 l 128 0 m 201 -221 l 201 -118 l 672 -118 l 672 -221 l 201 -221 z "},"ŋ":{"ha":833,"x_min":128,"x_max":710,"o":"m 499 -261 q 460 -258 482 -261 q 421 -250 439 -256 l 421 -156 q 455 -160 438 -158 q 486 -161 472 -161 q 565 -138 538 -161 q 593 -60 593 -115 l 593 439 q 550 567 593 529 q 438 606 507 606 q 293 540 342 606 q 244 375 244 475 l 244 0 l 128 0 l 128 694 l 244 694 l 244 564 q 276 624 251 589 q 350 685 301 658 q 476 711 399 711 q 644 646 578 711 q 710 456 710 581 l 710 -61 q 661 -210 710 -158 q 499 -261 613 -261 z "},"ố":{"ha":806,"x_min":75,"x_max":856,"o":"m 403 -17 q 242 24 317 -17 q 121 147 167 65 q 75 347 75 228 q 121 548 75 467 q 242 670 167 629 q 403 711 317 711 q 564 670 489 711 q 685 548 639 629 q 731 347 731 467 q 685 147 731 228 q 564 24 639 65 q 403 -17 489 -17 m 403 89 q 560 157 507 89 q 614 347 614 225 q 560 538 614 469 q 403 606 507 606 q 245 538 299 606 q 192 347 192 469 q 245 157 192 225 q 403 89 299 89 m 182 779 l 371 994 l 440 994 l 628 779 l 514 779 l 406 906 l 297 779 l 182 779 m 586 915 l 703 1131 l 856 1131 l 686 915 l 586 915 z "},"ộ":{"ha":806,"x_min":75,"x_max":731,"o":"m 403 -17 q 242 24 317 -17 q 121 147 167 65 q 75 347 75 228 q 121 548 75 467 q 242 670 167 629 q 403 711 317 711 q 564 670 489 711 q 685 548 639 629 q 731 347 731 467 q 685 147 731 228 q 564 24 639 65 q 403 -17 489 -17 m 403 89 q 560 157 507 89 q 614 347 614 225 q 560 538 614 469 q 403 606 507 606 q 245 538 299 606 q 192 347 192 469 q 245 157 192 225 q 403 89 299 89 m 403 -258 q 349 -235 372 -258 q 326 -182 326 -212 q 349 -128 326 -150 q 403 -106 372 -106 q 456 -128 435 -106 q 478 -182 478 -150 q 456 -235 478 -212 q 403 -258 435 -258 m 182 779 l 371 994 l 440 994 l 628 779 l 514 779 l 406 906 l 297 779 l 182 779 z "},"ồ":{"ha":806,"x_min":75,"x_max":763,"o":"m 403 -17 q 242 24 317 -17 q 121 147 167 65 q 75 347 75 228 q 121 548 75 467 q 242 670 167 629 q 403 711 317 711 q 564 670 489 711 q 685 548 639 629 q 731 347 731 467 q 685 147 731 228 q 564 24 639 65 q 403 -17 489 -17 m 403 89 q 560 157 507 89 q 614 347 614 225 q 560 538 614 469 q 403 606 507 606 q 245 538 299 606 q 192 347 192 469 q 245 157 192 225 q 403 89 299 89 m 182 779 l 371 994 l 440 994 l 628 779 l 514 779 l 406 906 l 297 779 l 182 779 m 663 917 l 493 1132 l 646 1132 l 763 917 l 663 917 z "},"ổ":{"ha":806,"x_min":75,"x_max":771,"o":"m 403 -17 q 242 24 317 -17 q 121 147 167 65 q 75 347 75 228 q 121 548 75 467 q 242 670 167 629 q 403 711 317 711 q 564 670 489 711 q 685 548 639 629 q 731 347 731 467 q 685 147 731 228 q 564 24 639 65 q 403 -17 489 -17 m 403 89 q 560 157 507 89 q 614 347 614 225 q 560 538 614 469 q 403 606 507 606 q 245 538 299 606 q 192 347 192 469 q 245 157 192 225 q 403 89 299 89 m 182 779 l 371 994 l 440 994 l 628 779 l 514 779 l 406 906 l 297 779 l 182 779 m 571 976 l 571 1071 q 651 1084 617 1071 q 685 1131 685 1097 q 647 1171 685 1158 q 563 1179 608 1183 l 563 1254 q 665 1248 618 1258 q 742 1209 713 1238 q 771 1131 771 1181 q 738 1053 771 1083 q 660 1017 704 1022 l 660 976 l 571 976 z "},"ỗ":{"ha":806,"x_min":75,"x_max":731,"o":"m 403 -17 q 242 24 317 -17 q 121 147 167 65 q 75 347 75 228 q 121 548 75 467 q 242 670 167 629 q 403 711 317 711 q 564 670 489 711 q 685 548 639 629 q 731 347 731 467 q 685 147 731 228 q 564 24 639 65 q 403 -17 489 -17 m 403 89 q 560 157 507 89 q 614 347 614 225 q 560 538 614 469 q 403 606 507 606 q 245 538 299 606 q 192 347 192 469 q 245 157 192 225 q 403 89 299 89 m 182 779 l 371 994 l 440 994 l 628 779 l 514 779 l 406 906 l 297 779 l 182 779 m 507 1056 q 443 1076 478 1056 q 376 1116 408 1096 q 319 1136 343 1136 q 260 1113 281 1136 q 229 1075 240 1090 l 176 1138 q 228 1201 192 1168 q 319 1233 264 1233 q 384 1213 350 1233 q 451 1173 418 1193 q 507 1153 483 1153 q 567 1176 547 1153 q 597 1214 586 1199 l 650 1151 q 600 1088 636 1121 q 507 1056 564 1056 z "},"ọ":{"ha":806,"x_min":75,"x_max":731,"o":"m 403 -17 q 242 24 317 -17 q 121 147 167 65 q 75 347 75 228 q 121 548 75 467 q 242 670 167 629 q 403 711 317 711 q 564 670 489 711 q 685 548 639 629 q 731 347 731 467 q 685 147 731 228 q 564 24 639 65 q 403 -17 489 -17 m 403 89 q 560 157 507 89 q 614 347 614 225 q 560 538 614 469 q 403 606 507 606 q 245 538 299 606 q 192 347 192 469 q 245 157 192 225 q 403 89 299 89 m 403 -258 q 349 -235 372 -258 q 326 -182 326 -212 q 349 -128 326 -150 q 403 -106 372 -106 q 456 -128 435 -106 q 478 -182 478 -150 q 456 -235 478 -212 q 403 -258 435 -258 z "},"ỏ":{"ha":806,"x_min":75,"x_max":731,"o":"m 403 -17 q 242 24 317 -17 q 121 147 167 65 q 75 347 75 228 q 121 548 75 467 q 242 670 167 629 q 403 711 317 711 q 564 670 489 711 q 685 548 639 629 q 731 347 731 467 q 685 147 731 228 q 564 24 639 65 q 403 -17 489 -17 m 403 89 q 560 157 507 89 q 614 347 614 225 q 560 538 614 469 q 403 606 507 606 q 245 538 299 606 q 192 347 192 469 q 245 157 192 225 q 403 89 299 89 m 364 796 l 364 890 q 444 903 410 890 q 478 950 478 917 q 440 990 478 978 q 356 999 401 1003 l 356 1074 q 458 1067 411 1078 q 535 1028 506 1057 q 564 950 564 1000 q 531 872 564 903 q 453 836 497 842 l 453 796 l 364 796 z "},"ơ":{"ha":806,"x_min":75,"x_max":764,"o":"m 403 -17 q 242 24 317 -17 q 121 147 167 65 q 75 347 75 228 q 119 545 75 465 q 237 667 164 625 q 394 711 310 710 l 394 711 q 464 711 438 714 q 516 706 490 708 q 583 704 542 703 q 644 727 628 706 q 661 778 661 749 q 654 832 661 807 l 754 839 q 763 777 763 813 q 751 708 764 742 q 708 651 739 674 q 621 629 676 629 q 701 513 671 583 q 731 347 731 442 q 685 147 731 228 q 564 24 639 65 q 403 -17 489 -17 m 403 89 q 560 157 507 89 q 614 347 614 225 q 560 538 614 469 q 403 606 507 606 q 245 538 299 606 q 192 347 192 469 q 245 157 192 225 q 403 89 299 89 z "},"ớ":{"ha":833,"x_min":75,"x_max":764,"o":"m 343 774 l 460 989 l 613 989 l 443 774 l 343 774 m 403 -17 q 242 24 317 -17 q 121 147 167 65 q 75 347 75 228 q 119 545 75 465 q 237 667 164 625 q 394 711 310 710 l 394 711 q 464 711 438 714 q 516 706 490 708 q 583 704 542 703 q 644 727 628 706 q 661 778 661 749 q 654 832 661 807 l 754 839 q 763 777 763 813 q 751 708 764 742 q 708 651 739 674 q 621 629 676 629 q 701 513 671 583 q 731 347 731 442 q 685 147 731 228 q 564 24 639 65 q 403 -17 489 -17 m 403 89 q 560 157 507 89 q 614 347 614 225 q 560 538 614 469 q 403 606 507 606 q 245 538 299 606 q 192 347 192 469 q 245 157 192 225 q 403 89 299 89 z "},"ợ":{"ha":806,"x_min":75,"x_max":764,"o":"m 403 -17 q 242 24 317 -17 q 121 147 167 65 q 75 347 75 228 q 119 545 75 465 q 237 667 164 625 q 394 711 310 710 l 394 711 q 464 711 438 714 q 516 706 490 708 q 583 704 542 703 q 644 727 628 706 q 661 778 661 749 q 654 832 661 807 l 754 839 q 763 777 763 813 q 751 708 764 742 q 708 651 739 674 q 621 629 676 629 q 701 513 671 583 q 731 347 731 442 q 685 147 731 228 q 564 24 639 65 q 403 -17 489 -17 m 403 89 q 560 157 507 89 q 614 347 614 225 q 560 538 614 469 q 403 606 507 606 q 245 538 299 606 q 192 347 192 469 q 245 157 192 225 q 403 89 299 89 m 413 -242 q 359 -219 382 -242 q 336 -165 336 -196 q 359 -111 336 -133 q 413 -89 382 -89 q 466 -111 444 -89 q 488 -165 488 -133 q 466 -219 488 -196 q 413 -242 444 -242 z "},"ờ":{"ha":806,"x_min":75,"x_max":764,"o":"m 403 -17 q 242 24 317 -17 q 121 147 167 65 q 75 347 75 228 q 119 545 75 465 q 237 667 164 625 q 394 711 310 710 l 394 711 q 464 711 438 714 q 516 706 490 708 q 583 704 542 703 q 644 727 628 706 q 661 778 661 749 q 654 832 661 807 l 754 839 q 763 777 763 813 q 751 708 764 742 q 708 651 739 674 q 621 629 676 629 q 701 513 671 583 q 731 347 731 442 q 685 147 731 228 q 564 24 639 65 q 403 -17 489 -17 m 403 89 q 560 157 507 89 q 614 347 614 225 q 560 538 614 469 q 403 606 507 606 q 245 538 299 606 q 192 347 192 469 q 245 157 192 225 q 403 89 299 89 m 354 779 l 185 994 l 338 994 l 454 779 l 354 779 z "},"ở":{"ha":806,"x_min":75,"x_max":764,"o":"m 403 -17 q 242 24 317 -17 q 121 147 167 65 q 75 347 75 228 q 119 545 75 465 q 237 667 164 625 q 394 711 310 710 l 394 711 q 464 711 438 714 q 516 706 490 708 q 583 704 542 703 q 644 727 628 706 q 661 778 661 749 q 654 832 661 807 l 754 839 q 763 777 763 813 q 751 708 764 742 q 708 651 739 674 q 621 629 676 629 q 701 513 671 583 q 731 347 731 442 q 685 147 731 228 q 564 24 639 65 q 403 -17 489 -17 m 403 89 q 560 157 507 89 q 614 347 614 225 q 560 538 614 469 q 403 606 507 606 q 245 538 299 606 q 192 347 192 469 q 245 157 192 225 q 403 89 299 89 m 364 796 l 364 890 q 444 903 410 890 q 478 950 478 917 q 440 990 478 978 q 356 999 401 1003 l 356 1074 q 458 1067 411 1078 q 535 1028 506 1057 q 564 950 564 1000 q 531 872 564 903 q 453 836 497 842 l 453 796 l 364 796 z "},"ỡ":{"ha":806,"x_min":75,"x_max":764,"o":"m 403 -17 q 242 24 317 -17 q 121 147 167 65 q 75 347 75 228 q 119 545 75 465 q 237 667 164 625 q 394 711 310 710 l 394 711 q 464 711 438 714 q 516 706 490 708 q 583 704 542 703 q 644 727 628 706 q 661 778 661 749 q 654 832 661 807 l 754 839 q 763 777 763 813 q 751 708 764 742 q 708 651 739 674 q 621 629 676 629 q 701 513 671 583 q 731 347 731 442 q 685 147 731 228 q 564 24 639 65 q 403 -17 489 -17 m 403 89 q 560 157 507 89 q 614 347 614 225 q 560 538 614 469 q 403 606 507 606 q 245 538 299 606 q 192 347 192 469 q 245 157 192 225 q 403 89 299 89 m 499 803 q 435 823 469 803 q 367 863 400 843 q 311 883 335 883 q 252 860 272 883 q 221 822 232 838 l 168 885 q 219 948 183 915 q 311 981 256 981 q 376 960 342 981 q 442 920 410 940 q 499 900 475 900 q 558 923 539 900 q 589 961 578 946 l 642 899 q 592 835 628 868 q 499 803 556 803 z "},"ő":{"ha":806,"x_min":75,"x_max":756,"o":"m 403 -17 q 242 24 317 -17 q 121 147 167 65 q 75 347 75 228 q 121 548 75 467 q 242 670 167 629 q 403 711 317 711 q 564 670 489 711 q 685 548 639 629 q 731 347 731 467 q 685 147 731 228 q 564 24 639 65 q 403 -17 489 -17 m 403 89 q 560 157 507 89 q 614 347 614 225 q 560 538 614 469 q 403 606 507 606 q 245 538 299 606 q 192 347 192 469 q 245 157 192 225 q 403 89 299 89 m 472 779 l 589 994 l 756 994 l 586 779 l 472 779 m 206 779 l 322 994 l 489 994 l 319 779 l 206 779 z "},"ō":{"ha":806,"x_min":75,"x_max":731,"o":"m 403 -17 q 242 24 317 -17 q 121 147 167 65 q 75 347 75 228 q 121 548 75 467 q 242 670 167 629 q 403 711 317 711 q 564 670 489 711 q 685 548 639 629 q 731 347 731 467 q 685 147 731 228 q 564 24 639 65 q 403 -17 489 -17 m 403 89 q 560 157 507 89 q 614 347 614 225 q 560 538 614 469 q 403 606 507 606 q 245 538 299 606 q 192 347 192 469 q 245 157 192 225 q 403 89 299 89 m 196 838 l 196 940 l 611 940 l 611 838 l 196 838 z "},"œ":{"ha":1331,"x_min":75,"x_max":1272,"o":"m 403 -17 q 242 24 317 -17 q 121 147 167 65 q 75 347 75 228 q 121 548 75 467 q 242 670 167 629 q 403 711 317 711 q 559 673 486 711 q 676 560 632 635 q 799 672 725 633 q 956 711 874 711 q 1116 674 1044 711 q 1230 560 1188 638 q 1272 363 1272 483 l 1272 319 l 731 319 q 795 153 738 219 q 953 88 853 88 q 1067 117 1015 88 q 1147 199 1118 146 l 1250 157 q 956 -18 1164 -18 q 799 22 874 -18 q 676 133 724 61 q 558 21 631 58 q 403 -17 485 -17 m 953 606 q 813 553 868 606 q 740 422 758 501 l 1156 422 q 1133 503 1156 461 q 1065 576 1110 546 q 953 606 1021 606 m 403 89 q 560 157 507 89 q 614 347 614 225 q 560 538 614 469 q 403 606 507 606 q 245 538 299 606 q 192 347 192 469 q 245 157 192 225 q 403 89 299 89 z "},"ŕ":{"ha":558,"x_min":128,"x_max":531,"o":"m 128 0 l 128 694 l 244 694 l 244 557 q 284 630 258 594 q 355 688 310 665 q 471 711 400 711 q 501 709 482 711 q 531 706 521 707 l 531 597 q 478 608 510 604 q 419 606 446 611 q 290 532 335 589 q 244 375 244 475 l 244 0 l 128 0 m 243 794 l 360 1010 l 513 1010 l 343 794 l 243 794 z "},"ř":{"ha":558,"x_min":64,"x_max":531,"o":"m 128 0 l 128 694 l 244 694 l 244 557 q 284 630 258 594 q 355 688 310 665 q 471 711 400 711 q 501 709 482 711 q 531 706 521 707 l 531 597 q 478 608 510 604 q 419 606 446 611 q 290 532 335 589 q 244 375 244 475 l 244 0 l 128 0 m 253 794 l 64 1010 l 179 1010 l 288 883 l 396 1010 l 510 1010 l 322 794 l 253 794 z "},"ŗ":{"ha":558,"x_min":106,"x_max":531,"o":"m 128 0 l 128 694 l 244 694 l 244 557 q 284 630 258 594 q 355 688 310 665 q 471 711 400 711 q 501 709 482 711 q 531 706 521 707 l 531 597 q 478 608 510 604 q 419 606 446 611 q 290 532 335 589 q 244 375 244 475 l 244 0 l 128 0 m 106 -378 q 106 -368 106 -378 q 106 -349 106 -358 q 106 -340 106 -340 q 126 -333 106 -340 q 168 -304 147 -325 q 189 -243 189 -283 q 183 -244 188 -244 q 178 -244 179 -244 q 128 -222 150 -244 q 106 -172 106 -199 q 127 -118 106 -143 q 179 -93 149 -93 q 244 -122 218 -93 q 269 -190 269 -150 q 224 -326 269 -274 q 106 -378 178 -378 z "},"ṛ":{"ha":558,"x_min":110,"x_max":531,"o":"m 128 0 l 128 694 l 244 694 l 244 557 q 284 630 258 594 q 355 688 310 665 q 471 711 400 711 q 501 709 482 711 q 531 706 521 707 l 531 597 q 478 608 510 604 q 419 606 446 611 q 290 532 335 589 q 244 375 244 475 l 244 0 l 128 0 m 186 -242 q 133 -219 156 -242 q 110 -165 110 -196 q 133 -111 110 -133 q 186 -89 156 -89 q 240 -111 218 -89 q 261 -165 261 -133 q 240 -219 261 -196 q 186 -242 218 -242 z "},"ṟ":{"ha":558,"x_min":-50,"x_max":531,"o":"m 128 0 l 128 694 l 244 694 l 244 557 q 284 630 258 594 q 355 688 310 665 q 471 711 400 711 q 501 709 482 711 q 531 706 521 707 l 531 597 q 478 608 510 604 q 419 606 446 611 q 290 532 335 589 q 244 375 244 475 l 244 0 l 128 0 m -50 -204 l -50 -101 l 421 -101 l 421 -204 l -50 -204 z "},"ś":{"ha":699,"x_min":69,"x_max":622,"o":"m 342 -17 q 210 13 272 -17 q 108 96 147 43 q 69 217 69 149 l 194 217 q 219 145 194 174 q 281 103 244 117 q 351 89 317 89 q 463 114 421 89 q 504 190 504 139 q 474 259 504 236 q 396 294 443 282 q 294 315 349 306 q 193 343 240 325 q 115 399 146 361 q 85 503 85 436 q 113 601 85 554 q 197 680 140 649 q 338 711 253 711 q 498 678 439 711 q 583 599 557 646 q 608 510 608 553 l 489 510 q 450 575 489 544 q 336 606 411 606 q 235 578 268 606 q 201 507 201 551 q 232 447 201 468 q 310 415 263 426 q 412 391 358 403 q 513 358 465 379 q 592 297 561 336 q 622 190 622 257 q 592 88 622 135 q 501 12 563 40 q 342 -17 439 -17 m 293 785 l 410 1000 l 563 1000 l 393 785 l 293 785 z "},"š":{"ha":699,"x_min":69,"x_max":622,"o":"m 342 -17 q 210 13 272 -17 q 108 96 147 43 q 69 217 69 149 l 194 217 q 219 145 194 174 q 281 103 244 117 q 351 89 317 89 q 463 114 421 89 q 504 190 504 139 q 474 259 504 236 q 396 294 443 282 q 294 315 349 306 q 193 343 240 325 q 115 399 146 361 q 85 503 85 436 q 113 601 85 554 q 197 680 140 649 q 338 711 253 711 q 498 678 439 711 q 583 599 557 646 q 608 510 608 553 l 489 510 q 450 575 489 544 q 336 606 411 606 q 235 578 268 606 q 201 507 201 551 q 232 447 201 468 q 310 415 263 426 q 412 391 358 403 q 513 358 465 379 q 592 297 561 336 q 622 190 622 257 q 592 88 622 135 q 501 12 563 40 q 342 -17 439 -17 m 303 785 l 114 1000 l 229 1000 l 338 874 l 446 1000 l 560 1000 l 372 785 l 303 785 z "},"ş":{"ha":699,"x_min":69,"x_max":622,"o":"m 342 -17 q 210 13 272 -17 q 108 96 147 43 q 69 217 69 149 l 194 217 q 219 145 194 174 q 281 103 244 117 q 351 89 317 89 q 463 114 421 89 q 504 190 504 139 q 474 259 504 236 q 396 294 443 282 q 294 315 349 306 q 193 343 240 325 q 115 399 146 361 q 85 503 85 436 q 113 601 85 554 q 197 680 140 649 q 338 711 253 711 q 498 678 439 711 q 583 599 557 646 q 608 510 608 553 l 489 510 q 450 575 489 544 q 336 606 411 606 q 235 578 268 606 q 201 507 201 551 q 232 447 201 468 q 310 415 263 426 q 412 391 358 403 q 513 358 465 379 q 592 297 561 336 q 622 190 622 257 q 592 88 622 135 q 501 12 563 40 q 342 -17 439 -17 m 357 -307 q 271 -287 310 -307 q 210 -237 232 -267 l 261 -176 q 294 -208 272 -190 q 349 -225 317 -225 q 414 -185 414 -225 q 357 -143 414 -143 q 324 -150 339 -143 q 306 -162 310 -157 l 246 -107 l 308 -8 l 394 -8 l 346 -83 q 413 -85 379 -74 q 469 -123 446 -96 q 492 -190 492 -150 q 451 -274 492 -242 q 357 -307 411 -307 z "},"ș":{"ha":699,"x_min":69,"x_max":622,"o":"m 342 -17 q 210 13 272 -17 q 108 96 147 43 q 69 217 69 149 l 194 217 q 219 145 194 174 q 281 103 244 117 q 351 89 317 89 q 463 114 421 89 q 504 190 504 139 q 474 259 504 236 q 396 294 443 282 q 294 315 349 306 q 193 343 240 325 q 115 399 146 361 q 85 503 85 436 q 113 601 85 554 q 197 680 140 649 q 338 711 253 711 q 498 678 439 711 q 583 599 557 646 q 608 510 608 553 l 489 510 q 450 575 489 544 q 336 606 411 606 q 235 578 268 606 q 201 507 201 551 q 232 447 201 468 q 310 415 263 426 q 412 391 358 403 q 513 358 465 379 q 592 297 561 336 q 622 190 622 257 q 592 88 622 135 q 501 12 563 40 q 342 -17 439 -17 m 261 -394 q 261 -385 261 -394 q 261 -366 261 -375 q 261 -357 261 -357 q 282 -349 261 -357 q 324 -321 303 -342 q 344 -260 344 -300 q 339 -261 343 -261 q 333 -261 335 -261 q 283 -238 306 -261 q 261 -189 261 -215 q 283 -135 261 -160 q 335 -110 304 -110 q 399 -138 374 -110 q 425 -207 425 -167 q 379 -342 425 -290 q 261 -394 333 -394 z "},"ť":{"ha":508,"x_min":36,"x_max":576,"o":"m 369 -17 q 208 35 256 -17 q 161 183 161 86 l 161 588 l 36 588 l 36 694 l 68 694 q 143 713 125 694 q 161 792 161 732 l 161 871 l 278 871 l 278 693 l 457 693 l 457 588 l 278 588 l 278 183 q 304 106 278 128 q 382 83 331 83 q 413 85 396 83 q 446 89 429 86 l 446 -6 q 369 -17 408 -17 m 386 819 l 428 1074 l 576 1074 l 482 819 l 386 819 z "},"ţ":{"ha":508,"x_min":36,"x_max":457,"o":"m 369 -17 q 208 35 256 -17 q 161 183 161 86 l 161 588 l 36 588 l 36 694 l 68 694 q 143 713 125 694 q 161 792 161 732 l 161 871 l 278 871 l 278 693 l 457 693 l 457 588 l 278 588 l 278 183 q 304 106 278 128 q 382 83 331 83 q 413 85 396 83 q 446 89 429 86 l 446 -6 q 369 -17 408 -17 m 307 -296 q 221 -276 260 -296 q 160 -226 182 -256 l 211 -165 q 244 -197 222 -179 q 299 -214 267 -214 q 364 -174 364 -214 q 307 -132 364 -132 q 274 -139 289 -132 q 256 -151 260 -146 l 196 -96 l 258 3 l 344 3 l 296 -72 q 363 -74 329 -62 q 419 -112 396 -85 q 442 -179 442 -139 q 401 -263 442 -231 q 307 -296 361 -296 z "},"ț":{"ha":508,"x_min":36,"x_max":457,"o":"m 369 -17 q 208 35 256 -17 q 161 183 161 86 l 161 588 l 36 588 l 36 694 l 68 694 q 143 713 125 694 q 161 792 161 732 l 161 871 l 278 871 l 278 693 l 457 693 l 457 588 l 278 588 l 278 183 q 304 106 278 128 q 382 83 331 83 q 413 85 396 83 q 446 89 429 86 l 446 -6 q 369 -17 408 -17 m 211 -383 q 211 -374 211 -383 q 211 -355 211 -364 q 211 -346 211 -346 q 232 -338 211 -346 q 274 -310 253 -331 q 294 -249 294 -289 q 289 -250 293 -250 q 283 -250 285 -250 q 233 -227 256 -250 q 211 -178 211 -204 q 233 -124 211 -149 q 285 -99 254 -99 q 349 -127 324 -99 q 375 -196 375 -156 q 329 -331 375 -279 q 211 -383 283 -383 z "},"ṭ":{"ha":508,"x_min":36,"x_max":457,"o":"m 369 -17 q 208 35 256 -17 q 161 183 161 86 l 161 588 l 36 588 l 36 694 l 68 694 q 143 713 125 694 q 161 792 161 732 l 161 871 l 278 871 l 278 693 l 457 693 l 457 588 l 278 588 l 278 183 q 304 106 278 128 q 382 83 331 83 q 413 85 396 83 q 446 89 429 86 l 446 -6 q 369 -17 408 -17 m 292 -247 q 238 -224 261 -247 q 215 -171 215 -201 q 238 -117 215 -139 q 292 -94 261 -94 q 345 -117 324 -94 q 367 -171 367 -139 q 345 -224 367 -201 q 292 -247 324 -247 z "},"ṯ":{"ha":508,"x_min":36,"x_max":526,"o":"m 369 -17 q 208 35 256 -17 q 161 183 161 86 l 161 588 l 36 588 l 36 694 l 68 694 q 143 713 125 694 q 161 792 161 732 l 161 871 l 278 871 l 278 693 l 457 693 l 457 588 l 278 588 l 278 183 q 304 106 278 128 q 382 83 331 83 q 413 85 396 83 q 446 89 429 86 l 446 -6 q 369 -17 408 -17 m 56 -210 l 56 -107 l 526 -107 l 526 -210 l 56 -210 z "},"ŭ":{"ha":829,"x_min":119,"x_max":701,"o":"m 353 -17 q 185 49 251 -17 q 119 239 119 114 l 119 694 l 236 694 l 236 256 q 279 127 236 165 q 392 89 322 89 q 536 154 488 89 q 585 319 585 219 l 585 694 l 701 694 l 701 0 l 585 0 l 585 131 q 553 72 579 107 q 479 10 528 36 q 353 -17 431 -17 m 399 778 q 286 808 333 778 q 215 888 239 839 q 190 993 190 938 l 290 993 q 319 911 290 947 q 399 875 347 875 q 480 911 451 875 q 508 993 508 947 l 608 993 q 584 888 608 938 q 513 808 560 839 q 399 778 465 778 z "},"ụ":{"ha":829,"x_min":119,"x_max":701,"o":"m 353 -17 q 185 49 251 -17 q 119 239 119 114 l 119 694 l 236 694 l 236 256 q 279 127 236 165 q 392 89 322 89 q 536 154 488 89 q 585 319 585 219 l 585 694 l 701 694 l 701 0 l 585 0 l 585 131 q 553 72 579 107 q 479 10 528 36 q 353 -17 431 -17 m 392 -258 q 338 -235 361 -258 q 315 -182 315 -212 q 338 -128 315 -150 q 392 -106 361 -106 q 445 -128 424 -106 q 467 -182 467 -150 q 445 -235 467 -212 q 392 -258 424 -258 z "},"ủ":{"ha":829,"x_min":119,"x_max":701,"o":"m 353 -17 q 185 49 251 -17 q 119 239 119 114 l 119 694 l 236 694 l 236 256 q 279 127 236 165 q 392 89 322 89 q 536 154 488 89 q 585 319 585 219 l 585 694 l 701 694 l 701 0 l 585 0 l 585 131 q 553 72 579 107 q 479 10 528 36 q 353 -17 431 -17 m 361 794 l 361 889 q 441 902 407 889 q 475 949 475 915 q 437 989 475 976 q 353 997 399 1001 l 353 1072 q 456 1066 408 1076 q 532 1027 503 1056 q 561 949 561 999 q 528 871 561 901 q 450 835 494 840 l 450 794 l 361 794 z "},"ư":{"ha":833,"x_min":119,"x_max":858,"o":"m 353 -17 q 185 49 251 -17 q 119 239 119 114 l 119 694 l 236 694 l 236 256 q 279 127 236 165 q 392 89 322 89 q 536 154 488 89 q 585 319 585 219 l 585 694 l 676 694 q 738 717 721 696 q 754 768 754 739 q 747 822 754 797 l 847 829 q 857 770 856 804 q 845 703 858 736 q 798 648 832 671 q 701 621 764 625 l 701 0 l 585 0 l 585 131 q 553 72 579 107 q 479 10 528 36 q 353 -17 431 -17 z "},"ứ":{"ha":833,"x_min":119,"x_max":858,"o":"m 353 -17 q 185 49 251 -17 q 119 239 119 114 l 119 694 l 236 694 l 236 256 q 279 127 236 165 q 392 89 322 89 q 536 154 488 89 q 585 319 585 219 l 585 694 l 676 694 q 738 717 721 696 q 754 768 754 739 q 747 822 754 797 l 847 829 q 857 770 856 804 q 845 703 858 736 q 798 648 832 671 q 701 621 764 625 l 701 0 l 585 0 l 585 131 q 553 72 579 107 q 479 10 528 36 q 353 -17 431 -17 m 356 778 l 472 993 l 625 993 l 456 778 l 356 778 z "},"ự":{"ha":833,"x_min":119,"x_max":858,"o":"m 353 -17 q 185 49 251 -17 q 119 239 119 114 l 119 694 l 236 694 l 236 256 q 279 127 236 165 q 392 89 322 89 q 536 154 488 89 q 585 319 585 219 l 585 694 l 676 694 q 738 717 721 696 q 754 768 754 739 q 747 822 754 797 l 847 829 q 857 770 856 804 q 845 703 858 736 q 798 648 832 671 q 701 621 764 625 l 701 0 l 585 0 l 585 131 q 553 72 579 107 q 479 10 528 36 q 353 -17 431 -17 m 392 -258 q 338 -235 361 -258 q 315 -182 315 -212 q 338 -128 315 -150 q 392 -106 361 -106 q 445 -128 424 -106 q 467 -182 467 -150 q 445 -235 467 -212 q 392 -258 424 -258 z "},"ừ":{"ha":833,"x_min":119,"x_max":858,"o":"m 353 -17 q 185 49 251 -17 q 119 239 119 114 l 119 694 l 236 694 l 236 256 q 279 127 236 165 q 392 89 322 89 q 536 154 488 89 q 585 319 585 219 l 585 694 l 676 694 q 738 717 721 696 q 754 768 754 739 q 747 822 754 797 l 847 829 q 857 770 856 804 q 845 703 858 736 q 798 648 832 671 q 701 621 764 625 l 701 0 l 585 0 l 585 131 q 553 72 579 107 q 479 10 528 36 q 353 -17 431 -17 m 351 778 l 182 993 l 335 993 l 451 778 l 351 778 z "},"ử":{"ha":833,"x_min":119,"x_max":858,"o":"m 353 -17 q 185 49 251 -17 q 119 239 119 114 l 119 694 l 236 694 l 236 256 q 279 127 236 165 q 392 89 322 89 q 536 154 488 89 q 585 319 585 219 l 585 694 l 676 694 q 738 717 721 696 q 754 768 754 739 q 747 822 754 797 l 847 829 q 857 770 856 804 q 845 703 858 736 q 798 648 832 671 q 701 621 764 625 l 701 0 l 585 0 l 585 131 q 553 72 579 107 q 479 10 528 36 q 353 -17 431 -17 m 361 794 l 361 889 q 441 902 407 889 q 475 949 475 915 q 437 989 475 976 q 353 997 399 1001 l 353 1072 q 456 1066 408 1076 q 532 1027 503 1056 q 561 949 561 999 q 528 871 561 901 q 450 835 494 840 l 450 794 l 361 794 z "},"ữ":{"ha":833,"x_min":119,"x_max":858,"o":"m 353 -17 q 185 49 251 -17 q 119 239 119 114 l 119 694 l 236 694 l 236 256 q 279 127 236 165 q 392 89 322 89 q 536 154 488 89 q 585 319 585 219 l 585 694 l 676 694 q 738 717 721 696 q 754 768 754 739 q 747 822 754 797 l 847 829 q 857 770 856 804 q 845 703 858 736 q 798 648 832 671 q 701 621 764 625 l 701 0 l 585 0 l 585 131 q 553 72 579 107 q 479 10 528 36 q 353 -17 431 -17 m 496 801 q 432 822 467 801 q 365 862 397 842 q 308 882 332 882 q 249 859 269 882 q 218 821 229 836 l 165 883 q 217 947 181 914 q 308 979 253 979 q 373 959 339 979 q 440 919 407 939 q 496 899 472 899 q 556 922 536 899 q 586 960 575 944 l 639 897 q 589 834 625 867 q 496 801 553 801 z "},"ű":{"ha":829,"x_min":119,"x_max":753,"o":"m 353 -17 q 185 49 251 -17 q 119 239 119 114 l 119 694 l 236 694 l 236 256 q 279 127 236 165 q 392 89 322 89 q 536 154 488 89 q 585 319 585 219 l 585 694 l 701 694 l 701 0 l 585 0 l 585 131 q 553 72 579 107 q 479 10 528 36 q 353 -17 431 -17 m 469 778 l 586 993 l 753 993 l 583 778 l 469 778 m 203 778 l 319 993 l 486 993 l 317 778 l 203 778 z "},"ū":{"ha":829,"x_min":119,"x_max":701,"o":"m 353 -17 q 185 49 251 -17 q 119 239 119 114 l 119 694 l 236 694 l 236 256 q 279 127 236 165 q 392 89 322 89 q 536 154 488 89 q 585 319 585 219 l 585 694 l 701 694 l 701 0 l 585 0 l 585 131 q 553 72 579 107 q 479 10 528 36 q 353 -17 431 -17 m 193 836 l 193 939 l 608 939 l 608 836 l 193 836 z "},"ų":{"ha":829,"x_min":119,"x_max":743,"o":"m 353 -17 q 185 49 251 -17 q 119 239 119 114 l 119 694 l 236 694 l 236 256 q 279 127 236 165 q 392 89 322 89 q 536 154 488 89 q 585 319 585 219 l 585 694 l 701 694 l 701 0 l 585 0 l 585 131 q 553 72 579 107 q 479 10 528 36 q 353 -17 431 -17 m 657 -319 q 574 -297 608 -319 q 523 -237 540 -274 q 506 -161 506 -200 q 520 -92 506 -126 q 553 -33 535 -58 q 586 0 572 -8 l 701 0 q 636 -65 661 -25 q 611 -140 611 -106 q 632 -197 611 -179 q 684 -215 653 -215 q 743 -201 715 -215 l 743 -299 q 698 -315 725 -310 q 657 -319 671 -319 z "},"ů":{"ha":829,"x_min":119,"x_max":701,"o":"m 353 -17 q 185 49 251 -17 q 119 239 119 114 l 119 694 l 236 694 l 236 256 q 279 127 236 165 q 392 89 322 89 q 536 154 488 89 q 585 319 585 219 l 585 694 l 701 694 l 701 0 l 585 0 l 585 131 q 553 72 579 107 q 479 10 528 36 q 353 -17 431 -17 m 400 778 q 298 822 335 778 q 261 921 261 865 q 298 1022 261 978 q 400 1065 335 1065 q 503 1022 467 1065 q 540 921 540 978 q 503 822 540 865 q 400 778 467 778 m 400 857 q 445 875 428 857 q 463 921 463 893 q 445 967 463 949 q 400 986 428 986 q 356 967 374 986 q 339 921 339 949 q 356 875 339 893 q 400 857 374 857 z "},"ũ":{"ha":829,"x_min":119,"x_max":701,"o":"m 353 -17 q 185 49 251 -17 q 119 239 119 114 l 119 694 l 236 694 l 236 256 q 279 127 236 165 q 392 89 322 89 q 536 154 488 89 q 585 319 585 219 l 585 694 l 701 694 l 701 0 l 585 0 l 585 131 q 553 72 579 107 q 479 10 528 36 q 353 -17 431 -17 m 496 801 q 432 822 467 801 q 365 862 397 842 q 308 882 332 882 q 249 859 269 882 q 218 821 229 836 l 165 883 q 217 947 181 914 q 308 979 253 979 q 373 959 339 979 q 440 919 407 939 q 496 899 472 899 q 556 922 536 899 q 586 960 575 944 l 639 897 q 589 834 625 867 q 496 801 553 801 z "},"ẃ":{"ha":1069,"x_min":49,"x_max":1021,"o":"m 242 0 l 49 693 l 175 693 l 313 115 l 471 693 l 599 693 l 756 114 l 894 693 l 1021 693 l 828 0 l 671 0 l 535 510 l 393 0 l 242 0 m 493 774 l 610 989 l 763 989 l 593 774 l 493 774 z "},"ŵ":{"ha":1069,"x_min":49,"x_max":1021,"o":"m 242 0 l 49 693 l 175 693 l 313 115 l 471 693 l 599 693 l 756 114 l 894 693 l 1021 693 l 828 0 l 671 0 l 535 510 l 393 0 l 242 0 m 317 774 l 506 989 l 575 989 l 763 774 l 649 774 l 540 900 l 432 774 l 317 774 z "},"ẅ":{"ha":1069,"x_min":49,"x_max":1021,"o":"m 242 0 l 49 693 l 175 693 l 313 115 l 471 693 l 599 693 l 756 114 l 894 693 l 1021 693 l 828 0 l 671 0 l 535 510 l 393 0 l 242 0 m 661 807 q 608 830 631 807 q 585 883 585 853 q 608 938 585 915 q 661 960 631 960 q 715 938 693 960 q 736 883 736 915 q 715 830 736 853 q 661 807 693 807 m 418 807 q 365 830 388 807 q 342 883 342 853 q 365 938 342 915 q 418 960 388 960 q 472 938 450 960 q 493 883 493 915 q 472 830 493 853 q 418 807 450 807 z "},"ẁ":{"ha":1069,"x_min":49,"x_max":1021,"o":"m 242 0 l 49 693 l 175 693 l 313 115 l 471 693 l 599 693 l 756 114 l 894 693 l 1021 693 l 828 0 l 671 0 l 535 510 l 393 0 l 242 0 m 489 774 l 319 989 l 472 989 l 589 774 l 489 774 z "},"ŷ":{"ha":692,"x_min":21,"x_max":675,"o":"m 157 -319 q 115 -316 135 -319 q 82 -308 96 -312 l 82 -203 q 113 -207 94 -206 q 149 -208 131 -208 q 208 -192 181 -208 q 260 -131 235 -176 q 310 4 285 -85 l 21 694 l 140 694 l 364 165 l 551 694 l 675 694 l 396 -47 q 333 -198 363 -137 q 263 -289 303 -258 q 157 -319 222 -319 m 142 779 l 331 994 l 400 994 l 588 779 l 474 779 l 365 906 l 257 779 l 142 779 z "},"ỵ":{"ha":692,"x_min":21,"x_max":675,"o":"m 157 -319 q 115 -316 135 -319 q 82 -308 96 -312 l 82 -203 q 113 -207 94 -206 q 149 -208 131 -208 q 208 -192 181 -208 q 260 -131 235 -176 q 310 4 285 -85 l 21 694 l 140 694 l 364 165 l 551 694 l 675 694 l 396 -47 q 333 -198 363 -137 q 263 -289 303 -258 q 157 -319 222 -319 m 363 -561 q 309 -538 332 -561 q 286 -485 286 -515 q 309 -431 286 -453 q 363 -408 332 -408 q 416 -431 394 -408 q 438 -485 438 -453 q 416 -538 438 -515 q 363 -561 394 -561 z "},"ỳ":{"ha":692,"x_min":21,"x_max":675,"o":"m 157 -319 q 115 -316 135 -319 q 82 -308 96 -312 l 82 -203 q 113 -207 94 -206 q 149 -208 131 -208 q 208 -192 181 -208 q 260 -131 235 -176 q 310 4 285 -85 l 21 694 l 140 694 l 364 165 l 551 694 l 675 694 l 396 -47 q 333 -198 363 -137 q 263 -289 303 -258 q 157 -319 222 -319 m 314 779 l 144 994 l 297 994 l 414 779 l 314 779 z "},"ỷ":{"ha":692,"x_min":21,"x_max":675,"o":"m 157 -319 q 115 -316 135 -319 q 82 -308 96 -312 l 82 -203 q 113 -207 94 -206 q 149 -208 131 -208 q 208 -192 181 -208 q 260 -131 235 -176 q 310 4 285 -85 l 21 694 l 140 694 l 364 165 l 551 694 l 675 694 l 396 -47 q 333 -198 363 -137 q 263 -289 303 -258 q 157 -319 222 -319 m 324 796 l 324 890 q 403 903 369 890 q 438 950 438 917 q 399 990 438 978 q 315 999 361 1003 l 315 1074 q 418 1067 371 1078 q 494 1028 465 1057 q 524 950 524 1000 q 490 872 524 903 q 413 836 457 842 l 413 796 l 324 796 z "},"ỹ":{"ha":692,"x_min":21,"x_max":675,"o":"m 157 -319 q 115 -316 135 -319 q 82 -308 96 -312 l 82 -203 q 113 -207 94 -206 q 149 -208 131 -208 q 208 -192 181 -208 q 260 -131 235 -176 q 310 4 285 -85 l 21 694 l 140 694 l 364 165 l 551 694 l 675 694 l 396 -47 q 333 -198 363 -137 q 263 -289 303 -258 q 157 -319 222 -319 m 458 803 q 394 823 429 803 q 327 863 360 843 q 271 883 294 883 q 212 860 232 883 q 181 822 192 838 l 128 885 q 179 948 143 915 q 271 981 215 981 q 335 960 301 981 q 402 920 369 940 q 458 900 435 900 q 518 923 499 900 q 549 961 538 946 l 601 899 q 551 835 588 868 q 458 803 515 803 z "},"ź":{"ha":593,"x_min":69,"x_max":529,"o":"m 69 1 l 69 108 l 406 590 l 69 590 l 69 696 l 526 696 l 526 590 l 190 107 l 529 107 l 529 1 l 69 1 m 260 786 l 376 1001 l 529 1001 l 360 786 l 260 786 z "},"ž":{"ha":593,"x_min":69,"x_max":529,"o":"m 69 1 l 69 108 l 406 590 l 69 590 l 69 696 l 526 696 l 526 590 l 190 107 l 529 107 l 529 1 l 69 1 m 269 786 l 81 1001 l 196 1001 l 304 875 l 413 1001 l 526 1001 l 339 786 l 269 786 z "},"ż":{"ha":593,"x_min":69,"x_max":529,"o":"m 69 1 l 69 108 l 406 590 l 69 590 l 69 696 l 526 696 l 526 590 l 190 107 l 529 107 l 529 1 l 69 1 m 304 819 q 251 842 274 819 q 228 896 228 865 q 251 950 228 928 q 304 972 274 972 q 358 950 336 972 q 379 896 379 928 q 358 842 379 865 q 304 819 336 819 z "}," ":{"ha":372,"x_min":0,"x_max":0,"o":""},"…":{"ha":1069,"x_min":67,"x_max":881,"o":"m 475 -17 q 413 10 439 -17 q 386 71 386 36 q 413 133 386 107 q 475 160 439 160 q 536 133 511 160 q 561 71 561 107 q 536 10 561 36 q 475 -17 511 -17 m 794 -17 q 732 10 758 -17 q 706 71 706 36 q 732 133 706 107 q 794 160 758 160 q 856 133 831 160 q 881 71 881 107 q 856 10 881 36 q 794 -17 831 -17 m 156 -17 q 93 10 119 -17 q 67 71 67 36 q 93 133 67 107 q 156 160 119 160 q 217 133 192 160 q 242 71 242 107 q 217 10 242 36 q 156 -17 192 -17 z "},"•":{"ha":471,"x_min":118,"x_max":353,"o":"m 238 310 q 153 344 189 310 q 118 426 118 379 q 153 510 118 475 q 238 546 189 546 q 319 510 285 546 q 353 426 353 475 q 319 344 353 379 q 238 310 285 310 z "},"–":{"ha":771,"x_min":99,"x_max":672,"o":"m 99 354 l 99 465 l 672 465 l 672 354 l 99 354 z "},"—":{"ha":1232,"x_min":99,"x_max":1133,"o":"m 99 351 l 99 463 l 1133 463 l 1133 351 l 99 351 z "},"‚":{"ha":381,"x_min":69,"x_max":269,"o":"m 69 -165 q 69 -153 69 -165 q 69 -131 69 -142 q 69 -119 69 -119 q 85 -115 69 -119 q 121 -97 100 -110 q 157 -60 142 -83 q 172 1 172 -36 q 166 0 171 0 q 158 0 161 0 q 97 27 124 0 q 69 89 69 54 q 97 156 69 125 q 161 186 124 186 q 240 152 210 186 q 269 67 269 118 q 247 -47 269 7 q 179 -133 224 -100 q 69 -165 135 -165 z "},"„":{"ha":643,"x_min":69,"x_max":524,"o":"m 324 -165 q 324 -153 324 -165 q 324 -131 324 -142 q 324 -119 324 -119 q 339 -115 324 -119 q 375 -97 354 -110 q 411 -60 396 -83 q 426 1 426 -36 q 420 0 425 0 q 413 0 415 0 q 351 27 378 0 q 324 89 324 54 q 351 156 324 125 q 415 186 378 186 q 494 152 464 186 q 524 67 524 118 q 501 -47 524 7 q 433 -133 478 -100 q 324 -165 389 -165 m 69 -165 q 69 -153 69 -165 q 69 -131 69 -142 q 69 -119 69 -119 q 85 -115 69 -119 q 121 -97 100 -110 q 157 -60 142 -83 q 172 1 172 -36 q 166 0 171 0 q 158 0 161 0 q 97 27 124 0 q 69 89 69 54 q 97 156 69 125 q 161 186 124 186 q 240 152 210 186 q 269 67 269 118 q 247 -47 269 7 q 179 -133 224 -100 q 69 -165 135 -165 z "},"“":{"ha":600,"x_min":63,"x_max":532,"o":"m 439 649 q 356 687 381 649 q 331 768 331 725 q 342 844 331 804 q 376 919 353 883 q 438 978 400 956 q 531 1000 476 1000 q 531 989 532 1000 q 531 966 531 978 q 531 954 531 954 q 515 949 531 954 q 479 931 500 944 q 443 894 458 918 q 428 833 428 871 q 435 835 431 835 q 442 835 439 835 q 506 810 482 835 q 531 746 531 785 q 505 676 531 703 q 439 649 479 649 m 171 649 q 88 687 113 649 q 63 768 63 725 q 74 844 63 804 q 108 919 85 883 q 170 978 132 956 q 263 1000 208 1000 q 263 989 264 1000 q 263 966 263 978 q 263 954 263 954 q 247 949 263 954 q 211 931 232 944 q 175 894 190 918 q 160 833 160 871 q 167 835 163 835 q 174 835 171 835 q 238 810 214 835 q 263 746 263 785 q 237 676 263 703 q 171 649 211 649 z "}}}
